<svg xmlns="http://www.w3.org/2000/svg" xmlns:xlink="http://www.w3.org/1999/xlink" width="64" zoomAndPan="magnify" viewBox="0 0 48 48" height="64" preserveAspectRatio="xMidYMid meet" version="1.0"><defs><g/><clipPath id="1c04fd5abf"><path d="M 2.753906 2.261719 L 45.246094 2.261719 L 45.246094 44.757812 L 2.753906 44.757812 Z M 2.753906 2.261719 " clip-rule="nonzero"/></clipPath><clipPath id="5ab988161d"><path d="M 24 2.261719 C 12.265625 2.261719 2.753906 11.777344 2.753906 23.511719 C 2.753906 35.246094 12.265625 44.757812 24 44.757812 C 35.734375 44.757812 45.246094 35.246094 45.246094 23.511719 C 45.246094 11.777344 35.734375 2.261719 24 2.261719 Z M 24 2.261719 " clip-rule="nonzero"/></clipPath><clipPath id="1a367d7958"><path d="M 3.296875 2.808594 L 44.703125 2.808594 L 44.703125 44.210938 L 3.296875 44.210938 Z M 3.296875 2.808594 " clip-rule="nonzero"/></clipPath><clipPath id="557ac7ef86"><path d="M 24 2.835938 C 12.582031 2.835938 3.328125 12.09375 3.328125 23.511719 C 3.328125 34.929688 12.582031 44.183594 24 44.183594 C 35.417969 44.183594 44.671875 34.929688 44.671875 23.511719 C 44.671875 12.09375 35.417969 2.835938 24 2.835938 Z M 24 2.835938 " clip-rule="nonzero"/></clipPath><clipPath id="a04b6296e9"><path d="M 4.351562 3.863281 L 43.648438 3.863281 L 43.648438 43.15625 L 4.351562 43.15625 Z M 4.351562 3.863281 " clip-rule="nonzero"/></clipPath><clipPath id="51f00fdb08"><path d="M 24 3.871094 C 13.152344 3.871094 4.363281 12.664062 4.363281 23.511719 C 4.363281 34.355469 13.152344 43.148438 24 43.148438 C 34.847656 43.148438 43.636719 34.355469 43.636719 23.511719 C 43.636719 12.664062 34.847656 3.871094 24 3.871094 Z M 24 3.871094 " clip-rule="nonzero"/></clipPath></defs><g clip-path="url(#1c04fd5abf)"><g clip-path="url(#5ab988161d)"><path fill="#ffffff" d="M 2.753906 2.261719 L 45.246094 2.261719 L 45.246094 44.757812 L 2.753906 44.757812 Z M 2.753906 2.261719 " fill-opacity="1" fill-rule="nonzero"/></g></g><g clip-path="url(#1a367d7958)"><g clip-path="url(#557ac7ef86)"><path fill="#d15949" d="M 2.753906 2.261719 L 45.246094 2.261719 L 45.246094 44.757812 L 2.753906 44.757812 Z M 2.753906 2.261719 " fill-opacity="1" fill-rule="nonzero"/></g></g><g clip-path="url(#a04b6296e9)"><g clip-path="url(#51f00fdb08)"><path fill="#d15949" d="M 2.753906 2.261719 L 45.246094 2.261719 L 45.246094 44.757812 L 2.753906 44.757812 Z M 2.753906 2.261719 " fill-opacity="1" fill-rule="nonzero"/></g></g><g fill="#fdfdfd" fill-opacity="1"><g transform="translate(11.028414, 32.696396)"><g><path d="M 2.0625 -21.515625 C 2.625 -22.078125 3.289062 -22.359375 4.0625 -22.359375 C 4.832031 -22.359375 5.492188 -22.078125 6.046875 -21.515625 C 6.609375 -20.960938 6.890625 -20.300781 6.890625 -19.53125 C 6.890625 -18.757812 6.609375 -18.09375 6.046875 -17.53125 C 5.492188 -16.976562 4.832031 -16.703125 4.0625 -16.703125 C 3.289062 -16.703125 2.625 -16.976562 2.0625 -17.53125 C 1.507812 -18.09375 1.234375 -18.757812 1.234375 -19.53125 C 1.234375 -20.300781 1.507812 -20.960938 2.0625 -21.515625 Z M 1.609375 -13.8125 L 1.609375 0 L 6.390625 0 L 6.390625 -13.8125 Z M 1.609375 -13.8125 "/></g></g></g><g fill="#fdfdfd" fill-opacity="1"><g transform="translate(19.159215, 32.696396)"><g><path d="M 1.609375 0 L 1.609375 -13.8125 L 6.390625 -13.8125 L 6.390625 -12.359375 L 6.4375 -12.359375 C 7.675781 -13.597656 8.992188 -14.21875 10.390625 -14.21875 C 11.078125 -14.21875 11.753906 -14.128906 12.421875 -13.953125 C 13.097656 -13.773438 13.742188 -13.492188 14.359375 -13.109375 C 14.984375 -12.734375 15.488281 -12.203125 15.875 -11.515625 C 16.257812 -10.828125 16.453125 -10.023438 16.453125 -9.109375 L 16.453125 0 L 11.6875 0 L 11.6875 -7.8125 C 11.6875 -8.53125 11.457031 -9.15625 11 -9.6875 C 10.539062 -10.226562 9.945312 -10.5 9.21875 -10.5 C 8.5 -10.5 7.847656 -10.21875 7.265625 -9.65625 C 6.679688 -9.101562 6.390625 -8.488281 6.390625 -7.8125 L 6.390625 0 Z M 1.609375 0 "/></g></g></g></svg>