<svg xmlns="http://www.w3.org/2000/svg" xmlns:xlink="http://www.w3.org/1999/xlink" width="64" zoomAndPan="magnify" viewBox="0 0 48 48" height="64" preserveAspectRatio="xMidYMid meet" version="1.0"><defs><clipPath id="20fa24c78a"><path d="M 2.753906 2.261719 L 45.246094 2.261719 L 45.246094 44.757812 L 2.753906 44.757812 Z M 2.753906 2.261719 " clip-rule="nonzero"/></clipPath><clipPath id="bb3a308908"><path d="M 24 2.261719 C 12.265625 2.261719 2.753906 11.777344 2.753906 23.511719 C 2.753906 35.246094 12.265625 44.757812 24 44.757812 C 35.734375 44.757812 45.246094 35.246094 45.246094 23.511719 C 45.246094 11.777344 35.734375 2.261719 24 2.261719 Z M 24 2.261719 " clip-rule="nonzero"/></clipPath><clipPath id="e08e0460c6"><path d="M 3.296875 2.808594 L 44.703125 2.808594 L 44.703125 44.210938 L 3.296875 44.210938 Z M 3.296875 2.808594 " clip-rule="nonzero"/></clipPath><clipPath id="55f4947d62"><path d="M 24 2.835938 C 12.582031 2.835938 3.328125 12.09375 3.328125 23.511719 C 3.328125 34.929688 12.582031 44.183594 24 44.183594 C 35.417969 44.183594 44.671875 34.929688 44.671875 23.511719 C 44.671875 12.09375 35.417969 2.835938 24 2.835938 Z M 24 2.835938 " clip-rule="nonzero"/></clipPath><clipPath id="c8e20374d1"><path d="M 4.351562 3.863281 L 43.648438 3.863281 L 43.648438 43.15625 L 4.351562 43.15625 Z M 4.351562 3.863281 " clip-rule="nonzero"/></clipPath><clipPath id="932f89f66e"><path d="M 24 3.871094 C 13.152344 3.871094 4.363281 12.664062 4.363281 23.511719 C 4.363281 34.355469 13.152344 43.148438 24 43.148438 C 34.847656 43.148438 43.636719 34.355469 43.636719 23.511719 C 43.636719 12.664062 34.847656 3.871094 24 3.871094 Z M 24 3.871094 " clip-rule="nonzero"/></clipPath><clipPath id="39eea41abc"><path d="M 12.683594 7.402344 L 35.460938 7.402344 L 35.460938 39.730469 L 12.683594 39.730469 Z M 12.683594 7.402344 " clip-rule="nonzero"/></clipPath></defs><g clip-path="url(#20fa24c78a)"><g clip-path="url(#bb3a308908)"><path fill="#ffffff" d="M 2.753906 2.261719 L 45.246094 2.261719 L 45.246094 44.757812 L 2.753906 44.757812 Z M 2.753906 2.261719 " fill-opacity="1" fill-rule="nonzero"/></g></g><g clip-path="url(#e08e0460c6)"><g clip-path="url(#55f4947d62)"><path fill="#d15949" d="M 2.753906 2.261719 L 45.246094 2.261719 L 45.246094 44.757812 L 2.753906 44.757812 Z M 2.753906 2.261719 " fill-opacity="1" fill-rule="nonzero"/></g></g><g clip-path="url(#c8e20374d1)"><g clip-path="url(#932f89f66e)"><path fill="#d15949" d="M 2.753906 2.261719 L 45.246094 2.261719 L 45.246094 44.757812 L 2.753906 44.757812 Z M 2.753906 2.261719 " fill-opacity="1" fill-rule="nonzero"/></g></g><g clip-path="url(#39eea41abc)"><path fill="#ffffff" d="M 35.300781 21.792969 L 35.300781 22.960938 C 35.300781 28.808594 30.835938 33.636719 25.132812 34.203125 L 25.132812 37.320312 L 29.738281 37.320312 C 30.371094 37.320312 30.886719 37.835938 30.886719 38.46875 C 30.886719 39.101562 30.371094 39.617188 29.738281 39.617188 L 18.257812 39.617188 C 17.625 39.617188 17.109375 39.101562 17.109375 38.46875 C 17.109375 37.835938 17.625 37.320312 18.257812 37.320312 L 22.832031 37.320312 L 22.832031 34.195312 C 17.148438 33.617188 12.695312 28.796875 12.695312 22.960938 L 12.695312 21.792969 C 12.695312 21.160156 13.210938 20.644531 13.84375 20.644531 C 14.476562 20.644531 14.992188 21.160156 14.992188 21.792969 L 14.992188 22.960938 C 14.992188 27.925781 19.03125 31.96875 24 31.96875 C 28.964844 31.96875 33.007812 27.925781 33.007812 22.960938 L 33.007812 21.792969 C 33.007812 21.160156 33.523438 20.644531 34.152344 20.644531 C 34.785156 20.644531 35.300781 21.15625 35.300781 21.792969 Z M 24 29.671875 C 27.59375 29.671875 30.511719 26.753906 30.511719 23.160156 L 30.511719 13.917969 C 30.511719 10.324219 27.59375 7.402344 24 7.402344 C 20.402344 7.402344 17.484375 10.324219 17.484375 13.917969 L 17.484375 23.160156 C 17.484375 26.753906 20.402344 29.671875 24 29.671875 Z M 24 29.671875 " fill-opacity="1" fill-rule="nonzero"/></g></svg>