<svg xmlns="http://www.w3.org/2000/svg" xmlns:xlink="http://www.w3.org/1999/xlink" width="64" zoomAndPan="magnify" viewBox="0 0 48 48" height="64" preserveAspectRatio="xMidYMid meet" version="1.0"><defs><clipPath id="40a6586f74"><path d="M 2.753906 2.261719 L 45.246094 2.261719 L 45.246094 44.757812 L 2.753906 44.757812 Z M 2.753906 2.261719 " clip-rule="nonzero"/></clipPath><clipPath id="4e8d49bf15"><path d="M 24 2.261719 C 12.265625 2.261719 2.753906 11.777344 2.753906 23.511719 C 2.753906 35.246094 12.265625 44.757812 24 44.757812 C 35.734375 44.757812 45.246094 35.246094 45.246094 23.511719 C 45.246094 11.777344 35.734375 2.261719 24 2.261719 Z M 24 2.261719 " clip-rule="nonzero"/></clipPath><clipPath id="e77348f007"><path d="M 3.296875 2.808594 L 44.703125 2.808594 L 44.703125 44.210938 L 3.296875 44.210938 Z M 3.296875 2.808594 " clip-rule="nonzero"/></clipPath><clipPath id="be45470a91"><path d="M 24 2.835938 C 12.582031 2.835938 3.328125 12.09375 3.328125 23.511719 C 3.328125 34.929688 12.582031 44.183594 24 44.183594 C 35.417969 44.183594 44.671875 34.929688 44.671875 23.511719 C 44.671875 12.09375 35.417969 2.835938 24 2.835938 Z M 24 2.835938 " clip-rule="nonzero"/></clipPath><clipPath id="60231b1c85"><path d="M 4.351562 3.863281 L 43.648438 3.863281 L 43.648438 43.15625 L 4.351562 43.15625 Z M 4.351562 3.863281 " clip-rule="nonzero"/></clipPath><clipPath id="8184645e82"><path d="M 24 3.871094 C 13.152344 3.871094 4.363281 12.664062 4.363281 23.511719 C 4.363281 34.355469 13.152344 43.148438 24 43.148438 C 34.847656 43.148438 43.636719 34.355469 43.636719 23.511719 C 43.636719 12.664062 34.847656 3.871094 24 3.871094 Z M 24 3.871094 " clip-rule="nonzero"/></clipPath><clipPath id="fa68fd95b0"><path d="M 9.800781 12.949219 L 38.457031 12.949219 L 38.457031 34.257812 L 9.800781 34.257812 Z M 9.800781 12.949219 " clip-rule="nonzero"/></clipPath></defs><g clip-path="url(#40a6586f74)"><g clip-path="url(#4e8d49bf15)"><path fill="#ffffff" d="M 2.753906 2.261719 L 45.246094 2.261719 L 45.246094 44.757812 L 2.753906 44.757812 Z M 2.753906 2.261719 " fill-opacity="1" fill-rule="nonzero"/></g></g><g clip-path="url(#e77348f007)"><g clip-path="url(#be45470a91)"><path fill="#d15949" d="M 2.753906 2.261719 L 45.246094 2.261719 L 45.246094 44.757812 L 2.753906 44.757812 Z M 2.753906 2.261719 " fill-opacity="1" fill-rule="nonzero"/></g></g><g clip-path="url(#60231b1c85)"><g clip-path="url(#8184645e82)"><path fill="#d15949" d="M 2.753906 2.261719 L 45.246094 2.261719 L 45.246094 44.757812 L 2.753906 44.757812 Z M 2.753906 2.261719 " fill-opacity="1" fill-rule="nonzero"/></g></g><g clip-path="url(#fa68fd95b0)"><path fill="#ffffff" d="M 37.398438 16.589844 C 37.136719 15.140625 35.886719 14.085938 34.4375 13.757812 C 32.265625 13.296875 28.246094 12.96875 23.898438 12.96875 C 19.550781 12.96875 15.46875 13.296875 13.292969 13.757812 C 11.84375 14.085938 10.59375 15.074219 10.328125 16.589844 C 10.066406 18.238281 9.800781 20.542969 9.800781 23.507812 C 9.800781 26.46875 10.066406 28.777344 10.394531 30.421875 C 10.660156 31.871094 11.910156 32.925781 13.359375 33.253906 C 15.664062 33.714844 19.617188 34.042969 23.964844 34.042969 C 28.3125 34.042969 32.265625 33.714844 34.570312 33.253906 C 36.019531 32.925781 37.269531 31.9375 37.535156 30.421875 C 37.796875 28.777344 38.125 26.402344 38.191406 23.507812 C 38.058594 20.542969 37.730469 18.238281 37.398438 16.589844 Z M 20.339844 28.117188 L 20.339844 18.894531 L 28.375 23.507812 Z M 20.339844 28.117188 " fill-opacity="1" fill-rule="nonzero"/></g></svg>