<?xml version="1.0" encoding="utf-8"?>
<!-- Generator: Adobe Illustrator 25.2.3, SVG Export Plug-In . SVG Version: 6.00 Build 0)  -->
<svg version="1.1" id="Layer_1" xmlns="http://www.w3.org/2000/svg" xmlns:xlink="http://www.w3.org/1999/xlink" x="0px" y="0px"
	 viewBox="0 0 152.3 119.8" style="enable-background:new 0 0 152.3 119.8;" xml:space="preserve">
<style type="text/css">
	.st0{fill:#D15949;}
</style>
<path class="st0" d="M128.5,30.8v42c0,17.1-6.7,25.6-20.2,25.6c-13.1,0-19.8-8-20.2-24.1V46.4c0-9.5-1-16.6-3-21.4
	c-2.2-5.6-5.8-10.6-10.5-14.5C66.6,3.5,56.4,0,44,0C31.7,0,21.5,3.5,13.3,10.5C8.8,14.4,5.2,19.4,3.1,25C0.9,31.9-0.2,39.1,0,46.4
	v73.3c0.6-0.7,1.3-1.4,2-2.1c6-5.7,13.7-9.4,21.9-10.6v-60c0-17.1,6.7-25.6,20.2-25.6c13.1,0,19.8,8,20.2,24.1v27.9
	c0,9.5,1,16.6,3,21.4c2.2,5.6,5.8,10.6,10.4,14.5c8,7,18.2,10.5,30.6,10.5c12.4,0,22.6-3.5,30.7-10.5c4.6-3.9,8.1-8.9,10.3-14.5
	c2.2-6.9,3.2-14.1,3.1-21.4V30.8H128.5z"/>
</svg>
