<svg width="74" height="32" viewBox="0 0 74 32" fill="none" xmlns="http://www.w3.org/2000/svg">
    <path d="M56.3412 0H34.4609V6.62725H42.4033V31.9999H49.0123V6.62725H51.4919C51.9277 4.63616 52.8995 2.8976 54.4202 1.44394C55.0207 0.88061 55.6664 0.404693 56.3412 0Z" fill="white"/>
    <path d="M71.1021 16.4193C69.8168 15.0721 67.3208 13.5986 63.6106 12.002C60.9171 10.862 59.5703 9.70911 59.5703 8.54972C59.5703 7.88582 59.8002 7.34174 60.2534 6.9175C60.7099 6.49325 61.257 6.27951 61.9013 6.27951C63.2481 6.27951 64.3779 7.21221 65.2876 9.08084L71.0697 6.00424C69.1855 2.00141 66.3042 0 62.429 0H62.4257C60.4541 0 58.7059 0.482541 57.1746 1.44762C56.6631 1.77148 56.1742 2.14714 55.7145 2.57787C54.5199 3.71783 53.7267 5.06506 53.3253 6.6066C53.1213 7.39033 53.008 8.22263 53.008 9.10999C53.008 11.0984 53.5357 12.7274 54.5911 13.9937C55.4199 14.9879 56.8476 15.9854 58.8807 16.9796C59.6059 17.3326 60.3214 17.6759 61.0239 18.0062C61.7297 18.3398 62.4322 18.6798 63.138 19.0328C64.9607 20.1113 65.8736 21.2739 65.8736 22.5175C65.8736 24.6744 64.692 25.7496 62.3319 25.7496H62.3286C61.1469 25.7496 60.1304 25.3545 59.2822 24.5675C58.8484 24.1724 58.2138 23.2494 57.3883 21.7985L51.4184 24.5643C53.5292 29.5192 57.1228 31.9967 62.2024 31.9999H62.2088C65.1711 31.9999 67.6963 31.0672 69.7909 29.2051C71.9471 27.236 73.0252 24.7909 73.0252 21.8666C73.0284 19.5802 72.3874 17.7666 71.1021 16.4193Z" fill="white"/>
    <path d="M34.3763 8.22328V19.4627C34.3763 24.0291 32.5718 26.3106 28.966 26.3106C25.4672 26.3106 23.6724 24.1553 23.5655 19.8608V12.3948C23.5655 9.8673 23.2998 7.96115 22.7718 6.6796C22.2243 5.24595 21.2912 3.95468 19.9694 2.80258C17.8183 0.935274 15.0872 0 11.7827 0C8.45883 0 5.72129 0.935274 3.57014 2.80258C2.26778 3.95145 1.35095 5.24595 0.822881 6.6796C0.275374 8.28154 0 10.1877 0 12.3948V31.987C0.171703 31.8025 0.336928 31.6148 0.52483 31.4368C2.19003 29.8867 4.15328 28.9384 6.37247 28.5922V12.5372C6.37247 7.97085 8.17697 5.68931 11.7827 5.68931C15.2816 5.68931 17.0764 7.84464 17.1833 12.1391V19.6051C17.1833 22.1326 17.449 24.0388 17.977 25.3203C18.5245 26.754 19.4608 28.0452 20.7826 29.1973C22.9338 31.0646 25.6648 31.9999 28.9693 31.9999C32.2932 31.9999 35.0307 31.0646 37.1819 29.1973C38.4842 28.0485 39.4011 26.754 39.9292 25.3203C40.4767 23.7184 40.752 21.8122 40.752 19.6051V8.22328H34.3763Z" fill="white"/>
</svg>