<?xml version="1.0" encoding="utf-8"?>
<!-- Generator: Adobe Illustrator 25.1.0, SVG Export Plug-In . SVG Version: 6.00 Build 0)  -->
<svg version="1.1" id="Layer_1" xmlns="http://www.w3.org/2000/svg" xmlns:xlink="http://www.w3.org/1999/xlink" x="0px" y="0px"
	 viewBox="0 0 1028 1176" style="enable-background:new 0 0 1028 1176;" xml:space="preserve">
<style type="text/css">
	.st0{fill:none;stroke:#0B132B;stroke-miterlimit:10;}
	.st1{fill:url(#SVGID_1_);}
	.st2{fill:none;stroke:#000000;stroke-width:3.38;stroke-miterlimit:10;}
	.st3{fill:#D05949;}
	.st4{fill:#FDFDFD;}
	.st5{fill:#B24B40;}
	.st6{clip-path:url(#SVGID_3_);}
	.st7{fill:#DADADA;stroke:#FFFFFF;stroke-width:0.63;stroke-miterlimit:10;}
	.st8{fill:#722B2B;}
	.st9{fill:#994039;}
	.st10{fill:#F4F4F4;}
	.st11{fill:#0B132B;}
	.st12{fill:#FFD683;}
	.st13{fill:#36677F;}
	.st14{fill:none;stroke:#722B2B;stroke-width:1.84;stroke-linecap:round;stroke-miterlimit:10;}
	.st15{fill:none;stroke:#722B2B;stroke-width:0.92;stroke-linecap:round;stroke-miterlimit:10;}
	.st16{fill:none;stroke:#722B2B;stroke-width:3.65;stroke-linecap:round;stroke-miterlimit:10;}
	.st17{fill:none;stroke:#722B2B;stroke-width:1.82;stroke-linecap:round;stroke-miterlimit:10;}
	.st18{display:none;}
	.st19{display:inline;}
	.st20{display:inline;clip-path:url(#SVGID_5_);}
	.st21{fill:#245370;}
	.st22{clip-path:url(#SVGID_7_);}
	.st23{fill:#1E91D6;}
	.st24{opacity:0.55;}
	.st25{fill:none;stroke:#000000;stroke-width:1.92;stroke-miterlimit:10;}
	.st26{fill:#DADADA;}
	.st27{clip-path:url(#SVGID_9_);}
	.st28{fill:none;stroke:#FFFFFF;stroke-width:0.36;stroke-miterlimit:10;}
	.st29{fill:#ECECEC;}
	.st30{clip-path:url(#SVGID_11_);}
	.st31{fill:#832D21;}
	.st32{clip-path:url(#SVGID_13_);}
	.st33{fill:#BFA162;}
	.st34{fill:#8F7D59;}
	.st35{fill:url(#SVGID_14_);}
	.st36{fill:url(#SVGID_15_);}
	.st37{opacity:0.82;fill:url(#SVGID_16_);enable-background:new    ;}
</style>
<line class="st0" x1="96.6" y1="914.4" x2="469.6" y2="914.4"/>
<linearGradient id="SVGID_1_" gradientUnits="userSpaceOnUse" x1="498.6793" y1="495.9386" x2="498.6793" y2="-213.3714" gradientTransform="matrix(1 0 0 -1 0 1024)">
	<stop  offset="0" style="stop-color:#FFFFFF"/>
	<stop  offset="1" style="stop-color:#000000"/>
</linearGradient>
<path class="st1" d="M388.2,67.2h221c9.5,0,17.1,7.7,17.1,17.1c0,0,0,0,0,0v563.4c0,9.5-7.7,17.1-17.1,17.1l0,0H392.6
	c-11.9,0-21.5-9.6-21.5-21.5v-559C371.1,74.9,378.7,67.2,388.2,67.2z"/>
<line class="st2" x1="435" y1="199.5" x2="549.8" y2="199.5"/>
<line class="st2" x1="435" y1="228.5" x2="533.3" y2="228.5"/>
<line class="st2" x1="435" y1="258.4" x2="548.4" y2="258.4"/>
<line class="st2" x1="435" y1="338.4" x2="535.1" y2="338.4"/>
<line class="st2" x1="435" y1="367.4" x2="554.5" y2="367.4"/>
<line class="st2" x1="435" y1="397.3" x2="520.1" y2="397.3"/>
<circle class="st3" cx="408.2" cy="232.1" r="12.1"/>
<path class="st3" d="M396.1,232c0-6.7,12.1-24.2,12.1-24.2s12.1,17.5,12.1,24.2"/>
<line class="st2" x1="435" y1="479.4" x2="549.8" y2="479.4"/>
<line class="st2" x1="435" y1="508.5" x2="559.7" y2="508.5"/>
<line class="st2" x1="435" y1="538.3" x2="552.9" y2="538.3"/>
<path class="st3" d="M421.5,355.1c-3.5-3.5-9.1-3.5-12.6,0c0,0,0,0,0,0l0,0c-3.5-3.5-9.1-3.5-12.6,0l0,0c-3.5,3.5-3.5,9.1,0,12.6
	c0,0,0,0,0,0l6.3,6.3l6.3,6.3l6.3-6.3l6.3-6.3l0,0C425,364.2,425,358.6,421.5,355.1C421.5,355.1,421.5,355.1,421.5,355.1z"/>
<ellipse class="st3" cx="408.9" cy="508.9" rx="17.5" ry="10.6"/>
<circle class="st4" cx="408.9" cy="508.9" r="6.2"/>
<path class="st5" d="M388.5,664.9h87.3V586h-52.7c-9.5,0-17.3,8-17.3,17.8V647C405.8,656.9,398.1,664.9,388.5,664.9L388.5,664.9z"/>
<g>
	<defs>
		<circle id="SVGID_2_" cx="497" cy="132.3" r="40.8"/>
	</defs>
	<clipPath id="SVGID_3_">
		<use xlink:href="#SVGID_2_"  style="overflow:visible;"/>
	</clipPath>
	<g class="st6">
		<circle class="st7" cx="497" cy="132.3" r="40.8"/>
		<circle class="st8" cx="496.9" cy="125.4" r="25.6"/>
		<path class="st9" d="M488.4,168.1c-1.3,3.6-28,40.4-28,40.4l-12.3,4.6c0,0,12.5-31.3,26.1-50.7
			C476.4,159.4,495.3,148.8,488.4,168.1z"/>
		<path class="st9" d="M477,264.7c0,0-5.6,2.9-7.4,1.2s-22.2-51.8-22.5-55.2s12.4-12.8,14.5-2.5S479.2,260.9,477,264.7z"/>
		<path class="st9" d="M457.8,219.8l-6.2-3.6c-3.1-1.8-4.3-5.8-2.7-9c4.9-9.9,15.3-30.4,25.3-44.6"/>
		<path class="st9" d="M495.9,155.3c-8.5,0-26.4,5.3-19.7,11.9c4.2,4.1-6.9,110.5-2.9,114.1c10.2,9.2,48.5,5.2,51.7,0
			c2.3-3.6-7.9-119.7-8.5-121.5C515.8,157.9,504.4,155.3,495.9,155.3z"/>
		<path class="st10" d="M489.6,160.5l4.9,99.4c0.1,1.3-0.2,2.5-0.8,3.7l-3.2,6.8l-0.6,2.4l21.8,0.1l-9.3-12.9c-1-1.3-1.6-3-1.6-4.7
			l1-95.6C502,159.7,490.1,157.3,489.6,160.5z"/>
		<path class="st11" d="M497.9,279.3c-3.7-0.2-11.2,118-12.9,154.4c-0.2,3.6-0.2,6.5-0.5,8.4l-0.3,3.1h-16.6l4.2-10.7
			c0,0-1.2-144.5,0-152l0.4-18.9h49.2l-0.5,18.9c1.2,7.4,0,155,0,155l13,7.7h-25.4l-0.3-3.1c-0.3-1.9,0-4.8-0.5-8.4
			C503.4,397.7,499.4,279.4,497.9,279.3"/>
		<path class="st9" d="M502.6,259.9l16.6,22.9c0,0,3.9,0.6,5.9-1.5s-3-18.1-3-18.1L502.6,259.9z"/>
		<path class="st9" d="M493.8,263.5l-7.5,17c0,0-10.6,5.3-15.3-0.1s-0.1-24.3,5.6-23.1S493.8,263.5,493.8,263.5z"/>
		<path class="st12" d="M470.2,260.9c0.5,0.6,0.8,1.3,0.8,2.1c-0.1,0.9-0.3,5.1,0,5.6c2-0.1,3.8-0.9,5.3-2.3c1-0.9,1.8-1.9,2.5-3.1
			c0,0-2.9-2.4-3.8-2.8c-0.7-0.5-1.2-1.2-1.4-2L470.2,260.9z"/>
		<path class="st12" d="M486.9,131.7c0.7-3,4.4-5.1,7.5-5.3c3.8-0.2,8.5-0.2,9.8,1.1c2.2,2.2,5.4,17-3.4,21.6l0.3,12
			c0.1,3-0.8,5.4-3.8,5.4l-1.6,5.2l-1.3-4c-3.1,0-4.1-3.8-3.8-6.9l1-11.9c-2.7-1.5-4.6-4.2-5.1-7.3
			C486.1,138.4,486.2,135,486.9,131.7z"/>
		<path class="st9" d="M505,168.1c1.3,3.6,29.6,40.4,29.6,40.4l13,4.6c0,0-13.3-31.3-27.5-50.7C517.7,159.4,497.7,148.8,505,168.1z"
			/>
		<path class="st13" d="M516.1,263.7c0,0,5.3,2.3,7.1,0.6s25.2-50.2,25.7-53.5s-11.2-11.1-13.9-1.2S514.2,260.3,516.1,263.7z"/>
		<path class="st9" d="M537.3,219.8l6.6-3.6c3.3-1.7,4.5-5.7,2.8-9c-5.1-9.9-16.2-30.4-26.7-44.6"/>
		<path class="st12" d="M523.3,262.9c0.2,0.9,0.4,5.1,0,5.6c-2.1-0.1-4-0.9-5.6-2.3c-1-0.9-1.9-1.9-2.6-3.1c0,0,3.1-2.4,4-2.8
			S523.2,262,523.3,262.9z"/>
		<circle class="st12" cx="486.1" cy="135.2" r="2.4"/>
		<circle class="st12" cx="506.9" cy="135.2" r="2.4"/>
		<line class="st14" x1="493.8" y1="134.2" x2="493.8" y2="135.2"/>
		<line class="st14" x1="499.5" y1="134.2" x2="499.5" y2="135.2"/>
		<path class="st15" d="M497.4,136.1l1.3,2.2c0.2,0.3,0.1,0.7-0.2,0.9c-0.1,0.1-0.2,0.1-0.4,0.1h-1.6"/>
		<path class="st15" d="M493.6,140.8L493.6,140.8c0,1.3,1,2.3,2.3,2.3l0,0h2.7"/>
		<path class="st15" d="M491.3,131.8c1-1,2.5-1.3,3.7-0.7"/>
		<path class="st15" d="M498,131.2c1.4-0.8,3.1-0.5,4.2,0.7"/>
	</g>
</g>
<polyline class="st10" points="685.9,600.3 685.9,1031 440.1,1031 440.1,599.9 "/>
<path class="st10" d="M685.9,603c0-9.6-7.7-17.3-17.3-17.3c0,0,0,0,0,0H423.7c9.3-0.1,16.9,7.5,17,16.8c0,0,0,0.1,0,0.1l0,0"/>
<line class="st2" x1="502.3" y1="617.6" x2="617.1" y2="617.6"/>
<line class="st2" x1="502.3" y1="646.6" x2="588.4" y2="646.6"/>
<line class="st2" x1="502.3" y1="676.5" x2="605.1" y2="676.5"/>
<line class="st2" x1="502.3" y1="873.2" x2="617.1" y2="873.2"/>
<line class="st2" x1="502.3" y1="902.2" x2="626.3" y2="902.2"/>
<line class="st2" x1="502.3" y1="932.1" x2="593.8" y2="932.1"/>
<line class="st2" x1="502.3" y1="747.5" x2="617.1" y2="747.5"/>
<line class="st2" x1="502.3" y1="776.5" x2="626.3" y2="776.5"/>
<line class="st2" x1="502.3" y1="806.4" x2="575.1" y2="806.4"/>
<path class="st9" d="M290.2,247.2c0,0,2.2-11.5,7.1-12.6s113.5,14.9,119.5,17.8s5.9,31.5-13.8,24.9S293.8,254.2,290.2,247.2z"/>
<circle class="st8" cx="276.9" cy="264.9" r="52.1"/>
<path class="st9" d="M273.9,350c-2.6,7.3-57,82.4-57,82.4l-25,9.5c0,0,25.6-63.9,53.1-103.2C249.4,332.3,287.9,310.6,273.9,350z"/>
<path class="st9" d="M250.6,546.6c0,0-11.5,5.8-15,2.5s-45.3-105.5-45.8-112.5s25.3-26.2,29.5-5.1S255.1,538.9,250.6,546.6z"/>
<path class="st9" d="M211.6,455.2l-12.6-7.4c-6.3-3.7-8.8-11.7-5.5-18.3c9.9-20.1,31.2-61.9,51.5-90.8"/>
<path class="st9" d="M289.1,323.8c-17.4,0-53.9,10.8-40.1,24.3c8.6,8.4-14.1,225-5.9,232.4c20.9,18.8,98.7,10.5,105.4,0
	c4.7-7.4-16-243.8-17.4-247.4C329.7,329.1,306.5,323.8,289.1,323.8z"/>
<path class="st10" d="M276.3,334.4l10,202.4c0.1,2.6-0.4,5.2-1.5,7.5l-6.5,13.7l-1.1,5l44.4,0.2l-19-26.2c-2.1-2.7-3.2-6.1-3.2-9.5
	l2.1-194.7C301.5,332.9,277.3,328,276.3,334.4z"/>
<path class="st11" d="M293.3,576.5c-7.5-0.3-22.7,240.4-26.2,314.5c-0.3,7.4-0.3,13.2-1,17l-0.7,6.2l-33.8,0.1l8.5-21.8
	c0,0-2.5-294.4,0.1-309.6l0.9-38.5h100.2l-1,38.5c2.5,15.1,0,315.7,0,315.7l26.6,15.7l-51.8-0.1l-0.7-6.2c-0.6-3.8-0.1-9.7-1-17
	C304.6,817.6,296.4,576.7,293.3,576.5"/>
<path class="st9" d="M302.7,537l33.8,46.6c0,0,8,1.3,12-3s-6.2-37-6.2-37L302.7,537z"/>
<path class="st9" d="M284.8,544.3L269.5,579c0,0-21.5,10.7-31.1-0.3s-0.2-49.5,11.3-47C261.3,534.2,284.8,544.3,284.8,544.3z"/>
<path class="st12" d="M236.8,538.9c0,0,2,2.3,1.7,4.2s-0.7,10.4,0,11.4c0,0,6.6-0.3,10.8-4.6s5.1-6.3,5.1-6.3s-6-4.8-7.8-5.8
	s-2.9-4-2.9-4L236.8,538.9z"/>
<path class="st12" d="M270.8,275.9c1.3-6,9-10.5,15.2-10.8c7.8-0.4,17.2-0.5,20.1,2.3c4.4,4.4,11.1,34.7-6.9,44l0.7,24.4
	c0.2,6.1-1.7,11.1-7.8,11.1l-3.3,10.6l-2.7-8.1c-6.3,0-8.3-7.8-7.8-14.1l2-24.1c-5.6-3.1-9.4-8.6-10.4-14.9
	C269.1,289.5,269.3,282.6,270.8,275.9z"/>
<path class="st9" d="M344.6,361.9c5.3-3.6,55-65.9,72.3-87.9c2.9-3.7,2.3-9.1-1.4-12c-0.3-0.2-0.5-0.4-0.8-0.6l0,0
	c-4.9-3-11.3-2.5-15.6,1.3c-14.8,13-48.5,43.5-72.6,72C321.4,340.9,309.7,385.5,344.6,361.9z"/>
<path class="st3" d="M482.6,630.5L482.6,630.5c-2.6-2.5-6.8-2.5-9.3,0.1c0,0,0,0,0,0l-6.4,6.6l0,0l-6.8,7c-2.5,2.6-2.5,6.8,0.1,9.3
	c0,0,0,0,0,0l0,0c2.6,2.5,6.8,2.5,9.3-0.1l0,0l13.3-13.6C485.3,637.2,485.2,633.1,482.6,630.5z M480.4,637.6l-6.4,6.6l-4.8-4.7
	l6.4-6.6c0.6-0.6,1.5-1,2.4-1c0.9,0,1.7,0.4,2.4,1C481.7,634.2,481.7,636.3,480.4,637.6L480.4,637.6z"/>
<path class="st3" d="M493.5,655.9c0.1-4.8-3.7-8.8-8.5-8.9c-1.9,0-3.7,0.5-5.2,1.6c-1.1,0.8-2,1.8-2.7,3c-0.1,0.2,0,0.5,0.2,0.6
	c0,0,0.1,0,0.1,0l15.6,4C493.2,656.3,493.4,656.2,493.5,655.9C493.5,655.9,493.5,655.9,493.5,655.9z"/>
<path class="st3" d="M476.1,655.9c0,2.1,0.8,4.1,2.2,5.6c2.9,3.2,7.8,3.8,11.4,1.4c1.1-0.7,2-1.7,2.6-2.8c0.1-0.2,0.1-0.5-0.2-0.6
	c0,0-0.1,0-0.1,0l-15.4-4c-0.2-0.1-0.5,0.1-0.6,0.3C476.1,655.8,476.1,655.9,476.1,655.9z"/>
<path class="st3" d="M487.2,762.5h-26.8c-2.8,0-5.1,2.3-5.1,5.1v0v11.9c0,2.8,2.3,5.1,5.1,5.1h0h1l-1.3,5.9c-0.1,0.5,0.2,0.9,0.7,1
	c0.2,0,0.5,0,0.7-0.1l9.6-6.8h16.1c2.8,0,5.1-2.3,5.1-5.1v-11.9C492.3,764.8,490,762.5,487.2,762.5z M477.7,776.5c0,1.1-0.9,2-2,2
	h-13.2c-1.1,0-2-0.9-2-2l0,0c0-1.1,0.9-2,2-2h13.2C476.8,774.5,477.7,775.4,477.7,776.5z M483.2,771.8h-20.7
	c-1.1-0.2-1.8-1.2-1.6-2.3c0.1-0.8,0.8-1.5,1.6-1.6h20.7c1.1-0.2,2.1,0.5,2.3,1.6c0.2,1.1-0.5,2.1-1.6,2.3
	C483.7,771.8,483.4,771.8,483.2,771.8z"/>
<path class="st3" d="M487,896.7h-7.7v-7.7c0-0.8-0.6-1.4-1.4-1.4h-8.3c-0.8,0-1.4,0.6-1.4,1.4v7.7h-7.7c-0.8,0-1.4,0.6-1.4,1.4v8.3
	c0,0.8,0.6,1.4,1.4,1.4h7.7v7.7c0,0.8,0.6,1.4,1.4,1.4h8.3c0.8,0,1.4-0.6,1.4-1.4v-7.7h7.7c0.8,0,1.4-0.6,1.4-1.4V898
	C488.4,897.3,487.8,896.7,487,896.7z"/>
<circle class="st12" cx="268.9" cy="282.3" r="5.5"/>
<line class="st16" x1="290.2" y1="281" x2="290.2" y2="283.1"/>
<line class="st16" x1="301.6" y1="281" x2="301.6" y2="283.1"/>
<path class="st17" d="M297.3,284.9l2.6,4.4c0.4,0.6,0.2,1.4-0.4,1.8c-0.2,0.1-0.5,0.2-0.7,0.2h-3.2"/>
<path class="st17" d="M289.7,294.2L289.7,294.2c0,2.5,2,4.6,4.6,4.6h5.4"/>
<path class="st17" d="M285.1,277.3c1.9-2,4.9-2.6,7.4-1.4"/>
<path class="st17" d="M298.5,276.2c0,0,4.7-2.8,8.3,1.3"/>
<g class="st18">
	<defs>
		<rect id="SVGID_4_" x="1631.2" y="-20" width="641.4" height="1080"/>
	</defs>
	<clipPath id="SVGID_5_" class="st19">
		<use xlink:href="#SVGID_4_"  style="overflow:visible;"/>
	</clipPath>
	<g class="st20">
		<rect x="977.2" y="-28.5" class="st21" width="1939.7" height="1088.6"/>
		<g>
			<defs>
				<path id="SVGID_6_" d="M2149.7,743.4L2325.1-4c0,0,809.6-102.8,671.4-151.4C2450.3-347.7,929-107.1,929-84.6
					c0,28.1,731,359.8,731,359.8l390.9,468.9"/>
			</defs>
			<clipPath id="SVGID_7_">
				<use xlink:href="#SVGID_6_"  style="overflow:visible;"/>
			</clipPath>
			<g class="st22">
				<rect x="891.5" y="-94" class="st23" width="2095.2" height="949"/>
				<g class="st24">
					<path class="st10" d="M1261.3,516.7h121.8c6.4,0,11.6,5.2,11.6,11.6v189.2c0,6.4-5.2,11.6-11.6,11.6h-119.8
						c-7.5,0-13.6-6.1-13.6-13.6V528.3C1249.7,521.9,1254.9,516.7,1261.3,516.7C1261.3,516.7,1261.3,516.7,1261.3,516.7z"/>
					<line class="st25" x1="1286.1" y1="591.8" x2="1352.1" y2="591.8"/>
					<line class="st25" x1="1286.1" y1="608.3" x2="1338.4" y2="608.3"/>
					<line class="st25" x1="1286.1" y1="625.3" x2="1350.9" y2="625.3"/>
					<line class="st25" x1="1286.1" y1="653.1" x2="1348.2" y2="653.1"/>
					<line class="st25" x1="1286.1" y1="669.6" x2="1364.9" y2="669.6"/>
					<line class="st25" x1="1286.1" y1="686.6" x2="1344.6" y2="686.6"/>
					<circle class="st26" cx="1322.7" cy="552.8" r="23.1"/>
					<g>
						<defs>
							<circle id="SVGID_8_" cx="1322.7" cy="552.8" r="23.1"/>
						</defs>
						<clipPath id="SVGID_9_">
							<use xlink:href="#SVGID_8_"  style="overflow:visible;"/>
						</clipPath>
						<g class="st27">
							<path class="st11" d="M1318,546.9l2.2,1.9c1,0.8,1.1,2.3,0.2,3.3l-2.2,2.5c-0.8,1-2.3,1.1-3.3,0.2l-2.2-1.9
								c-1-0.8-1.1-2.3-0.2-3.3l2.2-2.5C1315.5,546.1,1317,546,1318,546.9z"/>
							<path class="st11" d="M1318.8,541.1l2.2,1.9c1,0.8,1.1,2.3,0.2,3.3l-2.2,2.5c-0.8,1-2.3,1.1-3.3,0.2l-2.2-1.9
								c-1-0.8-1.1-2.3-0.2-3.3l2.2-2.5C1316.3,540.3,1317.8,540.2,1318.8,541.1z"/>
							<path class="st11" d="M1324,540l1.5,1.3c1,0.8,1.1,2.3,0.2,3.3l-1.6,1.8c-0.8,1-2.3,1.1-3.3,0.2l-1.5-1.3
								c-1-0.8-1.1-2.3-0.2-3.3l1.6-1.8C1321.6,539.3,1323.1,539.2,1324,540z"/>
							<path class="st11" d="M1330.5,541.4l0.9,1.7c0.6,1.1,0.2,2.5-1,3.1l-2.1,1.1c-1.1,0.6-2.5,0.2-3.1-1l-0.9-1.7
								c-0.6-1.1-0.2-2.5,1-3.1l2.1-1.1C1328.5,539.8,1329.9,540.3,1330.5,541.4z"/>
							<path class="st11" d="M1332.5,547.9l-1.3,2.3c-0.3,0.5-0.9,0.6-1.4,0.4l-2.5-1.5c-0.5-0.3-0.6-0.9-0.4-1.4l1.3-2.3
								c0.3-0.5,0.9-0.6,1.4-0.4l2.5,1.5C1332.6,546.8,1332.8,547.4,1332.5,547.9z"/>
							<path class="st11" d="M1331.7,552.2l-1.3,2.3c-0.3,0.5-0.9,0.6-1.4,0.4l-2.5-1.5c-0.5-0.3-0.6-0.9-0.4-1.4l1.3-2.3
								c0.3-0.5,0.9-0.6,1.4-0.4l2.5,1.5C1331.8,551.1,1331.9,551.7,1331.7,552.2z"/>
							<path class="st11" d="M1317.1,563h11.2c5.5,0,10,4.5,10,10l0,0c0,5.5-4.5,10-10,10h-11.2c-5.5,0-10-4.5-10-10l0,0
								C1307.1,567.5,1311.6,563,1317.1,563z"/>
							<path class="st12" d="M1322.4,567.3c-1.8,0-3.2-1.1-3.1-2.9v-4.8c-1.9-0.3-3.4-1.9-3.5-3.8c-0.3-2.7-0.2-5.4,0.3-8
								c0.4-2,3-3.5,5.1-3.6c2.6-0.1,5.8-0.2,6.8,0.8s2.4,7.3,1.2,11.4c-0.6,1.9-1.6,2.4-3.5,3.4l-0.4,4.9c0,1.2-0.4,2.3-1,3.3
								c-0.2,0.5-0.7,0.8-1.3,0.7S1322.3,567.9,1322.4,567.3L1322.4,567.3z"/>
							<path class="st11" d="M1315.9,545.1l3.4-1.8c0.7-0.4,1.5-0.1,1.9,0.6l0.4,0.8c0.4,0.7,0.1,1.5-0.6,1.9l-3.4,1.8
								c-0.7,0.4-1.5,0.1-1.9-0.6l-0.4-0.8C1314.9,546.3,1315.2,545.5,1315.9,545.1z"/>
							<path class="st11" d="M1323.5,542.6l6,2.1c1.2,0.4,1.9,1.8,1.4,3l0,0.1c-0.4,1.2-1.8,1.9-3,1.4l-6-2.1
								c-1.2-0.4-1.9-1.8-1.4-3l0-0.1C1320.9,542.8,1322.2,542.1,1323.5,542.6z"/>
						</g>
					</g>
					<circle class="st28" cx="1322.7" cy="552.8" r="23.1"/>
					<path class="st21" d="M1275.8,666.2h-4.2V662c0-0.4-0.3-0.7-0.7-0.7h-4.5c-0.4,0-0.7,0.3-0.7,0.7v4.2h-4.2
						c-0.4,0-0.7,0.3-0.7,0.7v4.5c0,0.4,0.3,0.7,0.7,0.7h4.2v4.2c0,0.4,0.3,0.7,0.7,0.7h4.6c0.4,0,0.7-0.3,0.7-0.7v-4.2h4.2
						c0.4,0,0.7-0.3,0.7-0.7v-4.5C1276.6,666.5,1276.3,666.2,1275.8,666.2C1275.9,666.2,1275.9,666.2,1275.8,666.2z"/>
					<path class="st21" d="M1276.4,608.3c-0.9-0.9-2.7,0-3.9-1.2l-3.8-3.8c-0.5-0.5-0.3-3-1.2-3.9c-1.8,1.5-4,2.5-6.3,2.9
						c-0.9,0.9-0.9,2.4,0,3.4c0,0,0,0,0,0c0.9,0.9,2.8,0.5,3.7,1.4l0,0l3.8,3.8c1,1,0.5,2.8,1.4,3.7c1.8-1.5,4-2.5,6.3-2.9
						C1277.3,610.8,1277.3,609.3,1276.4,608.3z"/>
					<path class="st10" d="M1266.8,39.2h121.8c6.4,0,11.6,5.2,11.6,11.6V240c0,6.4-5.2,11.6-11.6,11.6h-119.8
						c-7.5,0-13.6-6.1-13.6-13.6c0,0,0,0,0,0V50.8C1255.3,44.4,1260.4,39.2,1266.8,39.2L1266.8,39.2z"/>
					<line class="st25" x1="1291.6" y1="114.3" x2="1350.9" y2="114.3"/>
					<line class="st25" x1="1291.6" y1="130.8" x2="1356.4" y2="130.8"/>
					<line class="st25" x1="1291.6" y1="147.8" x2="1350.1" y2="147.8"/>
					<line class="st25" x1="1291.6" y1="175.6" x2="1350.1" y2="175.6"/>
					<line class="st25" x1="1291.6" y1="192.1" x2="1353.7" y2="192.1"/>
					<line class="st25" x1="1291.6" y1="209.1" x2="1350.1" y2="209.1"/>
					<circle class="st29" cx="1327.7" cy="75.3" r="23.1"/>
					<g>
						<defs>
							<circle id="SVGID_10_" cx="1327.7" cy="75.3" r="23.1"/>
						</defs>
						<clipPath id="SVGID_11_">
							<use xlink:href="#SVGID_10_"  style="overflow:visible;"/>
						</clipPath>
						<g class="st30">
							<circle class="st31" cx="1327.6" cy="71.7" r="8.7"/>
							<path class="st3" d="M1323.9,85.3h7.6c5.1,0,9.3,4.1,9.3,9.3v1.5c0,5.1-4.1,9.3-9.3,9.3h-7.6c-5.1,0-9.3-4.1-9.3-9.3v-1.5
								C1314.7,89.5,1318.8,85.3,1323.9,85.3z"/>
							<path class="st12" d="M1326.6,92c-1.8,0-2.3-3.3-2.2-5l0.6-6.7c-1.6-0.8-2.6-2.4-2.9-4.1c-0.2-1.9-0.2-3.8,0.2-5.7
								c0.4-1.7,2.5-2.9,4.2-3c2.2-0.1,4.8-0.1,5.6,0.7c1.2,1.2,3.1,9.7-1.9,12.3l0.2,6.8c0,1.7-0.2,4.9-1.9,4.9L1326.6,92z"/>
							<circle class="st31" cx="1319.7" cy="63.8" r="3.5"/>
						</g>
					</g>
					<path class="st3" d="M1277.5,123.8L1277.5,123.8c-1.2-1.2-3.2-1.2-4.4,0.1l-3,3.1l0,0l-3.2,3.3c-1.2,1.2-1.2,3.2,0.1,4.4
						c0,0,0,0,0,0l0,0c1.2,1.2,3.2,1.2,4.4-0.1l0,0l6.3-6.4C1278.8,127,1278.8,125,1277.5,123.8
						C1277.6,123.8,1277.6,123.8,1277.5,123.8z M1276.5,127.2l-3.1,3.1l-2.3-2.2l3-3.1c0.6-0.6,1.6-0.7,2.3,0
						S1277.1,126.6,1276.5,127.2L1276.5,127.2z"/>
					<path class="st3" d="M1282.7,135.9c0-2.3-1.8-4.2-4.1-4.2c-0.9,0-1.8,0.2-2.5,0.8c-0.5,0.4-1,0.9-1.3,1.4
						c-0.1,0.1,0,0.3,0.1,0.3c0,0,0,0,0,0l7.4,1.9C1282.6,136.1,1282.7,136.1,1282.7,135.9C1282.7,135.9,1282.7,135.9,1282.7,135.9z
						"/>
					<path class="st3" d="M1274.4,135.9c0.1,2.3,2,4.1,4.3,4c0.8,0,1.6-0.3,2.2-0.7c0.5-0.3,0.9-0.8,1.3-1.3c0.1-0.1,0-0.2-0.1-0.3
						c0,0,0,0-0.1,0l-7.3-1.9C1274.6,135.7,1274.5,135.7,1274.4,135.9C1274.4,135.9,1274.4,135.9,1274.4,135.9z"/>
					<path class="st3" d="M1277.5,184.5L1277.5,184.5c-1.2-1.2-3.2-1.2-4.4,0.1c0,0,0,0,0,0l-3,3.1l0,0l-3.3,3.3
						c-1.2,1.2-1.2,3.2,0.1,4.4c0,0,0,0,0,0l0,0c1.2,1.2,3.2,1.2,4.4-0.1l0,0l6.3-6.4C1278.8,187.7,1278.8,185.8,1277.5,184.5
						C1277.6,184.5,1277.6,184.5,1277.5,184.5z M1276.5,187.9l-3.1,3.1l-2.3-2.2l3-3.1c0.6-0.6,1.6-0.6,2.3,0c0,0,0,0,0,0
						C1277.1,186.2,1277.1,187.2,1276.5,187.9L1276.5,187.9z"/>
					<path class="st3" d="M1282.7,196.6c0-2.3-1.8-4.2-4.1-4.2c-0.9,0-1.7,0.2-2.5,0.8c-0.5,0.4-1,0.9-1.3,1.4
						c-0.1,0.1,0,0.2,0.1,0.3c0,0,0,0,0,0l7.4,1.9C1282.6,196.8,1282.7,196.7,1282.7,196.6C1282.7,196.6,1282.7,196.6,1282.7,196.6z
						"/>
					<path class="st3" d="M1274.4,196.6c0.1,2.3,2,4.1,4.2,4.1c0.8,0,1.6-0.3,2.2-0.7c0.5-0.3,0.9-0.8,1.3-1.3
						c0.1-0.1,0-0.2-0.1-0.3c0,0,0,0-0.1,0l-7.3-1.9C1274.6,196.3,1274.5,196.4,1274.4,196.6
						C1274.4,196.5,1274.4,196.5,1274.4,196.6z"/>
					<path class="st10" d="M1163.2,276.8h121.7c6.4,0,11.6,5.2,11.6,11.6v189.2c0,6.4-5.2,11.6-11.6,11.6h-119.8
						c-7.5,0-13.6-6.1-13.6-13.6V288.4C1151.6,282,1156.8,276.8,1163.2,276.8L1163.2,276.8z"/>
					<line class="st25" x1="1187.9" y1="351.9" x2="1253.9" y2="351.9"/>
					<line class="st25" x1="1187.9" y1="368.4" x2="1240.3" y2="368.4"/>
					<line class="st25" x1="1187.9" y1="385.3" x2="1252.7" y2="385.3"/>
					<line class="st25" x1="1187.9" y1="413.2" x2="1250.1" y2="413.2"/>
					<line class="st25" x1="1187.9" y1="429.7" x2="1250.1" y2="429.7"/>
					<line class="st25" x1="1187.9" y1="446.7" x2="1246.5" y2="446.7"/>
					<circle class="st26" cx="1224.1" cy="312.9" r="23.1"/>
					<g>
						<defs>
							<circle id="SVGID_12_" cx="1224.1" cy="312.9" r="23.1"/>
						</defs>
						<clipPath id="SVGID_13_">
							<use xlink:href="#SVGID_12_"  style="overflow:visible;"/>
						</clipPath>
						<g class="st32">
							<path class="st11" d="M1224.3,299.6c2.6,0.8,8.4,1.7,9.3-0.1s2.8,5.8-1.5,8.9s-3.7,9.6-9.2,6.3s-4.9,0.6-4.9,0.6
								s-5.8-4.5-4.3-7.4s3.1-9.9,7.1-7.2S1220.9,298.5,1224.3,299.6z"/>
							<path class="st33" d="M1218.5,323.1h11.2c5.5,0,10,4.5,10,10l0,0c0,5.5-4.5,10-10,10h-11.2c-5.5,0-10-4.5-10-10l0,0
								C1208.5,327.5,1213,323.1,1218.5,323.1z"/>
							<path class="st10" d="M1218.5,325.9c0-2,8.2-2.2,9.8,0s-3.8,11.7-3.8,11.7s-1.1,4.6-2.3-0.9S1218.5,327.9,1218.5,325.9z"/>
							<path class="st12" d="M1223.8,329.4c-1.8,0-3.2-1.1-3.1-2.9v-6.8c-1.9-0.3-3.4-1.9-3.5-3.9c-0.3-2.7-0.2-5.4,0.3-8
								c0.4-2,3-3.5,5.1-3.6c2.6-0.1,5.8-0.2,6.8,0.8s2.4,7.3,1.2,11.4c-0.6,1.9-1.6,2.4-3.5,3.4l-0.4,6.9c0,1.5-1.1,2.7-2.6,2.7
								C1224.1,329.4,1223.9,329.4,1223.8,329.4L1223.8,329.4z"/>
							<path class="st11" d="M1217.1,312.9l1.8-4.6l1.7-2.4c0,0,4.5,1.1,6.7,0.1c0,0,2.4,4.6,3.6,3.5s-1.1-6.6-1.1-6.6l-11.2,0.8
								l-2.1,8.6L1217.1,312.9z"/>
						</g>
					</g>
					<circle class="st28" cx="1224.1" cy="312.9" r="23.1"/>
					<path class="st34" d="M1173.9,361.4L1173.9,361.4c-1.2-1.2-3.2-1.2-4.4,0.1c0,0,0,0,0,0l-3,3.1l0,0l-3.2,3.3
						c-1.2,1.2-1.2,3.2,0,4.4c0,0,0,0,0,0l0,0c1.2,1.2,3.2,1.2,4.4-0.1l0,0l6.3-6.5C1175.2,364.6,1175.2,362.6,1173.9,361.4
						C1173.9,361.4,1173.9,361.4,1173.9,361.4z M1172.9,364.8l-3,3.1l-2.3-2.2l3.1-3.1c0.3-0.3,0.7-0.5,1.2-0.5
						c0.9,0,1.6,0.7,1.6,1.6C1173.4,364.1,1173.3,364.5,1172.9,364.8L1172.9,364.8z"/>
					<path class="st34" d="M1179.1,373.5c0-2.3-1.8-4.2-4.1-4.2c-1.6,0-3,0.8-3.7,2.2c-0.1,0.1,0,0.2,0.1,0.3c0,0,0,0,0.1,0l7.4,1.9
						c0.1,0,0.2,0,0.3-0.1C1179.1,373.6,1179.1,373.5,1179.1,373.5z"/>
					<path class="st34" d="M1170.8,373.5c0,1,0.4,1.9,1.1,2.7c1.4,1.5,3.7,1.8,5.4,0.7c0.5-0.3,0.9-0.8,1.2-1.3
						c0.1-0.1,0-0.2-0.1-0.3c0,0,0,0,0,0l-7.3-1.9C1170.9,373.2,1170.8,373.3,1170.8,373.5C1170.8,373.4,1170.8,373.5,1170.8,373.5z
						"/>
					<path class="st33" d="M1173.9,422L1173.9,422c-1.2-1.2-3.2-1.2-4.4,0.1c0,0,0,0,0,0l-3,3.1l0,0l-3.2,3.3
						c-1.2,1.2-1.2,3.2,0,4.4c0,0,0,0,0,0l0,0c1.2,1.2,3.2,1.2,4.4-0.1l0,0l6.3-6.5C1175.2,425.2,1175.2,423.3,1173.9,422
						C1173.9,422.1,1173.9,422,1173.9,422z M1172.9,425.4l-3,3.1l-2.3-2.2l3.1-3.1c0.3-0.3,0.7-0.5,1.2-0.5c0.4,0,0.8,0.2,1.1,0.5
						C1173.6,423.8,1173.5,424.8,1172.9,425.4C1172.9,425.4,1172.9,425.4,1172.9,425.4L1172.9,425.4z"/>
					<path class="st33" d="M1179.1,434.1c0-2.3-1.8-4.2-4.1-4.2c-1.6,0-3,0.8-3.7,2.2c-0.1,0.1,0,0.2,0.1,0.3c0,0,0,0,0.1,0l7.4,1.9
						C1178.9,434.4,1179,434.3,1179.1,434.1C1179.1,434.2,1179.1,434.2,1179.1,434.1z"/>
					<path class="st33" d="M1170.8,434.1c0.1,2.3,2,4.1,4.2,4.1c0.8,0,1.6-0.3,2.2-0.7c0.5-0.4,0.9-0.8,1.2-1.3
						c0.1-0.1,0-0.2-0.1-0.3c0,0,0,0,0,0l-7.3-1.9C1170.9,433.9,1170.8,434,1170.8,434.1C1170.8,434.1,1170.8,434.1,1170.8,434.1z"
						/>
					<path class="st10" d="M1369.5,276.8h121.8c6.4,0,11.6,5.2,11.6,11.6v189.2c0,6.4-5.2,11.6-11.6,11.6h-119.8
						c-7.5,0-13.5-6.1-13.6-13.6V288.4C1357.9,282,1363.1,276.8,1369.5,276.8z"/>
					<path class="st10" d="M1355.1-196h121.8c6.4,0,11.6,5.2,11.6,11.6V4.8c0,6.4-5.2,11.6-11.6,11.6h-119.8
						c-7.5,0-13.6-6.1-13.6-13.6v-187.2C1343.5-190.8,1348.7-196,1355.1-196z"/>
				</g>
				
					<linearGradient id="SVGID_14_" gradientUnits="userSpaceOnUse" x1="1977.9194" y1="591.3386" x2="1977.9194" y2="179.0986" gradientTransform="matrix(1 0 0 -1 0 1024)">
					<stop  offset="0" style="stop-color:#1E91D6;stop-opacity:0"/>
					<stop  offset="1" style="stop-color:#1E91D6"/>
				</linearGradient>
				<rect x="929" y="412.3" class="st35" width="2097.9" height="442.2"/>
				
					<linearGradient id="SVGID_15_" gradientUnits="userSpaceOnUse" x1="1973.9492" y1="972.3486" x2="1973.9492" y2="1323.3885" gradientTransform="matrix(1 0 0 -1 0 1024)">
					<stop  offset="0" style="stop-color:#1E91D6;stop-opacity:0"/>
					<stop  offset="1" style="stop-color:#1E91D6"/>
				</linearGradient>
				<rect x="925" y="-353.2" class="st36" width="2097.9" height="442.2"/>
				
					<linearGradient id="SVGID_16_" gradientUnits="userSpaceOnUse" x1="1359.3193" y1="716.7936" x2="587.6693" y2="716.7936" gradientTransform="matrix(1 0 0 -1 0 1024)">
					<stop  offset="0" style="stop-color:#1E91D6;stop-opacity:0"/>
					<stop  offset="1" style="stop-color:#1E91D6"/>
				</linearGradient>
				<rect x="788.4" y="-109.2" class="st37" width="629.7" height="832.8"/>
			</g>
		</g>
	</g>
</g>
<path class="st10" d="M1028.2,1085H193.8l232.7-56c7.9-1.9,13.5-9,13.5-17.1V999h246v10c0,14,8.7,20.4,20,22L1028.2,1085z"/>
</svg>
