<?xml version="1.0" encoding="UTF-8"?>
<svg xmlns="http://www.w3.org/2000/svg" viewBox="0 0 946.05 283.86">
  <defs>
    <style>
      .cls-1 {
        fill: #232149;
      }

      .cls-2 {
        fill: #aa94f8;
      }

      .cls-3 {
        fill: #322488;
      }
    </style>
  </defs>
  <g id="Beeldmerk">
    <path class="cls-2" d="M225.72,22.8H92.94c-7.33,0-13.28,5.94-13.28,13.28v59.75c0,3.67-2.97,6.64-6.64,6.64H13.28c-7.33,0-13.28,5.94-13.28,13.28v53.11c0,7.33,5.94,13.28,13.28,13.28h53.11c7.33,0,13.28-5.94,13.28-13.28v-59.75c0-3.67,2.97-6.64,6.64-6.64h139.42c7.33,0,13.28-5.94,13.28-13.28v-53.11c0-7.33-5.94-13.28-13.28-13.28Z"/>
    <path class="cls-3" d="M225.72,102.47h-53.11c-7.33,0-13.28,5.94-13.28,13.28v59.75c0,3.67-2.97,6.64-6.64,6.64h-59.75c-7.33,0-13.28,5.94-13.28,13.28v53.11c0,7.33,5.94,13.28,13.28,13.28h53.11c7.33,0,13.28-5.94,13.28-13.28v-59.75c0-3.67,2.97-6.64,6.64-6.64h59.75c7.33,0,13.28-5.94,13.28-13.28v-53.11c0-7.33-5.94-13.28-13.28-13.28Z"/>
  </g>
  <g id="Bricks">
    <path class="cls-1" d="M473.88,34.78h13.67v22.06h-34.8c.77-11.53,9.72-20.82,21.12-22.06Z"/>
    <rect class="cls-1" x="431.16" y="35.92" width="21.51" height="99.39"/>
    <path class="cls-1" d="M313.96,8.84h53.04c30.31,0,43.99,10.73,43.99,32.2,0,16.42-9.47,26.32-25.47,30.11v.12c21.89,2.32,31.15,11.66,31.15,29.54,0,20.42-12.84,34.31-44.83,34.31h-57.88V8.84ZM337.95,27.57v36.41h28.41c13.26,0,21.68-5.05,21.68-18.73,0-12-5.89-17.68-20.63-17.68h-29.47ZM337.95,80.82v36.2h33.25c14.94,0,21.89-7.37,21.89-18.1,0-11.58-5.89-18.1-23.15-18.1h-31.99Z"/>
    <path id="Rectangle_72" data-name="Rectangle 72" class="cls-1" d="M504.85.93h14.89c2.16,0,3.92,1.76,3.92,3.92v14.89c0,2.16-1.76,3.92-3.92,3.92h-14.89c-2.16,0-3.92-1.76-3.92-3.92V4.85c0-2.16,1.76-3.92,3.92-3.92Z"/>
    <path class="cls-1" d="M500.93,135.12V36.2h22.73v98.92h-22.73Z"/>
    <path class="cls-1" d="M741.84,105.87l20.41-4.21c3.16,12,10.1,19.57,26.1,19.57,12,0,18.31-4.21,18.31-12.63,0-7.79-5.47-11.58-25.05-15.15-26.31-5.26-35.57-14.1-35.57-30.52,0-17.89,13.05-29.26,39.36-29.26s36.41,11.15,40.41,28.62l-20.42,4.42c-2.74-12.21-8.63-16.84-20.42-16.84s-17.47,4.42-17.47,11.79c0,6.95,4.21,11.79,22.94,15.15,29.25,5.47,38.09,15.36,38.09,30.94,0,18.31-12.21,30.1-40.62,30.1-31.99,0-42.51-13.05-46.09-31.99Z"/>
    <path class="cls-1" d="M671.62,76.82h9.05l31.15-40.62h25.89v2.32l-39.15,46.3,41.88,47.99v2.32h-25.89l-33.88-41.46h-9.05v41.46h-22.73V0h22.73v76.82Z"/>
    <path class="cls-1" d="M588.27,53.67c-16.21,0-26.31,10.31-26.31,31.99,0,19.99,9.26,32.2,26.94,32.2,16,0,21.47-9.89,24.41-21.89l20.84,5.05c-4,22.94-17.89,36.83-45.04,36.83-31.15,0-50.3-18.1-50.3-51.35s19.57-52.83,49.88-52.83c28.41,0,41.25,13.47,45.25,37.04l-21.26,4c-2.95-12.63-8.84-21.05-24.41-21.05Z"/>
  </g>
  <g id="Huisarts">
    <g>
      <path class="cls-2" d="M400.5,281.38v-55.15h-71.68v55.15h-14.87v-123.94h14.87v55.36h71.68v-55.36h14.87v123.94h-14.87Z"/>
      <path class="cls-2" d="M502.34,256.59h-1.45c-5.16,16.53-18.59,27.06-35.74,27.06-22.52,0-32.43-14.46-32.43-35.53v-62.8h14.25v59.9c0,14.46,5.79,25.41,23.14,25.41,19.21,0,32.02-11.98,32.02-29.95v-55.36h14.25v96.05h-14.04v-24.79Z"/>
      <path class="cls-2" d="M535.6,281.38v-96.05h14.05v96.05h-14.05Z"/>
      <path class="cls-2" d="M561.22,251.64l13.22-2.69c3.31,13.22,10.74,23.34,30.98,23.34,15.29,0,22.93-5.78,22.93-16.32s-7.23-14.25-28.3-17.76c-24.37-4.13-33.67-13.01-33.67-27.89,0-16.11,11.98-27.26,35.32-27.26s33.26,10.95,37.59,28.09l-13.22,3.1c-3.51-14.67-11.15-19.83-24.58-19.83s-21.28,5.58-21.28,15.28c0,8.47,5.99,14.25,25.41,17.35,26.44,4.34,36.77,13.02,36.77,28.51,0,16.73-11.15,28.3-37.18,28.3-28.71,0-39.66-12.6-44-32.22Z"/>
      <path class="cls-2" d="M717.8,258.45h-1.65c-4.96,16.32-17.97,24.99-35.32,24.99-18.8,0-30.37-8.06-30.37-26.44,0-15.91,10.95-28.09,33.67-28.09h33.05v-8.88c0-15.91-6.2-24.79-23.55-24.79-14.46,0-22.52,7.23-25.82,21.28l-13.63-3.51c4.34-18.8,17.97-29.75,39.66-29.75,26.03,0,37.39,12.81,37.39,36.56v61.56h-13.43v-22.93ZM717.18,246.06v-6.61h-31.4c-13.84,0-21.48,5.58-21.48,16.32,0,8.26,5.17,15.91,20.45,15.91,19.62,0,32.43-10.95,32.43-25.62Z"/>
      <path class="cls-2" d="M747.34,281.38v-96.05h13.84v25.82h1.24c4.75-18.59,15.08-26.85,30.57-26.85h3.92v15.49h-4.54c-21.28,0-30.78,9.09-30.78,32.23v49.37h-14.25Z"/>
      <path class="cls-2" d="M864.88,251.64l13.22-2.69c3.31,13.22,10.74,23.34,30.98,23.34,15.29,0,22.93-5.78,22.93-16.32s-7.23-14.25-28.3-17.76c-24.38-4.13-33.67-13.01-33.67-27.89,0-16.11,11.98-27.26,35.32-27.26s33.26,10.95,37.59,28.09l-13.22,3.1c-3.51-14.67-11.15-19.83-24.58-19.83s-21.27,5.58-21.27,15.28c0,8.47,5.99,14.25,25.41,17.35,26.44,4.34,36.77,13.02,36.77,28.51,0,16.73-11.15,28.3-37.18,28.3-28.71,0-39.66-12.6-44-32.22Z"/>
    </g>
    <rect id="Rectangle_72-2" data-name="Rectangle 72" class="cls-2" x="535.53" y="157.2" width="14.24" height="14.24" rx="2.46" ry="2.46"/>
    <g>
      <path class="cls-2" d="M863.01,267.95c-5.79,1.65-9.92,2.48-15.29,2.48-11.57,0-16.32-6.2-16.32-18.18v-54.74h.04v-12.19h-.04v-27.68h-14.04v27.68h-15.7v12.19h15.7v55.77c0,17.76,8.68,30.36,27.88,30.36,8.06,0,13.43-1.03,19.83-3.1l-2.06-12.6Z"/>
      <path class="cls-2" d="M864.05,197.52v-12.19h-20.08c-6.67.29-12.03,5.56-12.47,12.19h32.55Z"/>
    </g>
  </g>
</svg>