<?xml version="1.0" encoding="utf-8"?>
<!-- Generator: Adobe Illustrator 27.8.0, SVG Export Plug-In . SVG Version: 6.00 Build 0)  -->
<svg version="1.1" xmlns="http://www.w3.org/2000/svg" xmlns:xlink="http://www.w3.org/1999/xlink" x="0px" y="0px"
	 viewBox="0 0 693.8 383.4" style="enable-background:new 0 0 693.8 383.4;" xml:space="preserve">
<style type="text/css">
	.st0{fill:#00C300;}
	.st1{fill:none;}
</style>
<g id="kpn_logo_00000106118444337680772500000008831362196428316330_">
	<g>
		<path class="st0" d="M555.4,156.7c-15.5,0-28.4,2.8-40.1,7.5V242h26.1v-62.5c3.8-1.7,8.5-2.6,13.4-2.6c14.1,0,16.8,8.6,16.8,24.5
			l0,40.6h26.1v-44.4C597.8,172.7,589.5,156.7,555.4,156.7z"/>
		<rect x="306" y="127.3" class="st0" width="26.1" height="114.3"/>
		<polygon class="st0" points="390.2,159.3 360.5,159.3 332.1,196.6 362,241.6 392.9,241.6 360.5,195.7 		"/>
		<path class="st0" d="M447.8,156.3c-13.8,0-28.2,3-39.1,7.5v109.9h26.1v-31.4c32.8,6,59.2-7.6,58.7-42.7
			C493.4,171.8,478.6,156.3,447.8,156.3z M446.5,224.3c-4,0-9.1-0.8-11.7-1.8v-43.8c15.7-6.2,32.1-2,31.8,21
			C466.5,215.6,460.6,224.3,446.5,224.3z"/>
		<g>
			<path class="st0" d="M162.1,236.8c16.9-4.6,35.3-4.4,52.2,0.4l4-12c-19.9-5.7-42-5.7-61.9,0l4,12L162.1,236.8z"/>
			<polygon class="st0" points="177.7,160.3 187.4,170.4 197.1,160.3 187.4,150.2 			"/>
			<path class="st0" d="M161.8,188.1c-0.9,6.6,2.7,15.9,9.7,26.9c4.5-0.7,8.8-1,13.1-1l-1.2-2.2c-7.3-14-8.7-18.3-8.7-21.2
				c-0.2-4.5,3.6-4.9,8.5-4.4v-10.9C172,171.1,162.9,177.5,161.8,188.1z"/>
			<path class="st0" d="M154.1,187.7c-7.8-0.3-13.7,4.6-13.7,11.6c-0.3,5,2.8,11,12.3,19.2c3.9-1.3,8.3-2.3,12.5-3.2
				c-7.5-7.1-13.1-13-12.5-15.3c0-0.5,0-1.7,2.3-2.2l1.6-0.3c-0.9-3.3-1.3-6.6-1-9.8L154.1,187.7z"/>
			<path class="st0" d="M190.2,213.9c4.3,0.1,8.6,0.4,13.1,1c7-11,10.6-20.3,9.7-26.9c-1.2-10.6-10.3-17-21.5-12.9V186
				c4.8-0.5,8.6-0.1,8.5,4.4c0,3-1.4,7.2-8.7,21.2L190.2,213.9z"/>
			<path class="st0" d="M211.7,213.2l-2.1,2.1c4.2,0.8,8.6,1.9,12.5,3.2c9.5-8.2,12.6-14.2,12.3-19.2c0.1-7.7-7-12.3-15.2-11.5
				c0.2,3.2-0.2,6.5-1,9.8l1.6,0.3c2.3,0.4,2.3,1.7,2.3,2.2C222.1,202.2,220.6,204.6,211.7,213.2z"/>
			<path class="st0" d="M125.6,190c2.2-1.4,6.9-4.5,12.4-7.4c-4.7-11.1-7.3-20.9-7.2-28.5c0-16.6,4-30.1,11-37.1
				c18.3-18.4,54,5.1,70.3,30c5-0.7,10.9-1.7,16-1.7C211.8,115.9,178.6,96,157.8,96c-28.5,0-41.3,29.2-41.3,58.1
				C116.6,167.9,121.2,179.2,125.6,190z"/>
			<path class="st0" d="M229.8,153.9c-8.1,0-13.4,1.2-13.4,1.2c1.8,4.2,3.1,9,3.8,14c3.2-0.4,6.5-0.8,9.6-0.8
				c18.1-0.1,29.4,10.3,29.8,23.3c0,6.9-3.7,16-7.3,24.7c-1.8,4.5-5.2,13.1-7,20.5c-3,12.3-11.7,46.5-31.3,33.3
				c-4.5,2-10.7,4.8-15.4,6.1c9.3,8.3,15.7,11.1,24.7,11.1c24.3,0,32.6-34.2,35.8-47.1c3.1-14,14.9-33.6,14.7-48.7
				C273.6,169,252.9,153.2,229.8,153.9z"/>
			<path class="st0" d="M206.9,264c-3.6-3.5-7.2-7.1-10.7-10.9c-25.2,9.5-56.8-1.6-75.2-19.5c-6.6-6.6-10.6-14-10.6-19.8
				c0-8.1,2.6-13.9,8.2-18.4c-1.8-4.4-3.7-9.1-5.3-13.7c-11.3,7.4-17.1,18.3-17.1,32.1c0,9.7,5.2,20.3,14.8,29.9
				C129.8,263.5,174.1,280.9,206.9,264z"/>
		</g>
	</g>
</g>
<g id="marges">
	<rect y="287.4" class="st1" width="96" height="96"/>
	<rect class="st1" width="96" height="96"/>
	<rect x="597.8" y="287.4" class="st1" width="96" height="96"/>
	<rect x="597.8" class="st1" width="96" height="96"/>
</g>
</svg>
