<?xml version="1.0" encoding="utf-8"?>
<!-- Generator: Adobe Illustrator 25.2.1, SVG Export Plug-In . SVG Version: 6.00 Build 0)  -->
<svg version="1.1" xmlns="http://www.w3.org/2000/svg" xmlns:xlink="http://www.w3.org/1999/xlink" x="0px" y="0px"
	 viewBox="0 0 695.2 374.9" style="enable-background:new 0 0 695.2 374.9;" xml:space="preserve">
<style type="text/css">
	.st0{fill:#1E1E1E;}
	.st1{display:none;}
	.st2{display:inline;fill:none;}
</style>
<g id="kpn_logo">
	<g>
		<path class="st0" d="M257.7,168.1c-5.4-5.4-15.3-11.8-32.2-11.8c-3.1,0-6.2,0.2-9.1,0.6l-0.9,0.1l0.3,0.9c0.8,2.6,1.4,5.5,1.8,8.4
			l0.1,0.8l0.8-0.1c2.4-0.3,4.7-0.4,7-0.4c13.4,0,21,4.8,25,8.8c4.2,4.2,6.5,9.6,6.5,15c0,6.9-3.6,15.6-7.2,24.1
			c-1.7,4.2-4.9,12.3-6.7,19.2c-3.3,13.1-8.8,35-21.9,35c-4.3,0-9.4-2.4-15.5-7.2c-3.3,1.9-6.8,3.4-10.5,4.6
			c9.8,8.7,18.1,12.8,26,12.8c21.2,0,28.1-27.8,31.8-42.7c1.1-4.6,3.3-10.8,6.2-17.7c3.9-9.4,8-19.1,8-28
			C267.2,182.3,263.8,174.2,257.7,168.1z"/>
		<path class="st0" d="M212,148.2l0.9-0.2c2.9-0.5,5.9-0.8,9.1-1c0.3,0,0.6,0,0.9,0C208.8,113.8,173.1,96,152.7,96
			c-27.1,0-36.7,27.6-36.7,53.4c0,12,4.1,24.6,7.5,33l0.3,0.8l0.8-0.3c2.4-1.1,5-2.1,8-3.2l0.8-0.3l-0.3-0.8
			c-4.3-10.6-6.8-21.3-6.8-29.2c0-16.5,4-30,11.1-37c4.1-4.1,9.1-6.1,15.4-6.1C168.8,106.3,199,121.2,212,148.2z"/>
		<path class="st0" d="M190.8,247.3l-0.4-0.4l-0.5,0.2c-5.5,2-11.1,2.9-17.2,2.9c-20,0-41.8-8.9-55.6-22.8
			c-6.9-6.9-10.9-14.3-10.9-20.2c0-8.1,3-14.1,9.4-19c-1.2-2.9-2.6-6.3-3.8-9.9C101.2,185.2,96,194.7,96,207
			c0,8.7,4.9,18.5,13.9,27.5c12.4,12.5,35.5,25.8,62.9,25.8c8.6,0,16.8-1.7,24.4-5l1.1-0.5l-0.8-0.8
			C195.1,251.7,192.9,249.4,190.8,247.3z"/>
		<path class="st0" d="M179.1,175.9v-9c-2.1-0.6-4.7-0.9-7.3-0.9c-10.5,0-15.6,7.1-15.6,14.2c0,6.8,2.5,13.3,11.9,27.9
			c3.8-0.5,7.6-0.8,11.4-0.9c-8.2-15.2-10.2-20.6-10.2-24.5c0-4.5,2.6-6.8,7.9-6.8C178,175.9,178.6,175.9,179.1,175.9z"/>
		<path class="st0" d="M150.6,189.1c-0.8-2-1.3-5.3-1.6-7.7c-8.3-0.3-14.6,4.5-14.6,11.2c0,5.4,2.8,10.2,14.2,19.9
			c2.9-1,6.8-2.1,10.1-2.8c-11.2-10.5-13-13.3-13-16.4C145.9,191.1,147.5,189.6,150.6,189.1z"/>
		<path class="st0" d="M186.8,175.9v-9c2.1-0.6,4.7-0.9,7.3-0.9c10.4,0,15.6,7.1,15.6,14.2c0,6.8-2.5,13.3-11.9,27.9
			c-3.8-0.5-7.6-0.8-11.4-0.9c8.2-15.2,10.2-20.6,10.2-24.5c0-4.5-2.6-6.8-7.9-6.8C188,175.9,187.4,175.9,186.8,175.9z"/>
		<path class="st0" d="M215.3,189.1c0.8-2,1.3-5.3,1.6-7.7c8.3-0.3,14.6,4.5,14.6,11.2c0,5.4-2.8,10.2-14.2,19.9
			c-2.9-1-6.8-2.1-10.1-2.8c11.2-10.5,13-13.3,13-16.4C220,191.1,218.4,189.6,215.3,189.1z"/>
		<path class="st0" d="M183,226.2c8.4,0,17,1.1,25.9,3.8l3-10c-10-3-19.8-4.2-29-4.2c-9.2,0-18.9,1.2-29,4.2l3,10
			C166,227.3,174.6,226.2,183,226.2z"/>
		
			<rect x="176.4" y="145.3" transform="matrix(0.7072 -0.7071 0.7071 0.7072 -53.7838 173.8349)" class="st0" width="13.1" height="13.1"/>
	</g>
	<g>
		<path class="st0" d="M328.7,172.7l-19.6-25.3v25.3h-15.1v-80h15.1v46.7l18.7-21.8h18.2L323.2,143l23.2,29.8H328.7z"/>
		<path class="st0" d="M352.3,193v-75.3h15.1v4.6c2.4-3,7.8-5.8,13.7-5.8c15.9,0,24.9,13.3,24.9,28.8c0,15.5-9,28.7-24.9,28.7
			c-5.9,0-11.2-2.8-13.7-5.8V193H352.3z M367.5,154.3c1.8,3.8,5.9,6.4,10.2,6.4c8.2,0,13-6.6,13-15.4c0-8.9-4.9-15.5-13-15.5
			c-4.5,0-8.4,2.7-10.2,6.4V154.3z"/>
		<path class="st0" d="M430.2,117.8v5c2.9-3.4,8.3-6.3,14.6-6.3c12.3,0,19.3,8.1,19.3,20.3v35.9h-15.1V140c0-5.8-2.9-9.7-8.9-9.7
			c-4.6,0-8.7,2.8-9.9,7.6v34.8H415v-55H430.2z"/>
		<path class="st0" d="M359.1,277.7h-15.6V246h-33.9v31.7h-15.6v-75.5h15.6v30h33.9v-30h15.6V277.7z"/>
		<path class="st0" d="M382.7,253.8c1.2,9,7.7,12.7,15.7,12.7c6,0,10.2-1.4,15.6-4.8v12.5c-4.5,3.3-10.6,4.8-17.9,4.8
			c-16.6,0-27.9-10.8-27.9-28.3c0-17.2,10.7-29.2,25.6-29.2c15.9,0,24,11.1,24,27.3v4.9H382.7z M383.2,243.8h20.6
			c-0.4-5.9-3.7-10.1-9.6-10.1C389.2,233.7,384.9,236.9,383.2,243.8z"/>
		<path class="st0" d="M456.7,243.4c0-5.3-4.5-8.6-12.2-8.6c-5.5,0-10.6,1.6-14.9,4.4v-13.2c3.9-2.5,11-4.6,18.2-4.6
			c15,0,23.4,7.7,23.4,21.2v35.1h-14.5v-3c-1.8,1.8-7.2,3.9-13.2,3.9c-11,0-20.1-6.4-20.1-17.8c0-10.5,9.1-17.6,21.1-17.6
			c4.8,0,10,1.6,12.2,3.2V243.4z M456.7,258.8c-1.3-3-5.4-4.8-9.6-4.8c-4.8,0-9.6,2.1-9.6,6.8c0,4.8,4.9,6.8,9.6,6.8
			c4.3,0,8.3-1.8,9.6-4.8V258.8z"/>
		<path class="st0" d="M482.9,277.7v-80H498v80H482.9z"/>
		<path class="st0" d="M515.6,277.7v-42.7h-10.4v-12.3h10.4v-14.9h15.1v14.9h11.6v12.3h-11.6v42.7H515.6z"/>
		<path class="st0" d="M564.4,197.8v30c2.9-3.4,8.3-6.3,14.6-6.3c12.3,0,19.3,8.1,19.3,20.3v35.9h-15.1V245c0-5.8-2.9-9.7-8.9-9.7
			c-4.6,0-8.7,2.8-9.9,7.6v34.8h-15.1v-80H564.4z"/>
	</g>
</g>
<g id="marges" class="st1">
	<rect y="139.1" class="st2" width="96.8" height="96.8"/>
	<rect class="st2" width="96.8" height="96.8"/>
	<rect y="278.1" class="st2" width="96.8" height="96.8"/>
	<rect x="598.4" y="139.1" class="st2" width="96.8" height="96.8"/>
	<rect x="598.4" y="0" class="st2" width="96.8" height="96.8"/>
	<rect x="598.4" y="278.1" class="st2" width="96.8" height="96.8"/>
</g>
</svg>
