<?xml version="1.0" encoding="utf-8"?>
<!-- Generator: Adobe Illustrator 27.2.0, SVG Export Plug-In . SVG Version: 6.00 Build 0)  -->
<svg version="1.1"
	 id="svg5363" xmlns:inkscape="http://www.inkscape.org/namespaces/inkscape" xmlns:sodipodi="http://sodipodi.sourceforge.net/DTD/sodipodi-0.dtd" xmlns:svg="http://www.w3.org/2000/svg"
	 xmlns="http://www.w3.org/2000/svg" xmlns:xlink="http://www.w3.org/1999/xlink" x="0px" y="0px" viewBox="0 0 1361.7 238.2"
	 style="enable-background:new 0 0 1361.7 238.2;" xml:space="preserve">
<style type="text/css">
	.st0{fill:#3E3984;}
	.st1{fill:#44B7B3;}
	.st2{fill:#FA8E3A;}
	.st3{fill:#11295D;}
	.st4{fill:#436629;}
	.st5{fill:#3D201E;}
	.st6{fill:#111715;}
	.st7{display:none;}
	.st8{display:inline;}
</style>
<g>
	<path class="st0" d="M868.8,206.2c5.4,0,8.1,3.2,8.1,3.2l-1.5,2.2c0,0-2.5-2.7-6.5-2.7c-4.8,0-8.6,3.6-8.6,8.9
		c0,5.2,3.8,8.9,8.7,8.9c4.5,0,7.1-3.1,7.1-3.1l1.4,2.3c0,0-3,3.5-8.6,3.5c-6.6,0-11.6-4.7-11.6-11.6
		C857.2,211,862.3,206.2,868.8,206.2z"/>
	<path class="st0" d="M895.2,206.2c6.5,0,11.7,4.9,11.7,11.5c0,6.7-5.2,11.7-11.7,11.7s-11.7-5-11.7-11.7
		C883.5,211.2,888.7,206.2,895.2,206.2z M895.2,226.7c4.8,0,8.6-3.9,8.6-9c0-5-3.9-8.8-8.6-8.8s-8.6,3.7-8.6,8.8
		C886.5,222.9,890.4,226.7,895.2,226.7z"/>
	<path class="st0" d="M914.4,198h3v25c0,2.9,1.3,3.3,2.5,3.3c0.4,0,0.7,0,0.7,0v2.7c0,0-0.5,0.1-1.1,0.1c-1.8,0-5.1-0.6-5.1-5.4V198
		z"/>
	<path class="st0" d="M927.5,198h3v25c0,2.9,1.3,3.3,2.5,3.3c0.4,0,0.7,0,0.7,0v2.7c0,0-0.5,0.1-1.1,0.1c-1.8,0-5.1-0.6-5.1-5.4V198
		z"/>
	<path class="st0" d="M952.5,215.2h1.2v-0.6c0-4.3-2.3-5.7-5.5-5.7c-3.7,0-6.2,2.1-6.2,2.1l-1.4-2.3c0,0,2.9-2.5,7.9-2.5
		c5.3,0,8.3,2.9,8.3,8.5v14.2h-2.9v-2.4c0-1.1,0.1-1.8,0.1-1.8h-0.1c0,0-1.8,4.8-7.4,4.8c-3.7,0-7.5-2.2-7.5-6.6
		C939,215.4,948.7,215.2,952.5,215.2z M947,226.9c4.2,0,6.8-4.4,6.8-8.2v-1h-1.3c-3.5,0-10.4,0.1-10.4,5
		C942.1,224.8,943.7,226.9,947,226.9z"/>
	<path class="st0" d="M965.9,198h3v10.7c0,1-0.1,1.8-0.1,1.8h0.1c0,0,1.8-4.3,7.5-4.3c5.9,0,9.6,4.8,9.6,11.6c0,7-4.2,11.6-10,11.6
		c-5.3,0-7.3-4.3-7.3-4.3h-0.1c0,0,0.1,0.7,0.1,1.8v2h-2.9V198z M975.8,226.8c3.9,0,7.1-3.3,7.1-8.9c0-5.4-2.9-8.9-7-8.9
		c-3.7,0-7.2,2.6-7.2,8.9C968.8,222.3,971.1,226.8,975.8,226.8z"/>
	<path class="st0" d="M1004.1,206.2c6.5,0,11.7,4.9,11.7,11.5c0,6.7-5.2,11.7-11.7,11.7c-6.5,0-11.7-5-11.7-11.7
		C992.4,211.2,997.6,206.2,1004.1,206.2z M1004.1,226.7c4.8,0,8.6-3.9,8.6-9c0-5-3.9-8.8-8.6-8.8c-4.8,0-8.6,3.7-8.6,8.8
		C995.4,222.9,999.3,226.7,1004.1,226.7z"/>
	<path class="st0" d="M1023.5,206.8h2.9v3.9c0,1-0.1,1.8-0.1,1.8h0.1c1.1-3.3,3.5-5.9,7-5.9c0.6,0,1.2,0.1,1.2,0.1v2.9
		c0,0-0.5-0.1-1.1-0.1c-3.1,0-5.5,2.5-6.4,5.7c-0.4,1.4-0.6,2.9-0.6,4.3v9.3h-3V206.8z"/>
	<path class="st0" d="M1053.2,215.2h1.2v-0.6c0-4.3-2.3-5.7-5.5-5.7c-3.7,0-6.2,2.1-6.2,2.1l-1.4-2.3c0,0,2.9-2.5,7.9-2.5
		c5.3,0,8.3,2.9,8.3,8.5v14.2h-2.9v-2.4c0-1.1,0.1-1.8,0.1-1.8h-0.1c0,0-1.8,4.8-7.4,4.8c-3.7,0-7.5-2.2-7.5-6.6
		C1039.6,215.4,1049.3,215.2,1053.2,215.2z M1047.6,226.9c4.2,0,6.8-4.4,6.8-8.2v-1h-1.3c-3.5,0-10.4,0.1-10.4,5
		C1042.7,224.8,1044.3,226.9,1047.6,226.9z"/>
	<path class="st0" d="M1067.2,209.5h-2.9V207h2.9v-6.4h2.9v6.4h5.5v2.5h-5.5v11c0,5.2,3.3,5.9,5,5.9c0.6,0,1-0.1,1-0.1v2.7
		c0,0-0.5,0.1-1.3,0.1c-2.6,0-7.7-0.8-7.7-8.2V209.5z"/>
	<path class="st0" d="M1083.2,198h3.1v3.7h-3.1V198z M1083.3,206.8h3v22.1h-3V206.8z"/>
	<path class="st0" d="M1092.7,206.8h3.2l6.2,16.2c0.4,1.1,0.7,2.6,0.7,2.6h0.1c0,0,0.4-1.5,0.8-2.6l6.1-16.2h3.1l-8.4,22.1h-3.3
		L1092.7,206.8z"/>
	<path class="st0" d="M1128.6,206.2c6.1,0,9.2,4.7,9.2,10.2c0,0.5-0.1,1.5-0.1,1.5h-17c0.1,5.7,4,8.8,8.6,8.8c4,0,6.7-2.7,6.7-2.7
		l1.4,2.3c0,0-3.2,3.1-8.2,3.1c-6.6,0-11.6-4.8-11.6-11.6C1117.7,210.6,1122.6,206.2,1128.6,206.2z M1134.8,215.5
		c-0.2-4.6-3-6.8-6.3-6.8c-3.7,0-6.9,2.3-7.6,6.8H1134.8z"/>
	<path class="st0" d="M1159.7,198h3.1v3.7h-3.1V198z M1159.8,206.8h3v22.1h-3V206.8z"/>
	<path class="st0" d="M1172.2,206.8h2.9v3.3c0,1-0.1,1.8-0.1,1.8h0.1c0.8-2,3.6-5.6,8.8-5.6c5.5,0,7.4,3.1,7.4,8.6v14.1h-3v-13.3
		c0-3.5-0.5-6.6-4.8-6.6c-3.8,0-7,2.6-8.1,6.2c-0.3,0.9-0.4,1.9-0.4,3v10.6h-3V206.8z"/>
	<path class="st0" d="M1200.3,224.1c0,0,2.5,2.7,6.6,2.7c2.4,0,4.4-1.2,4.4-3.5c0-4.8-11.9-3.7-11.9-10.9c0-4,3.6-6.1,7.6-6.1
		c4.7,0,6.8,2.4,6.8,2.4l-1.4,2.3c0,0-1.9-2-5.5-2c-2.2,0-4.4,1-4.4,3.4c0,4.9,11.9,3.6,11.9,10.9c0,3.6-3.1,6.2-7.6,6.2
		c-5.4,0-8.2-3.2-8.2-3.2L1200.3,224.1z"/>
	<path class="st0" d="M1222.1,198h3.1v3.7h-3.1V198z M1222.2,206.8h3v22.1h-3V206.8z"/>
	<path class="st0" d="M1242.3,235.5c4.3,0,7.7-2,7.7-7v-2c0-0.8,0.1-1.6,0.1-1.6h-0.1c-1.3,2.5-3.6,3.9-7,3.9
		c-5.9,0-9.9-4.7-9.9-11.4c0-6.6,3.7-11.2,9.6-11.2c5.9,0,7.3,3.7,7.3,3.7h0.1c0,0,0-0.3,0-0.7v-2.4h2.9v21.6c0,7-5.2,9.8-10.6,9.8
		c-2.6,0-5.1-0.7-7.3-1.8l1.1-2.5C1236.3,233.9,1239,235.5,1242.3,235.5z M1250.1,217.4c0-6.5-3.1-8.4-7-8.4c-4.3,0-6.8,3.1-6.8,8.4
		c0,5.3,2.9,8.7,7.3,8.7C1247,226.1,1250.1,223.9,1250.1,217.4z"/>
	<path class="st0" d="M1262.4,198h3v12c0,1-0.1,1.8-0.1,1.8h0.1c0.8-2.1,3.8-5.5,8.8-5.5c5.5,0,7.4,3.1,7.4,8.6v14.1h-3v-13.3
		c0-3.5-0.5-6.6-4.8-6.6c-3.8,0-7,2.6-8.1,6.3c-0.3,0.9-0.4,1.9-0.4,2.9v10.6h-3V198z"/>
	<path class="st0" d="M1291.5,209.5h-2.9V207h2.9v-6.4h2.9v6.4h5.5v2.5h-5.5v11c0,5.2,3.3,5.9,5,5.9c0.6,0,1-0.1,1-0.1v2.7
		c0,0-0.5,0.1-1.3,0.1c-2.6,0-7.7-0.8-7.7-8.2V209.5z"/>
	<path class="st0" d="M1307.5,224.1c0,0,2.5,2.7,6.6,2.7c2.4,0,4.4-1.2,4.4-3.5c0-4.8-11.9-3.7-11.9-10.9c0-4,3.6-6.1,7.6-6.1
		c4.7,0,6.8,2.4,6.8,2.4l-1.4,2.3c0,0-1.9-2-5.5-2c-2.2,0-4.4,1-4.4,3.4c0,4.9,11.9,3.6,11.9,10.9c0,3.6-3.1,6.2-7.6,6.2
		c-5.4,0-8.2-3.2-8.2-3.2L1307.5,224.1z"/>
</g>
<sodipodi:namedview  bordercolor="#666666" borderopacity="1.0" id="namedview5365" inkscape:current-layer="layer1" inkscape:cx="665.28028" inkscape:cy="124.47179" inkscape:deskcolor="#d1d1d1" inkscape:pagecheckerboard="0" inkscape:pageopacity="0.0" inkscape:showpageshadow="2" inkscape:window-height="1387" inkscape:window-maximized="1" inkscape:window-width="2560" inkscape:window-x="0" inkscape:window-y="25" inkscape:zoom="1.2814148" pagecolor="#ffffff" showgrid="false">
	</sodipodi:namedview>
<g id="layer1" inkscape:groupmode="layer" inkscape:label="icon-color-generated">
	<g id="g8471" transform="translate(-1.1037103e-4,8.0882658e-4)">
		<path id="path8439" class="st1" d="M75.3,163.7l-34.4,20.5H159l-34.4-20.5H75.3z"/>
		<path id="path8441" class="st2" d="M159.1,102.3v1l35.4,20.5v-1L135.4,20.5h-1l1,39.9v1L159.1,102.3z"/>
		<path id="path8443" class="st0" d="M64.6,61.4v-1l1-39.9h-1L5.5,122.8h1l34.4-19.4v-1L64.6,61.4z"/>
		<path id="path8445" class="st1" d="M40.9,102.3l-1,1L22.2,132l1,1c3.7-6.3,10.4-10.2,17.7-10.2h36.5l11.4-20.5H40.9z"/>
		<path id="path8447" class="st0" d="M76.4,163.7l-1,1H40.9v-1c7.3,0,14.1-3.9,17.7-10.2l17.7-30.7l1-1H100v1L76.4,163.7z"/>
		<path id="path8449" class="st2" d="M123.6,163.7l1,1H158l1-1c-7.3,0-14.1-3.9-17.7-10.2l-17.7-30.7l-1-1H101l-1,1L123.6,163.7z"/>
		<path id="path8451" class="st1" d="M159.1,102.3l1,1l17.7,28.6l-1,1c-3.7-6.3-10.4-10.2-17.7-10.2h-36.5l-11.4-20.5L159.1,102.3z"
			/>
		<path id="path8453" class="st0" d="M135.4,61.4v-1l-16.7-29.7h-1c3.7,6.3,3.7,14.1,0,20.5L100,81.9v1l11.2,18.4l1,1L135.4,61.4z"
			/>
		<path id="path8455" class="st2" d="M64.6,61.4v-1l16.7-29.7h1c-3.7,6.3-3.7,14.1,0,20.5L100,81.9v1l-11.2,19.4h-1L64.6,61.4z"/>
		<path id="path8457" class="st3" d="M40.9,102.3c-14.6,0-28.1,7.8-35.4,20.5c-11.3,19.6-4.6,44.6,15,55.9
			c6.2,3.6,13.3,5.5,20.5,5.5c14.6,0,28.1-7.8,35.4-20.5H40.9c-11.3,0-20.5-9.2-20.5-20.5c0-3.6,0.9-7.1,2.7-10.2L40.9,102.3z"/>
		<path id="path8459" class="st4" d="M123.6,163.7c7.3,12.7,20.8,20.5,35.4,20.5c22.6,0,40.9-18.3,40.9-40.9
			c0-7.2-1.9-14.2-5.5-20.5c-7.3-12.7-20.8-20.5-35.4-20.5l17.7,30.7c5.7,9.8,2.3,22.3-7.5,28c-3.1,1.8-6.6,2.7-10.2,2.7
			L123.6,163.7z"/>
		<path id="path8461" class="st5" d="M135.4,61.4c7.3-12.7,7.3-28.3,0-40.9C124.1,0.9,99.1-5.8,79.5,5.5c-6.2,3.6-11.4,8.8-15,15
			c-7.3,12.7-7.3,28.3,0,40.9l17.7-30.7c5.7-9.8,18.2-13.1,28-7.5c3.1,1.8,5.7,4.4,7.5,7.5L135.4,61.4z"/>
		<path id="path8463" class="st3" d="M76.4,122.8H100v-1l-11.2-19.4h-1L76.4,122.8z"/>
		<path id="path8465" class="st4" d="M100,121.8v1h23.6l-11.4-20.5l-1,1L100,121.8z"/>
		<path id="path8467" class="st5" d="M87.8,102.3l1,1h22.3l1-1L100,81.9L87.8,102.3z"/>
		<path id="path8469" class="st6" d="M87.8,102.3h24.4L100,122.8L87.8,102.3z"/>
	</g>
</g>
<g id="layer2" inkscape:groupmode="layer" inkscape:label="logo-text">
	<path id="path8429" class="st0" d="M250,162.5h77c1.2,0,2.2-0.4,3-1.2s1.2-1.8,1.2-3v-18.2c0-1.1-0.4-2-1.2-2.8
		c-0.8-0.8-1.8-1.2-3-1.2h-48.3c-1.1,0-2-0.4-2.8-1.3c-0.8-0.9-1.2-1.8-1.2-2.9V26.8c0-1.1-0.4-2-1.2-2.9c-0.8-0.9-1.8-1.3-3-1.3
		H250c-1.1,0-2,0.4-2.9,1.3s-1.3,1.8-1.3,2.9v131.5c0,1.2,0.4,2.2,1.3,3C248,162.1,248.9,162.5,250,162.5 M385.6,162.5h20.7
		c1.1,0,1.9-0.4,2.6-1.1c0.7-0.7,1-1.6,1-2.5V26.4c0-1.1-0.4-2-1.1-2.7s-1.6-1.1-2.5-1.1h-20.7c-0.9,0-1.8,0.4-2.6,1.1
		c-0.8,0.7-1.2,1.6-1.2,2.7v132.5c0,0.9,0.4,1.8,1.1,2.5C383.7,162.1,384.6,162.5,385.6,162.5 M463.2,162.1h19.9
		c0.7,0,1.3-0.3,1.9-0.8s0.9-1.2,0.9-2l-0.4-80c0-1.9,0.5-2.8,1.6-2.8c0.7,0,1.4,0.6,2.2,1.8l50.3,80c1.1,1.7,2.1,2.8,3,3.2
		s2.6,0.6,5,0.6h14.2c0.8,0,1.5-0.3,2.1-0.8s0.9-1.2,0.9-2V25.8c0-0.8-0.3-1.5-0.9-2c-0.6-0.5-1.3-0.8-2.1-0.8h-20.9
		c-0.8,0-1.5,0.3-2.1,0.8s-0.9,1.2-0.9,2l0.4,78.2c0,2.9-0.5,4.4-1.6,4.4c-0.9,0-2.1-1.3-3.6-4l-47.3-80c-0.5-0.9-1.3-1.4-2.2-1.4
		h-20.3c-0.8,0-1.5,0.3-2.1,0.8s-0.9,1.2-0.9,2v133.5c0,0.8,0.3,1.5,0.9,2C461.7,161.8,462.4,162.1,463.2,162.1 M612.4,162.1h20.9
		c0.7,0,1.3-0.3,1.8-0.8s0.8-1.1,0.8-1.8v-39.7c0-3.1,0.3-5.3,0.8-6.8s1.9-3.3,4-5.4c0.5-0.5,1.1-0.8,1.8-0.8c0.8,0,1.5,0.4,2.2,1.2
		l35.5,50.7c1.1,1.2,2.2,2.1,3.4,2.6s2.9,0.8,5.2,0.8h20.5c0.8,0,1.4-0.2,1.9-0.6c0.5-0.4,0.7-0.8,0.7-1.2s-0.1-0.7-0.2-0.8
		c-0.3-0.4-5.4-7.7-15.3-21.9c-9.9-14.2-21.8-30.6-35.8-49.1c-0.7-0.8-0.6-1.6,0.2-2.4L712,25.2c0.5-0.7,0.7-1.2,0.5-1.5
		s-0.7-0.5-1.5-0.5h-28.7c-0.9,0-1.6,0.1-2.1,0.4s-1,0.7-1.5,1.4l-37.1,43.7c-0.8,0.8-1.7,1.2-2.6,1.2c-0.8,0-1.5-0.3-2.1-0.9
		s-0.9-1.4-0.9-2.3V26c0-0.8-0.3-1.5-0.8-2s-1.1-0.8-1.8-0.8h-20.9c-0.9,0-1.6,0.2-2,0.6s-0.6,1.1-0.6,2.2v133.5
		c0,0.7,0.3,1.3,0.8,1.8C611.2,161.8,611.8,162.1,612.4,162.1 M789.5,161.9c9.2,0,17.3-1.5,24.3-4.5s12.6-7.2,16.6-12.7
		s6-11.9,6-19.4c0-4.3-0.9-8.7-2.7-13.4c-1.8-4.7-4-8.2-6.7-10.8c-2.5-3.2-5.8-5.8-9.7-7.7c-3.9-1.9-9.1-4.1-15.5-6.5
		c-5.9-2.1-11.1-4.2-15.9-6.2c-4.7-2-9.1-4.5-13.3-7.4c-3.7-2.8-5.6-6.1-5.6-9.8c0-2.5,0.9-5,2.8-7.3c1.9-2.3,4.5-4.4,8-6.1
		c4.4-1.5,8.7-2.2,13-2.2c3.9,0,8.8,0.7,15,2c2.8,0.5,6.3,1.8,10.6,3.8c3.2,1.6,5.5,2.4,6.8,2.4c0.8,0,1.4-0.3,1.8-0.8
		c0.7-0.9,2.2-2.9,4.5-5.9s3.9-5.5,4.7-7.5c1.2-3.6-3.4-8-13.8-13.2c-9.7-3.9-19.6-5.8-29.7-5.8c-2.5,0-4.4,0.1-5.6,0.2
		c-9.2,0.9-17.2,3.3-23.9,7c-6.8,3.7-12,8.4-15.6,14.1s-5.4,11.9-5.4,18.7c0,3.9,0.7,8.1,2.2,12.8c2,6.8,6,12.4,12,16.9
		s14.4,8.3,25.1,11.5c2.8,0.8,4.5,1.3,5.2,1.4c5.7,1.6,10.5,3.2,14.3,4.7s6.6,3.4,8.3,5.7c2.8,3.6,4.2,7,4.2,10.2c0,3.9-2,7-5.9,9.3
		s-9.3,3.5-16.1,3.5c-6.9,0-13.5-0.6-19.7-1.9c-6.2-1.3-14-4.3-23.4-9.1c-0.8-0.3-1.4-0.4-1.8-0.4c-1.3,0-2.5,0.7-3.4,2
		c-2.5,3.6-4.3,6.4-5.4,8.4c-1.1,2-1.6,3.7-1.6,5c0,1.2,0.4,2.2,1.2,3c4.4,4,11.9,7.6,22.6,11C768.8,160.2,779.2,161.9,789.5,161.9
		 M881.6,162.5h20.7c1.1,0,1.9-0.4,2.6-1.1c0.7-0.7,1-1.6,1-2.5V26.4c0-1.1-0.4-2-1.1-2.7c-0.7-0.7-1.6-1.1-2.5-1.1h-20.7
		c-0.9,0-1.8,0.4-2.6,1.1s-1.2,1.6-1.2,2.7v132.5c0,0.9,0.4,1.8,1.1,2.5C879.6,162.1,880.5,162.5,881.6,162.5 M1015.2,165.1
		c13,0,24.8-3.2,35.2-9.7c10.4-6.4,18.6-15.2,24.4-26.2c5.9-11,8.8-23.2,8.8-36.5c0-2-0.9-3.5-2.6-4.6s-4.2-1.6-7.4-1.6h-42.5
		c-1.1,0-2,0.4-2.8,1.2c-0.8,0.8-1.2,1.7-1.2,2.8V105c0,1.1,0.4,2,1.2,2.8c0.8,0.8,1.7,1.2,2.8,1.2h25.7c-3.5,9.2-8.8,16.5-16.2,22
		c-7.3,5.5-15.8,8.3-25.5,8.3c-8.4,0-16.2-2.1-23.3-6.3c-7.2-4.2-12.9-9.9-17.1-17.1c-4.2-7.2-6.3-15-6.3-23.3
		c0-8.4,2.1-16.2,6.3-23.3c4.2-7.2,9.9-12.9,17.1-17.1c7.2-4.2,15-6.3,23.3-6.3l5.2,0.2c2.3,0,3.6-1.1,4-3.2l3.2-17.4
		c0.3-1.2,0.1-2.3-0.6-3.2c-0.7-0.9-1.6-1.5-2.8-1.6c-2.9-0.4-5.9-0.6-9-0.6c-13.2,0-25.3,3.2-36.4,9.7
		c-11.1,6.5-19.9,15.2-26.3,26.3c-6.5,11.1-9.7,23.2-9.7,36.4s3.2,25.3,9.7,36.4c6.4,11.1,15.2,19.9,26.3,26.3
		C989.9,161.8,1002.1,165.1,1015.2,165.1 M1118.2,162.5h20.9c0.8,0,1.5-0.3,2-0.9c0.5-0.6,0.8-1.2,0.8-1.9v-46.5
		c0.1-1.3,0.6-2.4,1.5-3.2c0.9-0.8,1.9-1.2,3.1-1.2h37.9c1.2,0,2.2,0.4,3.1,1.3s1.4,2,1.5,3.3v46.3c0,0.7,0.3,1.3,0.8,1.9
		c0.5,0.6,1.2,0.9,2,0.9h20.9c0.8,0,1.5-0.3,2-0.8s0.8-1.2,0.8-2V25.4c0-0.8-0.3-1.5-0.8-2s-1.2-0.8-2-0.8h-20.9
		c-0.8,0-1.5,0.3-2,0.9s-0.8,1.2-0.8,1.9v52.1c-0.1,1.3-0.6,2.4-1.5,3.3s-1.9,1.3-3.1,1.3h-37.9c-1.2,0-2.3-0.5-3.2-1.4
		c-0.9-0.9-1.4-2-1.4-3.2V25.4c0-0.7-0.3-1.3-0.8-1.9s-1.2-0.9-2-0.9h-20.9c-0.8,0-1.5,0.3-2,0.8s-0.8,1.2-0.8,2v134.3
		c0,0.8,0.3,1.5,0.8,2C1116.8,162.2,1117.4,162.5,1118.2,162.5 M1294.7,162.5h23.7c0.8,0,1.4-0.3,1.9-0.8s0.7-1.1,0.7-1.8V51.7
		c0-1.3,0.5-2.5,1.4-3.4s2.1-1.4,3.4-1.4h33.1c0.8,0,1.5-0.3,2-0.8s0.8-1.1,0.8-1.8V25.6c0-0.7-0.3-1.3-0.8-1.8s-1.2-0.8-2-0.8
		h-105.3c-0.7,0-1.2,0.2-1.7,0.6s-0.7,0.9-0.7,1.6v19.4c0,0.5,0.3,1.1,0.8,1.6s1.1,0.8,1.6,0.8h33.5c1.3,0,2.5,0.5,3.5,1.5
		s1.5,2.1,1.5,3.3v108.1c0,0.7,0.2,1.3,0.7,1.8C1293.3,162.2,1293.9,162.5,1294.7,162.5"/>
</g>
<g id="layer5" inkscape:groupmode="layer" inkscape:label="payoff-nl" class="st7">
	<g id="g31454" transform="matrix(0.4324505,0,0,0.4324505,684.14747,130.72751)" class="st8">
		<path id="path30387" class="st0" d="M63.6,175.3c12.3,0,16.6,9.6,16.6,9.6h0.2c0,0-0.2-1.7-0.2-3.8v-24.7h6.9v71h-6.7V222
			c0-2.2,0.2-3.6,0.2-3.6h-0.2c0,0-4.1,10.2-17.5,10.2c-13.6,0-22.1-10.9-22.1-26.7C40.7,185.8,50.2,175.3,63.6,175.3z M63.9,222.3
			c8.5,0,16.5-6.1,16.5-20.5c0-10.3-5.3-20.4-16.2-20.4c-9,0-16.4,7.6-16.4,20.4C47.8,214.4,54.4,222.3,63.9,222.3z"/>
		<path id="path30389" class="st0" d="M130.1,175.3c14,0,21.2,10.8,21.2,23.4c0,1.2-0.2,3.5-0.2,3.5h-39c0.3,13,9.2,20.1,19.7,20.1
			c9.3,0,15.5-6.2,15.5-6.2l3.1,5.3c0,0-7.4,7.1-18.8,7.1c-15.2,0-26.6-10.9-26.6-26.6C105.1,185.3,116.4,175.3,130.1,175.3z
			 M144.4,196.6C144,186,137.5,181,130,181c-8.5,0-15.9,5.4-17.5,15.6H144.4z"/>
		<path id="path30391" class="st0" d="M191,175.3c14,0,21.2,10.8,21.2,23.4c0,1.2-0.2,3.5-0.2,3.5h-39c0.3,13,9.2,20.1,19.7,20.1
			c9.3,0,15.5-6.2,15.5-6.2l3.1,5.3c0,0-7.4,7.1-18.8,7.1c-15.2,0-26.6-10.9-26.6-26.6C166,185.3,177.3,175.3,191,175.3z
			 M205.3,196.6c-0.4-10.6-6.9-15.6-14.4-15.6c-8.5,0-15.9,5.4-17.5,15.6H205.3z"/>
		<path id="path30393" class="st0" d="M229.9,156.3h6.9v57.5c0,6.7,3,7.7,5.7,7.7c0.9,0,1.7-0.1,1.7-0.1v6.2c0,0-1.2,0.2-2.5,0.2
			c-4.2,0-11.7-1.3-11.7-12.4L229.9,156.3L229.9,156.3z"/>
		<path id="path30395" class="st0" d="M292.6,156.3h6.9v27.5c0,2.3-0.2,4.1-0.2,4.1h0.2c1.9-4.8,8.7-12.6,20.2-12.6
			c12.5,0,17,7.2,17,19.7v32.3h-6.9v-30.5c0-8-1.2-15-11-15c-8.7,0-16.2,6-18.5,14.4c-0.6,2-0.8,4.3-0.8,6.8v24.3h-6.9L292.6,156.3z
			"/>
		<path id="path30397" class="st0" d="M379.1,175.3c14,0,21.2,10.8,21.2,23.4c0,1.2-0.2,3.5-0.2,3.5h-39c0.3,13,9.2,20.1,19.7,20.1
			c9.3,0,15.5-6.2,15.5-6.2l3.1,5.3c0,0-7.4,7.1-18.8,7.1c-15.1,0-26.6-10.9-26.6-26.6C354,185.3,365.3,175.3,379.1,175.3
			L379.1,175.3z M393.3,196.6c-0.4-10.6-6.9-15.6-14.4-15.6c-8.5,0-15.9,5.4-17.5,15.6H393.3z"/>
		<path id="path30399" class="st0" d="M420.4,182.8h-6.7V177h6.8v-14.6h6.8V177H440v5.8h-12.7V208c0,11.9,7.6,13.4,11.4,13.4
			c1.4,0,2.3-0.2,2.3-0.2v6.2c0,0-1.1,0.2-2.9,0.2c-5.9,0-17.7-1.9-17.7-18.9L420.4,182.8z"/>
		<path id="path30401" class="st0" d="M489.4,156.3h7.2v8.6h-7.2V156.3z M489.6,176.5h6.9v50.8h-6.9V176.5z"/>
		<path id="path30403" class="st0" d="M518.1,176.5h6.8v7.6c0,2.2-0.2,4-0.2,4h0.2c1.8-4.6,8.3-12.8,20.3-12.8
			c12.5,0,17,7.2,17,19.7v32.3h-6.9v-30.5c0-8-1.2-15-11-15c-8.7,0-16.2,6-18.5,14.3c-0.6,2.1-0.8,4.4-0.8,6.9v24.3h-6.9
			L518.1,176.5z"/>
		<path id="path30405" class="st0" d="M579,222.8l28.4-35.7c1.9-2.4,4-4.6,4-4.6v-0.2c0,0-1.7,0.2-5,0.2h-26.2v-6h40.5v4.5
			l-28.4,35.6c-1.9,2.4-4.1,4.6-4.1,4.6v0.2c0,0,1.8-0.2,5.2-0.2h28.4v6.1h-42.7v-4.5C579.1,222.8,579,222.8,579,222.8z"/>
		<path id="path30407" class="st0" d="M639.3,156.3h7.2v8.6h-7.2V156.3z M639.5,176.5h6.9v50.8h-6.9V176.5z"/>
		<path id="path30409" class="st0" d="M691.1,175.3c12.4,0,18.6,7.3,18.6,7.3l-3.5,5.2c0,0-5.7-6.2-14.8-6.2
			c-11.1,0-19.8,8.3-19.8,20.4c0,11.9,8.8,20.4,20,20.4c10.3,0,16.3-7.2,16.3-7.2l3.1,5.4c0,0-6.9,8-19.8,8
			c-15,0-26.7-10.8-26.7-26.6C664.4,186.3,676.1,175.3,691.1,175.3L691.1,175.3z"/>
		<path id="path30411" class="st0" d="M728.4,156.3h6.9v27.5c0,2.3-0.2,4.1-0.2,4.1h0.2c1.9-4.8,8.7-12.6,20.2-12.6
			c12.5,0,17,7.2,17,19.7v32.3h-6.9v-30.5c0-8-1.2-15-11-15c-8.7,0-16.2,6-18.5,14.4c-0.6,2-0.8,4.3-0.8,6.8v24.3h-6.9V156.3z"/>
		<path id="path30413" class="st0" d="M795.3,182.8h-6.7V177h6.8v-14.6h6.8V177h12.7v5.8h-12.7V208c0,11.9,7.6,13.4,11.4,13.4
			c1.4,0,2.3-0.2,2.3-0.2v6.2c0,0-1.1,0.2-2.9,0.2c-5.9,0-17.7-1.9-17.7-18.9L795.3,182.8z"/>
		<path id="path30415" class="st0" d="M833.4,219h7.6l-7.5,18.1h-5.9L833.4,219z"/>
		<path id="path30417" class="st0" d="M894.2,176.5h6.8v7.6c0,2.2-0.2,4-0.2,4h0.2c1.8-4.6,8.3-12.8,20.3-12.8
			c12.5,0,17,7.2,17,19.7v32.3h-6.9v-30.5c0-8-1.2-15-11-15c-8.7,0-16.2,6-18.5,14.3c-0.6,2.1-0.8,4.4-0.8,6.9v24.3h-6.9
			L894.2,176.5z"/>
		<path id="path30419" class="st0" d="M958.9,156.3h7.2v8.6h-7.2V156.3z M959.1,176.5h6.9v50.8h-6.9V176.5z"/>
		<path id="path30421" class="st0" d="M1009.1,175.3c14,0,21.2,10.8,21.2,23.4c0,1.2-0.2,3.5-0.2,3.5h-39c0.3,13,9.2,20.1,19.7,20.1
			c9.3,0,15.5-6.2,15.5-6.2l3.1,5.3c0,0-7.4,7.1-18.8,7.1c-15.1,0-26.6-10.9-26.6-26.6C984.1,185.3,995.4,175.3,1009.1,175.3z
			 M1023.3,196.6c-0.4-10.6-6.9-15.6-14.4-15.6c-8.5,0-15.9,5.4-17.5,15.6H1023.3z"/>
		<path id="path30423" class="st0" d="M1050.4,182.8h-6.7V177h6.8v-14.6h6.8V177h12.7v5.8h-12.7V208c0,11.9,7.6,13.4,11.4,13.4
			c1.4,0,2.3-0.2,2.3-0.2v6.2c0,0-1.1,0.2-2.9,0.2c-5.9,0-17.7-1.9-17.7-18.9L1050.4,182.8z"/>
		<path id="path30425" class="st0" d="M1139.1,175.3c12.3,0,16.6,9.6,16.6,9.6h0.2c0,0-0.2-1.7-0.2-3.8v-24.7h6.9v71h-6.7V222
			c0-2.2,0.2-3.6,0.2-3.6h-0.2c0,0-4.1,10.2-17.5,10.2c-13.6,0-22.1-10.9-22.1-26.7C1116.3,185.8,1125.8,175.3,1139.1,175.3
			L1139.1,175.3z M1139.4,222.3c8.5,0,16.5-6.1,16.5-20.5c0-10.3-5.3-20.4-16.2-20.4c-9,0-16.4,7.6-16.4,20.4
			C1123.3,214.4,1129.9,222.3,1139.4,222.3z"/>
		<path id="path30427" class="st0" d="M1205.6,175.3c14,0,21.2,10.8,21.2,23.4c0,1.2-0.2,3.5-0.2,3.5h-39c0.3,13,9.2,20.1,19.7,20.1
			c9.3,0,15.5-6.2,15.5-6.2l3.1,5.3c0,0-7.4,7.1-18.8,7.1c-15.1,0-26.6-10.9-26.6-26.6C1180.6,185.3,1191.9,175.3,1205.6,175.3
			L1205.6,175.3z M1219.9,196.6c-0.4-10.6-6.9-15.6-14.4-15.6c-8.5,0-15.9,5.4-17.5,15.6H1219.9z"/>
		<path id="path30429" class="st0" d="M1296.7,175.3c12.3,0,16.6,9.6,16.6,9.6h0.2c0,0-0.2-1.7-0.2-3.8v-24.7h6.9v71h-6.7V222
			c0-2.2,0.2-3.6,0.2-3.6h-0.2c0,0-4.1,10.2-17.5,10.2c-13.6,0-22.1-10.9-22.1-26.7C1273.9,185.8,1283.4,175.3,1296.7,175.3
			L1296.7,175.3z M1297.1,222.3c8.5,0,16.5-6.1,16.5-20.5c0-10.3-5.3-20.4-16.2-20.4c-9,0-16.4,7.6-16.4,20.4
			C1281,214.4,1287.6,222.3,1297.1,222.3z"/>
		<path id="path30431" class="st0" d="M1368.8,195.9h2.8v-1.3c0-9.8-5.4-13.1-12.6-13.1c-8.4,0-14.3,4.8-14.3,4.8l-3.2-5.3
			c0,0,6.7-5.8,18.1-5.8c12.2,0,19,6.8,19,19.5v32.5h-6.6v-5.6c0-2.5,0.2-4.2,0.2-4.2h-0.2c0,0-4.2,11-17,11
			c-8.5,0-17.3-4.9-17.3-15C1337.7,196.3,1360,195.9,1368.8,195.9z M1356,222.6c9.7,0,15.6-10.1,15.6-18.9v-2.2h-2.9
			c-8,0-23.9,0.3-23.9,11.5C1344.7,217.8,1348.5,222.6,1356,222.6L1356,222.6z"/>
		<path id="path30433" class="st0" d="M1401,182.8h-6.7V177h6.8v-14.6h6.8V177h12.7v5.8h-12.7V208c0,11.9,7.6,13.4,11.4,13.4
			c1.4,0,2.3-0.2,2.3-0.2v6.2c0,0-1.1,0.2-2.9,0.2c-5.9,0-17.7-1.9-17.7-18.9L1401,182.8z"/>
		<path id="path30435" class="st0" d="M1464.9,195.9h2.8v-1.3c0-9.8-5.4-13.1-12.6-13.1c-8.4,0-14.3,4.8-14.3,4.8l-3.2-5.3
			c0,0,6.7-5.8,18.1-5.8c12.2,0,19,6.8,19,19.5v32.5h-6.6v-5.6c0-2.5,0.2-4.2,0.2-4.2h-0.2c0,0-4.2,11-17,11
			c-8.5,0-17.3-4.9-17.3-15C1433.8,196.3,1456.1,195.9,1464.9,195.9z M1452.2,222.6c9.7,0,15.6-10.1,15.6-18.9v-2.2h-2.9
			c-8,0-23.9,0.3-23.9,11.5C1440.9,217.8,1444.6,222.6,1452.2,222.6L1452.2,222.6z"/>
	</g>
</g>
</svg>
