<?xml version="1.0" encoding="UTF-8"?>
<svg width="454px" height="69px" viewBox="0 0 454 69" version="1.1" xmlns="http://www.w3.org/2000/svg" xmlns:xlink="http://www.w3.org/1999/xlink">
    <!-- Generator: Sketch 48.2 (47327) - http://www.bohemiancoding.com/sketch -->
    <title>Adapcare-logo</title>
    <desc>Created with Sketch.</desc>
    <defs></defs>
    <g id="Logotypes" stroke="none" stroke-width="1" fill="none" fill-rule="evenodd">
        <g id="Page-1" transform="translate(0.000000, -1062.000000)">
            <g id="Adapcare-logo" transform="translate(0.000000, 1062.000000)">
                <g id="Group-3" transform="translate(0.000000, 2.000000)" fill="#29536B">
                    <path d="M4.0572,34.7153 C-1.2328,29.6443 -1.2328,29.6443 3.3742,24.4823 C28.8102,-4.0197 72.0622,-7.9557 102.2242,15.4943 C103.2192,16.2683 104.1372,17.1423 105.0502,17.9333 C92.6892,40.7453 56.7722,50.5183 32.5962,37.5533 C35.9032,34.8583 38.6742,32.6783 43.5642,34.1733 C62.1232,39.8463 84.1602,33.3463 94.7482,19.5593 C75.6592,3.6403 31.9802,-1.3117 4.0572,34.7153" id="Fill-1"></path>
                </g>
                <path d="M110.825,25.6548771 C116.352,30.6338771 116.352,30.6338771 111.716,35.8388771 C86.303,64.3708771 43.096,68.3548771 12.882,44.9448771 C11.879,44.1678771 10.941,43.3048771 10,42.5048771 C23.739,19.4428771 56.872,9.83787709 82.565,22.8628771 C79.116,25.4388771 76.44,27.7438771 71.559,26.2378771 C53.045,20.5268771 31.349,26.8668771 19.975,41.1738771 C34.793,51.2788771 50.924,54.8968771 68.488,51.9608771 C86.146,49.0078771 100.06,39.7678771 110.825,25.6548771" id="Fill-4" fill="#29536B"></path>
                <path d="M151.672,1.88 L157.144,1.88 L178.024,53 L171.112,53 L165.064,38.024 L143.608,38.024 L137.632,53 L130.72,53 L151.672,1.88 Z M163.624,32.984 L154.408,9.368 L144.904,32.984 L163.624,32.984 Z M198.256,53.72 C195.663987,53.72 193.264011,53.1920053 191.056,52.136 C188.847989,51.0799947 186.952008,49.6640089 185.368,47.888 C183.783992,46.1119911 182.548004,44.0480118 181.66,41.696 C180.771996,39.3439882 180.328,36.872013 180.328,34.28 C180.328,31.6399868 180.747996,29.1320119 181.588,26.756 C182.428004,24.3799881 183.603992,22.3040089 185.116,20.528 C186.628008,18.7519911 188.42799,17.3480052 190.516,16.316 C192.60401,15.2839948 194.895988,14.768 197.392,14.768 C200.416015,14.768 203.115988,15.5599921 205.492,17.144 C207.868012,18.7280079 209.751993,20.6479887 211.144,22.904 L211.144,0.44 L217.48,0.44 L217.48,45.224 C217.48,46.7120074 218.151993,47.4799998 219.496,47.528 L219.496,53 C218.823997,53.0960005 218.284002,53.1679998 217.876,53.216 C217.467998,53.2640002 217.072002,53.288 216.688,53.288 C215.439994,53.288 214.348005,52.8680042 213.412,52.028 C212.475995,51.1879958 212.008,50.2160055 212.008,49.112 L212.008,45.944 C210.519993,48.3920122 208.540012,50.2999932 206.068,51.668 C203.595988,53.0360068 200.992014,53.72 198.256,53.72 Z M199.768,48.248 C200.920006,48.248 202.107994,48.0320022 203.332,47.6 C204.556006,47.1679978 205.707995,46.5680038 206.788,45.8 C207.868005,45.0319962 208.803996,44.1320052 209.596,43.1 C210.388004,42.0679948 210.903999,40.9760058 211.144,39.824 L211.144,29.024 C210.711998,27.823994 210.064004,26.6840054 209.2,25.604 C208.335996,24.5239946 207.364005,23.588004 206.284,22.796 C205.203995,22.003996 204.052006,21.3800023 202.828,20.924 C201.603994,20.4679977 200.392006,20.24 199.192,20.24 C197.319991,20.24 195.628008,20.635996 194.116,21.428 C192.603992,22.220004 191.308005,23.2759934 190.228,24.596 C189.147995,25.9160066 188.320003,27.4279915 187.744,29.132 C187.167997,30.8360085 186.88,32.5759911 186.88,34.352 C186.88,36.2240094 187.215997,38.0119915 187.888,39.716 C188.560003,41.4200085 189.471994,42.8959938 190.624,44.144 C191.776006,45.3920062 193.131992,46.3879963 194.692,47.132 C196.252008,47.8760037 197.943991,48.248 199.768,48.248 Z M237.712,53.72 C235.935991,53.72 234.280008,53.420003 232.744,52.82 C231.207992,52.219997 229.876006,51.3920053 228.748,50.336 C227.619994,49.2799947 226.732003,48.0440071 226.084,46.628 C225.435997,45.2119929 225.112,43.6640084 225.112,41.984 C225.112,40.2559914 225.495996,38.6840071 226.264,37.268 C227.032004,35.8519929 228.123993,34.640005 229.54,33.632 C230.956007,32.623995 232.63599,31.8320029 234.58,31.256 C236.52401,30.6799971 238.647988,30.392 240.952,30.392 C242.776009,30.392 244.623991,30.5599983 246.496,30.896 C248.368009,31.2320017 250.023993,31.6879971 251.464,32.264 L251.464,29.24 C251.464,26.1679846 250.600009,23.7560088 248.872,22.004 C247.143991,20.2519912 244.696016,19.376 241.528,19.376 C237.735981,19.376 233.752021,20.8399854 229.576,23.768 L227.488,19.664 C232.336024,16.3999837 237.207976,14.768 242.104,14.768 C247.048025,14.768 250.899986,16.0879868 253.66,18.728 C256.420014,21.3680132 257.8,25.087976 257.8,29.888 L257.8,45.224 C257.8,46.7120074 258.471993,47.4799998 259.816,47.528 L259.816,53 C259.143997,53.0960005 258.592002,53.1679998 258.16,53.216 C257.727998,53.2640002 257.272002,53.288 256.792,53.288 C255.543994,53.288 254.548004,52.9160037 253.804,52.172 C253.059996,51.4279963 252.616001,50.5280053 252.472,49.472 L252.328,46.808 C250.647992,49.0640113 248.524013,50.7799941 245.956,51.956 C243.387987,53.1320059 240.640015,53.72 237.712,53.72 Z M239.368,48.968 C241.624011,48.968 243.72399,48.5480042 245.668,47.708 C247.61201,46.8679958 249.087995,45.752007 250.096,44.36 C251.008005,43.4479954 251.464,42.5120048 251.464,41.552 L251.464,36.008 C248.391985,34.807994 245.200017,34.208 241.888,34.208 C238.719984,34.208 236.14001,34.8799933 234.148,36.224 C232.15599,37.5680067 231.16,39.3199892 231.16,41.48 C231.16,42.5360053 231.363998,43.5199954 231.772,44.432 C232.180002,45.3440046 232.755996,46.1359966 233.5,46.808 C234.244004,47.4800034 235.119995,48.0079981 236.128,48.392 C237.136005,48.7760019 238.215994,48.968 239.368,48.968 Z M288.184,53.72 C285.063984,53.72 282.316012,52.9520077 279.94,51.416 C277.563988,49.8799923 275.680007,47.9360118 274.288,45.584 L274.288,68.336 L267.952,68.336 L267.952,15.416 L273.568,15.416 L273.568,22.472 C275.056007,20.1679885 276.987988,18.3080071 279.364,16.892 C281.740012,15.4759929 284.367986,14.768 287.248,14.768 C289.840013,14.768 292.215989,15.2959947 294.376,16.352 C296.536011,17.4080053 298.407992,18.835991 299.992,20.636 C301.576008,22.436009 302.811996,24.5119882 303.7,26.864 C304.588004,29.2160118 305.032,31.6639873 305.032,34.208 C305.032,36.8960134 304.624004,39.4279881 303.808,41.804 C302.991996,44.1800119 301.840007,46.2439912 300.352,47.996 C298.863993,49.7480088 297.08801,51.1399948 295.024,52.172 C292.95999,53.2040052 290.680012,53.72 288.184,53.72 Z M286.24,48.248 C288.112009,48.248 289.803992,47.852004 291.316,47.06 C292.828008,46.267996 294.123995,45.2120066 295.204,43.892 C296.284005,42.5719934 297.111997,41.0720084 297.688,39.392 C298.264003,37.7119916 298.552,35.9840089 298.552,34.208 C298.552,32.3359906 298.216003,30.5480085 297.544,28.844 C296.871997,27.1399915 295.960006,25.6520064 294.808,24.38 C293.655994,23.1079936 292.300008,22.1000037 290.74,21.356 C289.179992,20.6119963 287.488009,20.24 285.664,20.24 C284.511994,20.24 283.324006,20.4679977 282.1,20.924 C280.875994,21.3800023 279.724005,21.9799963 278.644,22.724 C277.563995,23.4680037 276.628004,24.3559948 275.836,25.388 C275.043996,26.4200052 274.528001,27.5119942 274.288,28.664 L274.288,39.392 C274.816003,40.6400062 275.487996,41.8039946 276.304,42.884 C277.120004,43.9640054 278.055995,44.899996 279.112,45.692 C280.168005,46.484004 281.295994,47.1079977 282.496,47.564 C283.696006,48.0200023 284.943994,48.248 286.24,48.248 Z" id="Adap" fill="#28536B"></path>
                <path d="M310.592,34.136 C310.592,31.4959868 311.047995,29.0000118 311.96,26.648 C312.872005,24.2959882 314.167992,22.2440088 315.848,20.492 C317.528008,18.7399912 319.531988,17.3480052 321.86,16.316 C324.188012,15.2839948 326.791986,14.768 329.672,14.768 C333.416019,14.768 336.643986,15.5959917 339.356,17.252 C342.068014,18.9080083 344.119993,21.1279861 345.512,23.912 L339.32,25.856 C338.359995,24.0799911 337.016009,22.7000049 335.288,21.716 C333.559991,20.7319951 331.640011,20.24 329.528,20.24 C327.799991,20.24 326.168008,20.5879965 324.632,21.284 C323.095992,21.9800035 321.776006,22.9519938 320.672,24.2 C319.567994,25.4480062 318.692003,26.9119916 318.044,28.592 C317.395997,30.2720084 317.072,32.1199899 317.072,34.136 C317.072,36.1040098 317.407997,37.9519914 318.08,39.68 C318.752003,41.4080086 319.651994,42.9079936 320.78,44.18 C321.908006,45.4520064 323.227992,46.4479964 324.74,47.168 C326.252008,47.8880036 327.871991,48.248 329.6,48.248 C330.704006,48.248 331.795995,48.0920016 332.876,47.78 C333.956005,47.4679984 334.939996,47.0480026 335.828,46.52 C336.716004,45.9919974 337.495997,45.3800035 338.168,44.684 C338.840003,43.9879965 339.319999,43.2320041 339.608,42.416 L345.8,44.288 C345.223997,45.680007 344.420005,46.9519942 343.388,48.104 C342.355995,49.2560058 341.144007,50.2399959 339.752,51.056 C338.359993,51.8720041 336.812009,52.5199976 335.108,53 C333.403991,53.4800024 331.616009,53.72 329.744,53.72 C326.911986,53.72 324.320012,53.1920053 321.968,52.136 C319.615988,51.0799947 317.600008,49.6640089 315.92,47.888 C314.239992,46.1119911 312.932005,44.0360119 311.996,41.66 C311.059995,39.2839881 310.592,36.7760132 310.592,34.136 Z M362.648,53.72 C360.871991,53.72 359.216008,53.420003 357.68,52.82 C356.143992,52.219997 354.812006,51.3920053 353.684,50.336 C352.555994,49.2799947 351.668003,48.0440071 351.02,46.628 C350.371997,45.2119929 350.048,43.6640084 350.048,41.984 C350.048,40.2559914 350.431996,38.6840071 351.2,37.268 C351.968004,35.8519929 353.059993,34.640005 354.476,33.632 C355.892007,32.623995 357.57199,31.8320029 359.516,31.256 C361.46001,30.6799971 363.583988,30.392 365.888,30.392 C367.712009,30.392 369.559991,30.5599983 371.432,30.896 C373.304009,31.2320017 374.959993,31.6879971 376.4,32.264 L376.4,29.24 C376.4,26.1679846 375.536009,23.7560088 373.808,22.004 C372.079991,20.2519912 369.632016,19.376 366.464,19.376 C362.671981,19.376 358.688021,20.8399854 354.512,23.768 L352.424,19.664 C357.272024,16.3999837 362.143976,14.768 367.04,14.768 C371.984025,14.768 375.835986,16.0879868 378.596,18.728 C381.356014,21.3680132 382.736,25.087976 382.736,29.888 L382.736,45.224 C382.736,46.7120074 383.407993,47.4799998 384.752,47.528 L384.752,53 C384.079997,53.0960005 383.528002,53.1679998 383.096,53.216 C382.663998,53.2640002 382.208002,53.288 381.728,53.288 C380.479994,53.288 379.484004,52.9160037 378.74,52.172 C377.995996,51.4279963 377.552001,50.5280053 377.408,49.472 L377.264,46.808 C375.583992,49.0640113 373.460013,50.7799941 370.892,51.956 C368.323987,53.1320059 365.576015,53.72 362.648,53.72 Z M364.304,48.968 C366.560011,48.968 368.65999,48.5480042 370.604,47.708 C372.54801,46.8679958 374.023995,45.752007 375.032,44.36 C375.944005,43.4479954 376.4,42.5120048 376.4,41.552 L376.4,36.008 C373.327985,34.807994 370.136017,34.208 366.824,34.208 C363.655984,34.208 361.07601,34.8799933 359.084,36.224 C357.09199,37.5680067 356.096,39.3199892 356.096,41.48 C356.096,42.5360053 356.299998,43.5199954 356.708,44.432 C357.116002,45.3440046 357.691996,46.1359966 358.436,46.808 C359.180004,47.4800034 360.055995,48.0079981 361.064,48.392 C362.072005,48.7760019 363.151994,48.968 364.304,48.968 Z M412.76,20.96 C409.591984,21.0560005 406.796012,21.8719923 404.372,23.408 C401.947988,24.9440077 400.232005,27.0799863 399.224,29.816 L399.224,53 L392.888,53 L392.888,15.416 L398.792,15.416 L398.792,24.128 C400.088006,21.535987 401.791989,19.436008 403.904,17.828 C406.016011,16.219992 408.271988,15.320001 410.672,15.128 L411.896,15.128 C412.232002,15.128 412.519999,15.1519998 412.76,15.2 L412.76,20.96 Z M434.792,53.72 C431.959986,53.72 429.368012,53.2040052 427.016,52.172 C424.663988,51.1399948 422.648008,49.7360089 420.968,47.96 C419.287992,46.1839911 417.980005,44.1080119 417.044,41.732 C416.107995,39.3559881 415.64,36.8480132 415.64,34.208 C415.64,31.5679868 416.107995,29.0720118 417.044,26.72 C417.980005,24.3679882 419.299991,22.3040089 421.004,20.528 C422.708009,18.7519911 424.735988,17.3480052 427.088,16.316 C429.440012,15.2839948 432.031986,14.768 434.864,14.768 C437.696014,14.768 440.275988,15.2959947 442.604,16.352 C444.932012,17.4080053 446.911992,18.8119912 448.544,20.564 C450.176008,22.3160088 451.435996,24.3559884 452.324,26.684 C453.212004,29.0120116 453.656,31.4239875 453.656,33.92 C453.656,34.4480026 453.644,34.9279978 453.62,35.36 C453.596,35.7920022 453.56,36.1279988 453.512,36.368 L422.336,36.368 C422.480001,38.2400094 422.911996,39.9439923 423.632,41.48 C424.352004,43.0160077 425.287994,44.3359945 426.44,45.44 C427.592006,46.5440055 428.899993,47.4079969 430.364,48.032 C431.828007,48.6560031 433.375992,48.968 435.008,48.968 C436.160006,48.968 437.287994,48.8120016 438.392,48.5 C439.496006,48.1879984 440.527995,47.7680026 441.488,47.24 C442.448005,46.7119974 443.299996,46.0640038 444.044,45.296 C444.788004,44.5279962 445.351998,43.6640048 445.736,42.704 L451.208,44.216 C450.583997,45.608007 449.732005,46.8799942 448.652,48.032 C447.571995,49.1840058 446.324007,50.1799958 444.908,51.02 C443.491993,51.8600042 441.920009,52.5199976 440.192,53 C438.463991,53.4800024 436.664009,53.72 434.792,53.72 Z M447.68,31.688 C447.535999,29.9119911 447.092004,28.2680076 446.348,26.756 C445.603996,25.2439924 444.668006,23.9600053 443.54,22.904 C442.411994,21.8479947 441.104007,21.020003 439.616,20.42 C438.127993,19.819997 436.544008,19.52 434.864,19.52 C433.183992,19.52 431.600007,19.819997 430.112,20.42 C428.623993,21.020003 427.316006,21.8599946 426.188,22.94 C425.059994,24.0200054 424.148003,25.3039926 423.452,26.792 C422.755997,28.2800074 422.336001,29.9119911 422.192,31.688 L447.68,31.688 Z" id="care" fill="#D87676"></path>
            </g>
        </g>
    </g>
</svg>