<?xml version="1.0" encoding="UTF-8"?><svg id="Layer_1" xmlns="http://www.w3.org/2000/svg" viewBox="0 0 588 140"><defs><style>.cls-1{fill:#00acd0;}.cls-2{fill:#1a1a1b;}.cls-3{opacity:.8;}</style></defs><g><path class="cls-1" d="M25.82,33.01L4.15,11.43C1.44,15.54-.15,20.46-.14,25.72L.01,103.57c0,5.27,1.62,10.18,4.34,14.28l21.58-21.68-.12-63.16Z"/><path class="cls-1" d="M96.31,25.53L117.89,3.87c-4.11-2.72-9.02-4.3-14.29-4.29L25.76-.27c-5.27,0-10.18,1.61-14.29,4.35l21.69,21.58,63.16-.12Z"/><path class="cls-1" d="M33.3,103.5l-21.58,21.67c4.11,2.71,9.02,4.3,14.29,4.28l77.83-.15c5.28-.02,10.18-1.62,14.28-4.35l-21.68-21.58-63.16,.12Z"/><path class="cls-1" d="M103.79,96.02l21.67,21.58c2.72-4.12,4.31-9.02,4.3-14.29l-.15-77.85c-.02-5.27-1.62-10.18-4.36-14.27l-21.59,21.67,.13,63.16Z"/></g><g><g><path class="cls-2" d="M377.07,49.41c-2.24,2.86-2.63,8.04-.92,11.44,2.29,4.44,7.05,7.21,11.8,7.46l19.98-.04c1.82,.13,3.71,.36,4.98,1.8,1.4,1.74,1.27,4.38,.61,6.11-.88,2.04-3.27,2.76-5.05,2.76l-29.79,.13s-2.68-.32-3.25,1.13c-.49,1.52-.65,3.14-.16,4.66,.3,.64,1.44,1.33,2.34,1.45l29.39-.1c3.83,.21,7.61-.65,10.53-3.2,3.91-3.19,5.02-8.82,3.6-13.33-1.7-4.01-5.73-8.57-11.98-8.56l-20.99-.1c-1.98-.07-3.44-.74-4.35-1.96-1.06-1.58-1.27-3.76-.38-5.74,.77-1.44,2.58-2.75,4.8-2.86l30.11-.1c1.16-.02,2.72-.06,3.25-1.28,.6-1.27,.6-3.23,0-4.76-.35-.69-1.24-1.05-1.98-1.2h-.02l-30.93,.06c-4.33,.07-8.42,2.04-11.59,6.26"/><path class="cls-2" d="M453.1,43.18c-5.02,.63-10.03,5.07-11.21,9.73-.91,4.18,.19,8.13,3.25,11.02,.53,.6,.4,1.23-.35,1.88-.42,.54-1.16,1.23-1.16,1.23-2.28,2.89-2.69,7.59-1.14,11.14,1.92,3.83,5.14,7.91,12.43,7.9h30.63s2.82,.13,2.76-1.84c0-.06,.23-3.1-.19-4.14-.23-.68-.89-1.07-1.81-1.21l-26.71,.02-2.35-.03c-2.77,.04-5.39,.06-6.9-2.1-1.14-1.79-1.15-4.72,0-6.51,1.05-1.53,2.91-1.89,4.34-2.04l24.01-.09c.66-.06,1.39-.23,1.77-.9,.77-1.5,.55-3.51,.3-4.89-.38-1.04-1.43-1.38-2.24-1.42h-23.26c-2.19-.09-3.66-.61-4.74-1.75-1.37-1.7-1.27-4.43-.52-6.2,.77-1.81,2.99-2.55,4.76-2.66l30.29-.1,.28-.03c1.04-.03,2.19-.09,2.7-1.18,.36-1.35,.57-3.42-.07-4.98-.43-.64-1.09-.88-1.81-1.02l-.04-.04-31.24,.07-1.77,.15Z"/><path class="cls-2" d="M509.15,43.07c-.98,.41-.98,1.39-1.12,1.96l.08,36.99c-.08,1.32-.16,2.89,1.28,3.7,1.55,.35,3.8,.5,5.46-.06,.73-.4,.94-1.13,1.06-1.7l.03-14.09,.24-1.07c.18-.43,.77-.58,1.23-.7l9.3-.06c3.83-.01,6.65,.96,9.14,3.21l12.68,13.29c1.25,1.33,3.47,1.42,5.28,1.35l1.74-.05c2.19-.28,1.32-2.06,1.18-2.28l-17.44-18.6c0-.06-.07-.19-.07-.3,0-.23,.07-.43,.13-.59,.04,0,15.89-17.19,15.89-17.19,.28-.37,1.74-1.84,1.74-2.68,0-1.24-1.13-1.4-1.55-1.44-.03,0-2.56-.27-4.56,.05-1.22,.21-2.11,.89-3.1,1.94l-11.32,12.22c-1.15,1.22-2.28,2.43-3.43,2.93-2.84,1.5-13.41,.79-15,.89,0,0-1.74,.04-2.01-1.06l-.17-14.41s-.02-1.94-1.19-2.28c-1.13-.35-4.67-.32-5.49,0"/><path class="cls-2" d="M219.11,51.84c-1.24-3.59-5.74-8.24-11.88-8.48l-31.48,.05s-2.34-.11-2.56,2.11l.07,38.36s0,2.22,1.87,2.56c0,0,3.94,.46,4.97-.3,.99-.71,.96-1.48,.96-2.18v-7.62s-.13-1.57,1.58-1.74l23.25-.1c1.7,0,3.33-.23,5-.83,4.28-1.85,8.82-6.09,8.96-11.21,0,0,.5-7.05-.73-10.62m-6.82,10.4c-.19,2.02-.92,3.3-2.32,4.1-1.15,.68-2.55,.8-3.62,.83l-23.72,.06c-1.5-.04-1.52-1.56-1.52-1.56l.06-13.75c.09-1.43,2.1-1.24,2.1-1.24l23.51,.02c2.3,.11,3.78,.82,4.6,2.12,1.54,1.63,.91,9.37,.91,9.42"/><path class="cls-2" d="M272.8,43.38l-20.24,.04c-6.87,.02-13.14,6.6-13.58,11.49v29.48c.06,.81,.41,1.58,.93,1.92,.75,.47,4.61,.32,5.28,.16,.62-.17,1.39-.77,1.48-1.72l.15-8.55s.03-1.52,1.5-1.63l27.38-.07s1.87-.09,2.22,1.38l.02,7.67c.03,.98,.04,2.09,1.21,2.61,1.85,.43,3.96,.43,5.4,0,.62-.37,1.05-.92,1.15-1.68l-.02-28.17c-.01-7.5-7.56-12.65-12.87-12.93m5.03,22.53c-.14,1.4-1.71,1.31-1.71,1.31l-27.92,.03c-1.37-.09-1.42-1.95-1.42-1.95l.02-9.17c-.03-2.7,3.51-5.4,6.33-5.42l18.97-.03c3.18,0,5.66,2.93,5.73,6.9v8.32Z"/><path class="cls-2" d="M352.7,71.86c-.75-.35-1.01-.81-1.01-1.52,.03-.85,.47-1.21,.77-1.42,3.27-2.24,2.83-10.06,2.65-13.62-.07-1.28-.66-2.9-1.11-4.16-1.82-4.16-6.09-7.59-11.64-7.9l-31.31,.06s-2.5-.15-2.62,2.09l.05,38.59c.06,.54,.06,1.38,.83,1.89,1.8,.87,4.34,.54,5.64,.22,.73-.3,1.11-.87,1.25-1.68l.07-8.27s.23-1.72,1.46-1.72l23.59-.07c1.47,.11,2.81,.22,3.84,.87,1.31,.82,2.04,2.06,2.19,3.89l.08,4.32,.27,1.53c.24,.68,.91,1.16,1.67,1.27,0,0,3.92,.35,4.99-.35,.88-.45,.88-1.72,.88-1.72,0,0,.06-3.24,.06-3.44,0-2.89-.14-7.57-2.59-8.87m-5.6-7.83c-.57,2.2-3.63,3.02-5.67,3.03-1.74,.03-23.92,.03-23.92,.03-.32-.08-.98-.23-1.21-1.03-.15-.79,.03-14.21,.03-14.21,.12-1.43,1.61-1.29,1.61-1.29l24.09-.02c1.75,.19,3.12,.55,4.13,1.69,.81,.97,1.09,2.17,1.09,3.4,0,.89,.02,7.64-.14,8.4"/></g><g class="cls-3"><path d="M194.03,128.63c0,.3-.11,.55-.34,.75-.23,.2-.5,.3-.82,.3-.5,0-.85-.24-1.05-.72l-2.12-4.84h-11.26l-2.15,4.84c-.2,.48-.55,.72-1.05,.72-.32,0-.6-.1-.84-.31-.24-.21-.36-.46-.36-.76,0-.16,.04-.32,.12-.48l8.55-19c.12-.28,.3-.49,.54-.63,.24-.14,.5-.21,.78-.21,.3,0,.57,.07,.81,.22,.24,.15,.42,.35,.54,.61l8.55,19c.08,.16,.12,.33,.12,.51Zm-14.7-6.54h9.47l-4.75-10.73-4.72,10.73Z"/><path d="M213.1,120.39v8.1c0,.38-.1,.67-.31,.88-.21,.21-.5,.31-.88,.31s-.68-.1-.9-.31c-.22-.21-.33-.5-.33-.88v-7.95c0-1.35-.26-2.34-.79-2.96-.53-.62-1.37-.93-2.52-.93-1.33,0-2.4,.41-3.2,1.22-.8,.82-1.2,1.92-1.2,3.32v7.29c0,.38-.1,.67-.31,.88s-.5,.31-.88,.31-.68-.1-.9-.31c-.22-.21-.33-.5-.33-.88v-12.61c0-.36,.11-.65,.33-.87s.52-.33,.9-.33c.36,0,.64,.11,.85,.33,.21,.22,.31,.5,.31,.84v1.52c.48-.9,1.15-1.58,2-2.05,.86-.47,1.83-.7,2.93-.7,3.49,0,5.23,1.92,5.23,5.77Z"/><path d="M236.12,128.46c-1.44-.88-2.55-2.12-3.33-3.73s-1.17-3.52-1.17-5.71,.38-4.13,1.15-5.75c.77-1.62,1.87-2.87,3.32-3.73,1.44-.87,3.15-1.3,5.12-1.3s3.68,.43,5.12,1.3c1.44,.87,2.55,2.11,3.32,3.73,.77,1.62,1.15,3.53,1.15,5.72s-.39,4.1-1.17,5.72c-.78,1.62-1.89,2.87-3.33,3.75-1.44,.88-3.14,1.31-5.09,1.31s-3.65-.44-5.09-1.31Zm10.31-3.03c1.24-1.5,1.87-3.65,1.87-6.44s-.62-4.93-1.85-6.42c-1.24-1.49-2.98-2.24-5.23-2.24s-3.97,.75-5.21,2.26c-1.25,1.5-1.87,3.64-1.87,6.41s.62,4.91,1.87,6.42c1.24,1.51,2.98,2.27,5.21,2.27s3.97-.75,5.21-2.26Z"/><path d="M268.97,115.58c.98,.64,1.73,1.53,2.27,2.67,.54,1.15,.81,2.48,.81,3.99s-.27,2.83-.81,3.96c-.54,1.13-1.29,2-2.26,2.61-.97,.62-2.1,.93-3.39,.93-1.14,0-2.13-.25-2.97-.75-.85-.5-1.49-1.21-1.93-2.12v7.02c0,.36-.1,.64-.31,.85s-.5,.31-.88,.31-.68-.11-.9-.33c-.22-.22-.33-.5-.33-.84v-18.02c0-.36,.11-.65,.33-.87s.52-.33,.9-.33,.67,.11,.88,.33c.21,.22,.31,.51,.31,.87v1.61c.44-.92,1.08-1.62,1.93-2.12,.85-.5,1.84-.75,2.97-.75,1.27,0,2.4,.32,3.38,.96Zm-.57,10.73c.78-.96,1.17-2.31,1.17-4.06s-.39-3.12-1.17-4.11c-.78-.99-1.87-1.48-3.29-1.48s-2.51,.48-3.27,1.43c-.77,.96-1.15,2.32-1.15,4.09s.38,3.14,1.15,4.11c.77,.97,1.86,1.45,3.27,1.45s2.51-.48,3.29-1.43Z"/><path d="M290.9,126.42c.16,.18,.24,.41,.24,.69,0,.5-.35,.96-1.05,1.37-.72,.42-1.47,.73-2.27,.94-.8,.21-1.57,.31-2.33,.31-2.25,0-4.03-.67-5.33-2-1.3-1.33-1.96-3.18-1.96-5.53,0-1.49,.29-2.81,.87-3.96,.58-1.15,1.39-2.04,2.44-2.67,1.05-.64,2.24-.96,3.57-.96,1.89,0,3.4,.62,4.51,1.85,1.12,1.24,1.67,2.91,1.67,5.02,0,.4-.08,.69-.24,.87-.16,.18-.42,.27-.78,.27h-9.62c.18,3.43,1.8,5.14,4.87,5.14,.78,0,1.44-.1,2-.31,.56-.21,1.15-.49,1.79-.85,.52-.3,.87-.45,1.05-.45,.22,0,.41,.09,.57,.27Zm-8.86-8.73c-.77,.8-1.22,1.92-1.36,3.38h8.46c-.04-1.47-.41-2.6-1.11-3.39-.7-.79-1.67-1.18-2.93-1.18s-2.3,.4-3.06,1.2Z"/><path d="M310.77,120.39v8.1c0,.38-.1,.67-.31,.88-.21,.21-.5,.31-.88,.31s-.68-.1-.9-.31c-.22-.21-.33-.5-.33-.88v-7.95c0-1.35-.26-2.34-.79-2.96-.53-.62-1.37-.93-2.52-.93-1.33,0-2.4,.41-3.2,1.22-.8,.82-1.2,1.92-1.2,3.32v7.29c0,.38-.1,.67-.31,.88s-.5,.31-.88,.31-.68-.1-.9-.31c-.22-.21-.33-.5-.33-.88v-12.61c0-.36,.11-.65,.33-.87s.52-.33,.9-.33c.36,0,.64,.11,.85,.33,.21,.22,.31,.5,.31,.84v1.52c.48-.9,1.15-1.58,2-2.05,.86-.47,1.83-.7,2.93-.7,3.49,0,5.23,1.92,5.23,5.77Z"/><path d="M330.42,129.22c-.23-.21-.34-.48-.34-.82v-18.82c0-.38,.11-.68,.33-.91,.22-.23,.52-.34,.9-.34s.68,.11,.9,.34c.22,.23,.33,.53,.33,.91v17.87h9.65c.36,0,.64,.09,.84,.27,.2,.18,.3,.44,.3,.78s-.1,.6-.3,.78c-.2,.18-.48,.27-.84,.27h-10.91c-.34,0-.62-.1-.85-.31Z"/><path d="M349.32,111.13c-.3-.28-.45-.65-.45-1.11s.15-.8,.45-1.08c.3-.28,.69-.42,1.17-.42s.87,.14,1.17,.42c.3,.28,.45,.64,.45,1.08s-.15,.83-.45,1.11c-.3,.28-.69,.42-1.17,.42s-.87-.14-1.17-.42Zm.28,18.24c-.23-.21-.34-.5-.34-.88v-12.61c0-.38,.11-.67,.34-.88,.23-.21,.52-.31,.88-.31s.65,.1,.87,.31c.22,.21,.33,.5,.33,.88v12.61c0,.4-.11,.7-.33,.9-.22,.2-.51,.3-.87,.3s-.65-.1-.88-.31Z"/><path d="M372.15,120.39v8.1c0,.38-.1,.67-.31,.88-.21,.21-.5,.31-.88,.31s-.68-.1-.9-.31c-.22-.21-.33-.5-.33-.88v-7.95c0-1.35-.26-2.34-.79-2.96-.53-.62-1.37-.93-2.53-.93-1.33,0-2.4,.41-3.2,1.22-.8,.82-1.2,1.92-1.2,3.32v7.29c0,.38-.1,.67-.31,.88-.21,.21-.5,.31-.88,.31s-.68-.1-.9-.31c-.22-.21-.33-.5-.33-.88v-12.61c0-.36,.11-.65,.33-.87,.22-.22,.52-.33,.9-.33,.36,0,.64,.11,.85,.33,.21,.22,.31,.5,.31,.84v1.52c.48-.9,1.15-1.58,2-2.05,.86-.47,1.83-.7,2.93-.7,3.49,0,5.23,1.92,5.23,5.77Z"/><path d="M391.81,126.42c.16,.18,.24,.41,.24,.69,0,.5-.35,.96-1.05,1.37-.72,.42-1.47,.73-2.27,.94-.8,.21-1.57,.31-2.33,.31-2.25,0-4.03-.67-5.33-2-1.31-1.33-1.96-3.18-1.96-5.53,0-1.49,.29-2.81,.87-3.96,.58-1.15,1.39-2.04,2.44-2.67,1.05-.64,2.24-.96,3.57-.96,1.89,0,3.4,.62,4.51,1.85,1.12,1.24,1.67,2.91,1.67,5.02,0,.4-.08,.69-.24,.87-.16,.18-.42,.27-.78,.27h-9.62c.18,3.43,1.8,5.14,4.87,5.14,.78,0,1.44-.1,2-.31,.56-.21,1.16-.49,1.79-.85,.52-.3,.87-.45,1.05-.45,.22,0,.41,.09,.57,.27Zm-8.86-8.73c-.77,.8-1.22,1.92-1.36,3.38h8.46c-.04-1.47-.41-2.6-1.11-3.39-.7-.79-1.67-1.18-2.93-1.18s-2.3,.4-3.06,1.2Z"/><path d="M414.37,128.47c-1.45-.87-2.57-2.11-3.36-3.73-.79-1.62-1.18-3.54-1.18-5.75s.39-4.1,1.18-5.72c.79-1.62,1.91-2.87,3.36-3.73,1.45-.87,3.18-1.3,5.17-1.3,1.33,0,2.59,.21,3.78,.64,1.18,.43,2.22,1.04,3.09,1.84,.32,.3,.48,.65,.48,1.05,0,.28-.08,.52-.24,.73-.16,.21-.35,.31-.57,.31-.24,0-.53-.11-.87-.33-1.02-.8-1.94-1.35-2.76-1.67-.83-.32-1.78-.48-2.85-.48-2.31,0-4.09,.75-5.33,2.26-1.25,1.5-1.87,3.64-1.87,6.41s.62,4.94,1.87,6.44c1.24,1.5,3.02,2.26,5.33,2.26,1.06,0,2-.16,2.84-.48,.84-.32,1.76-.88,2.78-1.67,.34-.22,.63-.33,.87-.33,.22,0,.41,.1,.57,.3,.16,.2,.24,.45,.24,.75,0,.4-.16,.75-.48,1.05-.88,.8-1.91,1.41-3.09,1.84-1.19,.43-2.45,.64-3.78,.64-1.99,0-3.72-.43-5.17-1.3Z"/><path d="M435.98,128.81c-1.05-.62-1.85-1.5-2.42-2.64-.57-1.15-.85-2.47-.85-3.99s.28-2.84,.85-3.99c.57-1.15,1.37-2.03,2.42-2.64,1.05-.62,2.26-.93,3.63-.93s2.59,.31,3.65,.93c1.06,.62,1.87,1.5,2.44,2.64,.57,1.15,.85,2.48,.85,3.99s-.28,2.84-.85,3.99c-.57,1.15-1.38,2.03-2.44,2.64-1.06,.62-2.27,.93-3.65,.93s-2.58-.31-3.63-.93Zm6.93-2.49c.77-.95,1.15-2.33,1.15-4.14s-.39-3.14-1.17-4.11c-.78-.97-1.87-1.45-3.29-1.45s-2.51,.48-3.29,1.45c-.78,.97-1.17,2.34-1.17,4.11s.38,3.17,1.15,4.12c.77,.96,1.87,1.43,3.3,1.43s2.53-.47,3.3-1.42Z"/><path d="M474.6,120.39v8.1c0,.38-.11,.67-.33,.88-.22,.21-.51,.31-.87,.31s-.65-.1-.88-.31c-.23-.21-.34-.5-.34-.88v-8.04c0-1.33-.24-2.3-.72-2.9-.48-.6-1.23-.9-2.24-.9-1.22,0-2.17,.41-2.87,1.22-.7,.82-1.05,1.92-1.05,3.32v7.29c0,.38-.11,.67-.34,.88-.23,.21-.52,.31-.88,.31s-.65-.1-.87-.31c-.22-.21-.33-.5-.33-.88v-8.04c0-1.33-.24-2.3-.72-2.9s-1.24-.9-2.27-.9c-1.2,0-2.15,.41-2.85,1.22-.71,.82-1.06,1.92-1.06,3.32v7.29c0,.38-.11,.67-.33,.88-.22,.21-.51,.31-.87,.31s-.65-.1-.88-.31c-.23-.21-.34-.5-.34-.88v-12.61c0-.36,.11-.65,.34-.87,.23-.22,.52-.33,.88-.33,.34,0,.62,.1,.84,.31,.22,.21,.33,.49,.33,.85v1.43c.44-.86,1.05-1.51,1.82-1.97,.78-.46,1.67-.69,2.69-.69,2.27,0,3.75,.96,4.45,2.87,.42-.88,1.06-1.57,1.91-2.09,.86-.52,1.83-.78,2.93-.78,3.23,0,4.84,1.92,4.84,5.77Z"/><path d="M493.13,115.58c.98,.64,1.73,1.53,2.27,2.67,.54,1.15,.81,2.48,.81,3.99s-.27,2.83-.81,3.96c-.54,1.13-1.29,2-2.26,2.61-.97,.62-2.1,.93-3.39,.93-1.14,0-2.13-.25-2.97-.75-.85-.5-1.49-1.21-1.93-2.12v7.02c0,.36-.1,.64-.31,.85-.21,.21-.5,.31-.88,.31s-.68-.11-.9-.33c-.22-.22-.33-.5-.33-.84v-18.02c0-.36,.11-.65,.33-.87,.22-.22,.52-.33,.9-.33s.67,.11,.88,.33c.21,.22,.31,.51,.31,.87v1.61c.44-.92,1.08-1.62,1.93-2.12,.85-.5,1.84-.75,2.97-.75,1.27,0,2.4,.32,3.38,.96Zm-.57,10.73c.78-.96,1.17-2.31,1.17-4.06s-.39-3.12-1.17-4.11c-.78-.99-1.87-1.48-3.29-1.48s-2.51,.48-3.27,1.43c-.77,.96-1.15,2.32-1.15,4.09s.38,3.14,1.15,4.11c.77,.97,1.86,1.45,3.27,1.45s2.51-.48,3.29-1.43Z"/><path d="M514.64,120.36v8.13c0,.36-.1,.65-.31,.87-.21,.22-.49,.33-.85,.33s-.65-.11-.87-.33c-.22-.22-.33-.51-.33-.87v-1.43c-.38,.86-.96,1.52-1.73,1.99-.78,.47-1.67,.7-2.69,.7-.94,0-1.8-.19-2.58-.57-.79-.38-1.41-.91-1.87-1.58-.46-.68-.69-1.42-.69-2.24,0-1.1,.28-1.95,.84-2.55,.56-.61,1.47-1.05,2.75-1.31,1.27-.27,3.05-.4,5.32-.4h.66v-.99c0-1.2-.24-2.07-.73-2.63-.49-.56-1.28-.84-2.38-.84-1.35,0-2.73,.37-4.12,1.11-.54,.34-.92,.51-1.14,.51-.24,0-.44-.09-.6-.27-.16-.18-.24-.41-.24-.69s.08-.52,.25-.73c.17-.21,.44-.42,.82-.64,.7-.4,1.49-.71,2.38-.94,.89-.23,1.77-.34,2.64-.34,3.65,0,5.47,1.91,5.47,5.74Zm-3.51,6.26c.77-.81,1.15-1.85,1.15-3.12v-.87h-.54c-1.75,0-3.09,.07-4,.22-.92,.15-1.57,.4-1.96,.75-.39,.35-.58,.86-.58,1.54,0,.78,.28,1.42,.85,1.93,.57,.51,1.28,.76,2.14,.76,1.2,0,2.18-.4,2.94-1.21Z"/><path d="M535.02,120.39v8.1c0,.38-.1,.67-.31,.88-.21,.21-.5,.31-.88,.31s-.68-.1-.9-.31c-.22-.21-.33-.5-.33-.88v-7.95c0-1.35-.26-2.34-.79-2.96-.53-.62-1.37-.93-2.52-.93-1.33,0-2.4,.41-3.2,1.22-.8,.82-1.2,1.92-1.2,3.32v7.29c0,.38-.1,.67-.31,.88-.21,.21-.5,.31-.88,.31s-.68-.1-.9-.31c-.22-.21-.33-.5-.33-.88v-12.61c0-.36,.11-.65,.33-.87,.22-.22,.52-.33,.9-.33,.36,0,.64,.11,.85,.33,.21,.22,.31,.5,.31,.84v1.52c.48-.9,1.15-1.58,2-2.05,.86-.47,1.83-.7,2.93-.7,3.49,0,5.23,1.92,5.23,5.77Z"/><path d="M554.38,114.71c.3,0,.57,.1,.81,.3,.24,.2,.36,.45,.36,.75,0,.18-.04,.34-.12,.48l-8.4,18.11c-.1,.22-.24,.39-.43,.51-.19,.12-.38,.18-.58,.18-.3,0-.56-.09-.79-.28-.23-.19-.34-.43-.34-.73,0-.16,.04-.32,.12-.48l2.09-4.51-5.92-12.79c-.08-.14-.12-.29-.12-.45,0-.3,.13-.56,.4-.78,.27-.22,.56-.33,.88-.33,.2,0,.39,.06,.58,.18,.19,.12,.33,.29,.43,.51l4.99,11.2,4.99-11.15c.22-.48,.57-.72,1.05-.72Z"/></g></g></svg>