<?xml version="1.0" encoding="utf-8"?>
<!-- Generator: Adobe Illustrator 27.1.0, SVG Export Plug-In . SVG Version: 6.00 Build 0)  -->
<svg version="1.1" id="Laag_1" xmlns="http://www.w3.org/2000/svg" xmlns:xlink="http://www.w3.org/1999/xlink" x="0px" y="0px"
	 viewBox="0 0 552.76 156.97" style="enable-background:new 0 0 552.76 156.97;" xml:space="preserve">
<style type="text/css">
	.st0{fill:#2D3D4B;}
	.st1{fill:#908CC3;}
	.st2{fill:url(#SVGID_1_);}
	.st3{fill:url(#SVGID_00000177464125675907399340000000446900995727527574_);}
</style>
<g>
	<g>
		<g>
			<path class="st0" d="M177.92,44.72c-10.11-3.76-14.23-7.06-14.23-12.11c0-5.76,5.41-8.82,11.41-8.82
				c6.58,0,11.69,1.25,17.11,3.01c0.45,0.15,0.91-0.11,1.01-0.58l2.63-12.36c0.08-0.36-0.14-0.77-0.49-0.9
				c-6.36-2.42-12.77-3.99-20.26-3.99c-15.17,0-29.28,7.99-29.28,24.57c0,11.64,8.7,18.81,21.52,23.75c10.93,4,14.7,6.58,14.7,12.23
				c0,6.58-6.11,9.29-12.58,9.29c-7.08,0-14.66-2.06-20.85-4.03c-0.45-0.14-0.89,0.12-0.99,0.58l-2.6,12.23
				c-0.08,0.35,0.14,0.76,0.47,0.89c6.94,2.76,14.67,5.17,23.97,5.14c15.64-0.05,30.45-7.88,30.45-25.28
				C199.9,57.07,191.32,49.9,177.92,44.72"/>
			<path class="st0" d="M465.26,71.54c0,0.11-0.04,0.29-0.1,0.39c-3.08,5.74-8.67,7.81-14.6,7.81c-8.11,0-14.7-7.06-14.7-16.7
				c0-9.76,6.58-16.7,14.7-16.7c5.8,0,10.73,1.43,14.34,3.76c0.2,0.13,0.36,0.43,0.36,0.66V71.54z M481.41,33.65h-15.37
				c-0.43,0-0.78,0.35-0.78,0.78v2.86l-0.59,0.35c-3.76-3.06-8.82-5.17-16.23-5.17c-16.58,0-29.51,13.52-29.51,30.57
				c0,17.05,12.46,30.57,28.34,30.57c3.83,0,7.37-0.85,10.31-2.19c1.9-0.86,4.78-3.2,6.03-6.13c0.11-0.26,0.42-0.48,0.7-0.49l0.95,0
				v0.78l0,6.07c0,0.43,0.35,0.78,0.78,0.78h15.37c0.43,0,0.78-0.35,0.78-0.78V34.43C482.19,34,481.84,33.65,481.41,33.65"/>
			<path class="st0" d="M319.01,32.5c-8.82,0-15.64,3.41-19.64,8.11l-0.7-0.23v-5.92c0-0.43-0.35-0.78-0.78-0.78h-15.37
				c-0.43,0-0.78,0.35-0.78,0.78v57.23c0,0.43,0.35,0.78,0.78,0.78h15.37c0.43,0,0.78-0.35,0.78-0.78V51.86
				c0-0.17,0.1-0.42,0.21-0.55c3.17-3.37,7.9-4.94,13.07-4.94c6.23,0,11.41,3.53,11.41,11.76v33.55c0,0.43,0.35,0.78,0.78,0.78
				h15.37c0.43,0,0.78-0.35,0.78-0.78V57.19C340.29,40.84,330.65,32.5,319.01,32.5"/>
			<path class="st0" d="M393.55,73.15c0,0.14-0.07,0.36-0.15,0.47c-3.19,4.43-8.28,6.14-13.61,6.14c-8.11,0-14.7-7.05-14.7-16.7
				c0-9.76,6.58-16.7,14.7-16.7c5.2,0,9.86,1.09,13.35,2.95c0.23,0.12,0.41,0.44,0.41,0.69V73.15z M410.46,11.17
				c0-0.5-0.41-0.85-0.91-0.77l-0.03,0l0,0l-15.35,2.53c-0.36,0.06-0.65,0.4-0.65,0.77l0,22.1l0.02-0.04v0.07
				c0,0.79-0.54,1.08-1.2,0.65c-3.86-2.54-8.4-3.98-14.67-3.98c-16.58,0-29.51,13.52-29.51,30.57c0,15.5,10.31,28.05,24.11,30.21
				c0.4,0.06,0.78,0.15,1.18,0.19c1,0.11,2.01,0.17,3.04,0.17c0.51,0,1.01-0.05,1.51-0.12c3-0.23,5.78-0.97,8.14-2.09
				c1.83-0.86,4.6-3.19,5.81-6.12c0.11-0.26,0.42-0.49,0.7-0.5l0.9-0.02v4.79v0v2.1c0,0.43,0.35,0.78,0.78,0.78h15.24l0.12,0
				c0.43,0,0.78-0.35,0.78-0.78L410.46,11.17z"/>
			<path class="st0" d="M551.96,33.67h-17c-0.3,0-0.64,0.24-0.74,0.52l-14.52,41.75c-0.1,0.29-0.43,0.52-0.74,0.52l-0.85,0
				l1.06-14.43c0.01-0.1-0.02-0.25-0.05-0.34L508.5,34.17c-0.11-0.27-0.43-0.5-0.73-0.5h-16.86c-0.65,0-0.97,0.49-0.72,1.09
				l23.83,55.59c0.07,0.16,0.07,0.43,0.01,0.59l-3.13,7.96c-0.01,0.02-0.02,0.04-0.03,0.06c-2.94,6.21-6.7,9.05-15.27,9.02
				c-0.3,0-0.88-0.03-1.41-0.08c-0.37-0.03-0.74,0.25-0.82,0.61l-2.57,11.99c-0.1,0.45,0.19,0.88,0.65,0.94
				c1.22,0.16,2.98,0.29,4.97,0.29c18.58,0,25.87-8.35,30.45-20.69l25.81-66.31C552.91,34.15,552.59,33.67,551.96,33.67"/>
			<path class="st0" d="M252.63,71.56c0,0.11-0.04,0.29-0.1,0.39c-3.08,5.74-8.67,7.81-14.6,7.81c-8.11,0-14.7-7.06-14.7-16.7
				c0-9.76,6.58-16.7,14.7-16.7c5.8,0,10.73,1.43,14.34,3.76c0.2,0.13,0.36,0.43,0.36,0.66V71.56z M268.78,33.67h-15.37
				c-0.43,0-0.78,0.35-0.78,0.78v2.86l-0.59,0.35c-3.76-3.06-8.82-5.17-16.23-5.17c-16.58,0-29.51,13.52-29.51,30.57
				c0,17.05,12.46,30.57,28.34,30.57c3.83,0,7.37-0.85,10.31-2.19c1.9-0.86,4.78-3.2,6.03-6.13c0.11-0.26,0.42-0.48,0.7-0.49l0.95,0
				v0.78l0,6.07c0,0.43,0.35,0.78,0.78,0.78h15.37c0.43,0,0.78-0.35,0.78-0.78V34.45C269.56,34.02,269.21,33.67,268.78,33.67"/>
		</g>
		<g>
			<rect x="226.41" y="130.4" class="st0" width="2.36" height="20.49"/>
			<path class="st0" d="M219.54,136.21c-0.6-0.36-1.23-0.6-1.87-0.72s-1.21-0.18-1.71-0.18c-0.77,0-1.56,0.11-2.36,0.32
				c-0.8,0.21-1.53,0.58-2.2,1.1c-0.67,0.52-1.21,1.25-1.61,2.19l2.24,0.8c0.26-0.56,0.71-1.09,1.35-1.58
				c0.64-0.49,1.52-0.74,2.65-0.74c1.09,0,1.9,0.27,2.44,0.82c0.54,0.55,0.81,1.31,0.81,2.3v0.08c0,0.38-0.14,0.65-0.41,0.8
				c-0.27,0.15-0.7,0.26-1.28,0.33c-0.58,0.06-1.34,0.16-2.28,0.28c-0.71,0.09-1.42,0.22-2.13,0.38c-0.7,0.16-1.35,0.39-1.93,0.71
				c-0.58,0.31-1.04,0.74-1.39,1.3c-0.35,0.55-0.52,1.27-0.52,2.15c0,1,0.23,1.85,0.7,2.56c0.47,0.7,1.1,1.24,1.89,1.61
				c0.79,0.37,1.68,0.56,2.65,0.56c0.89,0,1.65-0.13,2.27-0.4c0.62-0.27,1.12-0.59,1.49-0.97c0.37-0.38,0.64-0.74,0.8-1.07h0.12
				v2.08h2.36v-10.13c0-1.22-0.2-2.19-0.6-2.92C220.64,137.12,220.14,136.57,219.54,136.21z M219.28,145.33
				c0,0.64-0.17,1.25-0.5,1.83c-0.33,0.58-0.82,1.05-1.46,1.42c-0.64,0.37-1.43,0.55-2.37,0.55c-0.94,0-1.72-0.21-2.33-0.62
				c-0.61-0.42-0.92-1.04-0.92-1.86c0-0.6,0.16-1.08,0.48-1.43c0.32-0.35,0.75-0.61,1.28-0.79c0.53-0.18,1.1-0.31,1.72-0.39
				c0.25-0.03,0.59-0.07,1-0.12c0.41-0.05,0.83-0.11,1.27-0.18c0.44-0.07,0.82-0.15,1.16-0.25c0.34-0.1,0.56-0.2,0.66-0.33V145.33z"
				/>
			<path class="st0" d="M169.09,129.76c-0.46,0-0.86,0.16-1.19,0.47c-0.33,0.31-0.49,0.69-0.49,1.13c0,0.44,0.16,0.82,0.49,1.13
				c0.33,0.31,0.73,0.47,1.19,0.47c0.46,0,0.86-0.16,1.19-0.47c0.33-0.31,0.5-0.69,0.5-1.13c0-0.44-0.17-0.82-0.5-1.13
				C169.95,129.91,169.55,129.76,169.09,129.76z"/>
			<path class="st0" d="M244.28,137.02c-0.64-0.6-1.35-1.03-2.13-1.29c-0.78-0.27-1.57-0.4-2.37-0.4c-1.39,0-2.6,0.34-3.64,1.02
				c-1.04,0.68-1.84,1.62-2.42,2.82c-0.58,1.2-0.86,2.59-0.86,4.17c0,1.57,0.29,2.95,0.86,4.14c0.58,1.18,1.4,2.1,2.47,2.76
				c1.07,0.66,2.35,0.99,3.83,0.99c1.04,0,1.98-0.16,2.81-0.48c0.83-0.32,1.53-0.78,2.1-1.36c0.57-0.58,0.97-1.26,1.21-2.04
				l-2.28-0.64c-0.2,0.53-0.48,0.98-0.85,1.34c-0.37,0.36-0.8,0.62-1.31,0.8c-0.5,0.18-1.07,0.27-1.69,0.27
				c-0.95,0-1.79-0.21-2.51-0.63c-0.72-0.42-1.28-1.03-1.69-1.83c-0.36-0.73-0.56-1.61-0.59-2.63h11.15v-1
				c0-1.43-0.19-2.64-0.57-3.62C245.43,138.4,244.92,137.61,244.28,137.02z M235.24,141.97c0.05-0.71,0.22-1.39,0.53-2.02
				c0.37-0.74,0.89-1.34,1.58-1.81c0.68-0.46,1.5-0.7,2.44-0.7c0.85,0,1.6,0.2,2.23,0.59c0.63,0.39,1.12,0.93,1.46,1.61
				c0.34,0.68,0.52,1.45,0.52,2.32H235.24z"/>
			<rect x="167.89" y="135.52" class="st0" width="2.36" height="15.37"/>
			<path class="st0" d="M159.19,131.62c-1.41-0.82-3.12-1.23-5.1-1.23h-6.6v20.49h6.32c2.08,0,3.85-0.41,5.3-1.24
				c1.45-0.82,2.56-2,3.32-3.54c0.76-1.54,1.14-3.37,1.14-5.51c0-2.12-0.38-3.94-1.13-5.47
				C161.69,133.61,160.6,132.44,159.19,131.62z M160.35,144.92c-0.55,1.21-1.38,2.14-2.49,2.79c-1.11,0.65-2.52,0.98-4.21,0.98
				h-3.68V132.6h3.96c1.6,0,2.94,0.32,4.01,0.97c1.07,0.64,1.88,1.56,2.42,2.76c0.54,1.2,0.81,2.62,0.81,4.28
				C161.17,142.27,160.89,143.71,160.35,144.92z"/>
			<path class="st0" d="M185.53,137.96h-0.24c-0.17-0.27-0.42-0.61-0.74-1.03c-0.32-0.42-0.77-0.79-1.36-1.12
				c-0.59-0.33-1.39-0.5-2.39-0.5c-1.29,0-2.44,0.32-3.42,0.97c-0.99,0.64-1.76,1.55-2.31,2.72c-0.55,1.17-0.83,2.54-0.83,4.12
				c0,1.6,0.29,2.96,0.86,4.08c0.57,1.12,1.35,1.97,2.33,2.56c0.98,0.59,2.1,0.88,3.34,0.88c1,0,1.8-0.16,2.39-0.48
				c0.59-0.32,1.04-0.68,1.36-1.09c0.32-0.41,0.56-0.75,0.73-1.03h0.2v3.12c0,1.28-0.4,2.22-1.21,2.82c-0.81,0.6-1.83,0.9-3.07,0.9
				c-0.93,0-1.68-0.14-2.25-0.41c-0.57-0.27-1.02-0.59-1.35-0.95c-0.33-0.36-0.6-0.69-0.81-0.97l-1.88,1.32
				c0.32,0.53,0.75,1.03,1.3,1.51c0.54,0.47,1.23,0.85,2.05,1.14c0.82,0.29,1.8,0.44,2.94,0.44c1.23,0,2.34-0.2,3.35-0.59
				c1-0.39,1.8-1,2.4-1.83c0.6-0.83,0.9-1.91,0.9-3.23v-15.81h-2.28V137.96z M184.97,146.01c-0.34,0.81-0.84,1.44-1.49,1.87
				c-0.65,0.43-1.45,0.65-2.4,0.65c-0.99,0-1.81-0.23-2.48-0.7c-0.66-0.46-1.16-1.1-1.5-1.92c-0.34-0.82-0.51-1.76-0.51-2.83
				c0-1.04,0.17-1.99,0.49-2.84c0.33-0.85,0.83-1.53,1.49-2.04c0.66-0.51,1.5-0.76,2.5-0.76c0.96,0,1.77,0.24,2.42,0.72
				c0.65,0.48,1.15,1.14,1.48,1.99c0.33,0.85,0.5,1.82,0.5,2.93C185.48,144.22,185.32,145.19,184.97,146.01z"/>
			<path class="st0" d="M193.79,129.76c-0.46,0-0.86,0.16-1.19,0.47c-0.33,0.31-0.49,0.69-0.49,1.13c0,0.44,0.16,0.82,0.49,1.13
				c0.33,0.31,0.73,0.47,1.19,0.47s0.86-0.16,1.19-0.47c0.33-0.31,0.5-0.69,0.5-1.13c0-0.44-0.17-0.82-0.5-1.13
				C194.65,129.91,194.25,129.76,193.79,129.76z"/>
			<path class="st0" d="M205.7,148.76c-0.17,0.03-0.38,0.05-0.64,0.05c-0.35,0-0.68-0.06-0.99-0.17c-0.31-0.11-0.56-0.33-0.76-0.66
				c-0.2-0.33-0.3-0.83-0.3-1.5v-8.97h3.28v-2h-3.28v-3.68h-2.36v3.68h-2.32v2h2.32v9.61c0,0.89,0.21,1.63,0.62,2.22
				c0.42,0.59,0.94,1.02,1.58,1.31c0.64,0.29,1.29,0.43,1.96,0.43c0.44,0,0.8-0.03,1.09-0.09c0.29-0.06,0.51-0.13,0.67-0.19
				l-0.48-2.12C206,148.71,205.87,148.73,205.7,148.76z"/>
			<rect x="192.59" y="135.52" class="st0" width="2.36" height="15.37"/>
			<path class="st0" d="M397.16,135.96c-0.78-0.42-1.69-0.64-2.73-0.64c-1.16,0-2.11,0.24-2.84,0.72c-0.73,0.48-1.28,1.11-1.64,1.89
				h-0.2v-2.4h-2.28v15.37h2.36v-9.25c0-0.89,0.17-1.65,0.51-2.28c0.34-0.63,0.81-1.1,1.4-1.43c0.59-0.33,1.26-0.49,2.02-0.49
				c1.09,0,1.95,0.34,2.58,1.02c0.63,0.68,0.94,1.62,0.94,2.83v9.61h2.36v-9.77c0-1.31-0.22-2.39-0.65-3.25
				C398.55,137.02,397.94,136.38,397.16,135.96z"/>
			<path class="st0" d="M381.5,129.76c-0.46,0-0.86,0.16-1.19,0.47c-0.33,0.31-0.5,0.69-0.5,1.13c0,0.44,0.17,0.82,0.5,1.13
				c0.33,0.31,0.73,0.47,1.19,0.47c0.46,0,0.86-0.16,1.19-0.47c0.33-0.31,0.49-0.69,0.49-1.13c0-0.44-0.17-0.82-0.49-1.13
				C382.36,129.91,381.96,129.76,381.5,129.76z"/>
			<path class="st0" d="M414.85,137.96h-0.2c-0.17-0.27-0.42-0.61-0.73-1.03c-0.31-0.42-0.76-0.79-1.34-1.12s-1.38-0.5-2.38-0.5
				c-1.29,0-2.43,0.32-3.42,0.97c-0.99,0.65-1.76,1.56-2.31,2.75c-0.55,1.19-0.83,2.59-0.83,4.2c0,1.63,0.28,3.04,0.83,4.23
				c0.55,1.19,1.32,2.11,2.3,2.76c0.98,0.65,2.11,0.98,3.39,0.98c0.99,0,1.78-0.17,2.37-0.49c0.59-0.33,1.05-0.71,1.37-1.13
				c0.32-0.42,0.57-0.77,0.74-1.06h0.28v2.36h2.28V130.4h-2.36V137.96z M414.38,146.27c-0.34,0.88-0.84,1.57-1.49,2.07
				c-0.65,0.5-1.45,0.75-2.4,0.75c-0.99,0-1.81-0.26-2.48-0.79c-0.66-0.52-1.16-1.23-1.5-2.12c-0.34-0.89-0.5-1.88-0.5-2.98
				c0-1.08,0.16-2.06,0.49-2.93c0.33-0.87,0.83-1.56,1.49-2.07c0.66-0.51,1.5-0.77,2.5-0.77c0.96,0,1.77,0.24,2.42,0.73
				c0.65,0.48,1.15,1.16,1.48,2.02c0.33,0.86,0.5,1.87,0.5,3.02C414.89,144.37,414.72,145.39,414.38,146.27z"/>
			<rect x="380.3" y="135.52" class="st0" width="2.36" height="15.37"/>
			<path class="st0" d="M460.07,143.97c-0.67-0.68-1.7-1.19-3.07-1.53l-2.28-0.56c-0.91-0.23-1.57-0.51-2-0.85
				c-0.43-0.34-0.64-0.8-0.64-1.39c0-0.66,0.31-1.21,0.94-1.64c0.62-0.43,1.41-0.64,2.35-0.64c0.69,0,1.25,0.11,1.69,0.33
				c0.44,0.22,0.79,0.5,1.05,0.84c0.26,0.34,0.45,0.68,0.59,1.03l2.12-0.6c-0.37-1.09-0.99-1.97-1.86-2.64c-0.87-0.67-2.07-1-3.59-1
				c-1.08,0-2.05,0.19-2.9,0.57c-0.85,0.38-1.52,0.9-2.01,1.57c-0.49,0.67-0.74,1.43-0.74,2.3c0,1.06,0.33,1.94,0.99,2.65
				c0.66,0.7,1.69,1.22,3.1,1.56l2.56,0.6c0.77,0.18,1.35,0.45,1.72,0.82c0.37,0.36,0.56,0.81,0.56,1.35c0,0.66-0.33,1.23-0.98,1.7
				c-0.65,0.47-1.53,0.71-2.63,0.71c-0.97,0-1.75-0.21-2.35-0.62c-0.6-0.41-1-1.03-1.22-1.86l-2.24,0.56
				c0.27,1.31,0.92,2.3,1.95,2.98c1.03,0.68,2.33,1.02,3.89,1.02c1.19,0,2.24-0.2,3.14-0.6c0.9-0.4,1.6-0.95,2.11-1.64
				c0.5-0.69,0.76-1.48,0.76-2.36C461.09,145.53,460.75,144.66,460.07,143.97z"/>
			<path class="st0" d="M373.18,136.29c-0.99-0.65-2.13-0.97-3.42-0.97c-1,0-1.79,0.17-2.38,0.5s-1.03,0.7-1.34,1.12
				c-0.31,0.42-0.55,0.76-0.73,1.03h-0.2v-7.56h-2.36v20.49h2.28v-2.36h0.28c0.17,0.28,0.42,0.63,0.74,1.06
				c0.32,0.42,0.78,0.8,1.37,1.13c0.59,0.33,1.38,0.49,2.37,0.49c1.28,0,2.41-0.33,3.39-0.98c0.98-0.65,1.75-1.57,2.3-2.76
				c0.55-1.19,0.83-2.6,0.83-4.23c0-1.61-0.28-3.01-0.83-4.2C374.94,137.86,374.17,136.94,373.18,136.29z M373.46,146.18
				c-0.34,0.89-0.84,1.6-1.5,2.12c-0.66,0.52-1.49,0.79-2.48,0.79c-0.95,0-1.75-0.25-2.4-0.75c-0.65-0.5-1.15-1.19-1.49-2.07
				c-0.34-0.88-0.51-1.91-0.51-3.07c0-1.15,0.17-2.15,0.5-3.02c0.33-0.86,0.83-1.54,1.48-2.02c0.65-0.48,1.46-0.73,2.42-0.73
				c1,0,1.83,0.26,2.5,0.77c0.66,0.51,1.16,1.2,1.49,2.07c0.33,0.87,0.49,1.85,0.49,2.93C373.96,144.3,373.8,145.29,373.46,146.18z"
				/>
			<path class="st0" d="M445.46,135.28c-0.92,0-1.75,0.24-2.48,0.71c-0.73,0.47-1.24,1.09-1.52,1.85h-0.16v-2.32h-2.28v15.37h2.36
				v-9.73c0-0.69,0.17-1.31,0.51-1.86c0.34-0.54,0.8-0.97,1.38-1.28c0.58-0.31,1.25-0.47,2-0.47c0.31,0,0.61,0.02,0.9,0.07
				c0.28,0.04,0.47,0.07,0.55,0.1v-2.4c-0.13-0.01-0.33-0.02-0.59-0.03C445.85,135.28,445.63,135.28,445.46,135.28z"/>
			<path class="st0" d="M432.84,137.02c-0.64-0.6-1.35-1.03-2.13-1.29c-0.78-0.27-1.57-0.4-2.37-0.4c-1.39,0-2.6,0.34-3.64,1.02
				c-1.04,0.68-1.84,1.62-2.42,2.82c-0.58,1.2-0.87,2.59-0.87,4.17c0,1.57,0.29,2.95,0.87,4.14c0.58,1.18,1.4,2.1,2.47,2.76
				c1.07,0.66,2.35,0.99,3.83,0.99c1.04,0,1.98-0.16,2.81-0.48c0.83-0.32,1.53-0.78,2.1-1.36c0.57-0.58,0.97-1.26,1.21-2.04
				l-2.28-0.64c-0.2,0.53-0.48,0.98-0.85,1.34c-0.37,0.36-0.8,0.62-1.31,0.8c-0.5,0.18-1.07,0.27-1.69,0.27
				c-0.95,0-1.79-0.21-2.51-0.63c-0.72-0.42-1.28-1.03-1.69-1.83c-0.36-0.73-0.56-1.61-0.59-2.63h11.15v-1
				c0-1.43-0.19-2.64-0.57-3.62C433.99,138.4,433.48,137.61,432.84,137.02z M423.8,141.97c0.05-0.71,0.22-1.39,0.53-2.02
				c0.37-0.74,0.89-1.34,1.58-1.81c0.68-0.46,1.5-0.7,2.44-0.7c0.85,0,1.6,0.2,2.23,0.59c0.63,0.39,1.12,0.93,1.46,1.61
				c0.34,0.68,0.52,1.45,0.52,2.32H423.8z"/>
			<polygon class="st0" points="261.88,148.53 270.37,137.4 270.37,135.52 258.88,135.52 258.88,137.72 267.32,137.72 
				267.32,137.88 258.6,149.09 258.6,150.89 270.65,150.89 270.65,148.69 261.88,148.69 			"/>
			<path class="st0" d="M297.7,135.28c-0.92,0-1.75,0.24-2.48,0.71c-0.73,0.47-1.24,1.09-1.52,1.85h-0.16v-2.32h-2.28v15.37h2.36
				v-9.73c0-0.69,0.17-1.31,0.5-1.86c0.34-0.54,0.8-0.97,1.38-1.28c0.58-0.31,1.25-0.47,2-0.47c0.31,0,0.61,0.02,0.89,0.07
				c0.28,0.04,0.47,0.07,0.55,0.1v-2.4c-0.13-0.01-0.33-0.02-0.59-0.03C298.09,135.28,297.88,135.28,297.7,135.28z"/>
			<path class="st0" d="M312.5,137.96h-0.24c-0.17-0.27-0.42-0.61-0.74-1.03c-0.32-0.42-0.77-0.79-1.36-1.12
				c-0.59-0.33-1.39-0.5-2.39-0.5c-1.29,0-2.44,0.32-3.42,0.97c-0.99,0.64-1.76,1.55-2.31,2.72c-0.55,1.17-0.83,2.54-0.83,4.12
				c0,1.6,0.29,2.96,0.86,4.08c0.57,1.12,1.35,1.97,2.33,2.56c0.98,0.59,2.1,0.88,3.34,0.88c1,0,1.8-0.16,2.39-0.48
				c0.59-0.32,1.04-0.68,1.36-1.09c0.32-0.41,0.56-0.75,0.74-1.03h0.2v3.12c0,1.28-0.4,2.22-1.21,2.82c-0.81,0.6-1.83,0.9-3.07,0.9
				c-0.93,0-1.68-0.14-2.25-0.41c-0.57-0.27-1.02-0.59-1.35-0.95c-0.33-0.36-0.6-0.69-0.81-0.97l-1.88,1.32
				c0.32,0.53,0.75,1.03,1.3,1.51c0.54,0.47,1.23,0.85,2.05,1.14c0.82,0.29,1.8,0.44,2.94,0.44c1.23,0,2.34-0.2,3.35-0.59
				c1-0.39,1.8-1,2.4-1.83c0.6-0.83,0.9-1.91,0.9-3.23v-15.81h-2.28V137.96z M311.95,146.01c-0.34,0.81-0.84,1.44-1.49,1.87
				c-0.65,0.43-1.45,0.65-2.4,0.65c-0.99,0-1.81-0.23-2.48-0.7c-0.66-0.46-1.16-1.1-1.5-1.92c-0.34-0.82-0.51-1.76-0.51-2.83
				c0-1.04,0.17-1.99,0.5-2.84c0.33-0.85,0.83-1.53,1.49-2.04c0.66-0.51,1.5-0.76,2.5-0.76c0.96,0,1.77,0.24,2.42,0.72
				c0.65,0.48,1.15,1.14,1.48,1.99c0.33,0.85,0.5,1.82,0.5,2.93C312.46,144.22,312.29,145.19,311.95,146.01z"/>
			<path class="st0" d="M358.09,135.28c-0.92,0-1.75,0.24-2.48,0.71c-0.73,0.47-1.24,1.09-1.52,1.85h-0.16v-2.32h-2.28v15.37h2.36
				v-9.73c0-0.69,0.17-1.31,0.5-1.86c0.34-0.54,0.8-0.97,1.38-1.28c0.58-0.31,1.25-0.47,2-0.47c0.31,0,0.61,0.02,0.9,0.07
				c0.28,0.04,0.47,0.07,0.54,0.1v-2.4c-0.13-0.01-0.33-0.02-0.59-0.03C358.48,135.28,358.26,135.28,358.09,135.28z"/>
			<path class="st0" d="M283.88,136.31c-1.04-0.66-2.26-0.99-3.65-0.99c-1.39,0-2.6,0.33-3.65,0.99c-1.04,0.66-1.86,1.59-2.44,2.78
				c-0.58,1.19-0.87,2.59-0.87,4.19c0,1.59,0.29,2.98,0.87,4.16c0.58,1.19,1.4,2.11,2.44,2.77c1.04,0.66,2.26,0.99,3.65,0.99
				c1.39,0,2.6-0.33,3.65-0.99c1.04-0.66,1.86-1.58,2.44-2.77c0.58-1.19,0.87-2.58,0.87-4.16c0-1.6-0.29-3-0.87-4.19
				C285.73,137.9,284.92,136.97,283.88,136.31z M284.34,146.15c-0.33,0.88-0.83,1.59-1.51,2.13c-0.68,0.54-1.55,0.81-2.6,0.81
				c-1.05,0-1.92-0.27-2.6-0.81c-0.68-0.54-1.18-1.25-1.51-2.13c-0.33-0.88-0.49-1.83-0.49-2.86c0-1.03,0.16-1.98,0.49-2.87
				c0.33-0.89,0.83-1.6,1.51-2.15c0.68-0.55,1.55-0.82,2.6-0.82c1.05,0,1.92,0.27,2.6,0.82c0.68,0.55,1.18,1.26,1.51,2.15
				c0.33,0.89,0.49,1.84,0.49,2.87C284.83,144.31,284.67,145.27,284.34,146.15z"/>
			<polygon class="st0" points="325.17,147.77 325.01,147.77 320.77,135.52 318.21,135.52 323.89,150.89 326.29,150.89 
				331.97,135.52 329.41,135.52 			"/>
			<path class="st0" d="M345.48,137.02c-0.64-0.6-1.35-1.03-2.13-1.29c-0.78-0.27-1.57-0.4-2.37-0.4c-1.39,0-2.6,0.34-3.64,1.02
				c-1.04,0.68-1.84,1.62-2.42,2.82c-0.58,1.2-0.87,2.59-0.87,4.17c0,1.57,0.29,2.95,0.87,4.14c0.58,1.18,1.4,2.1,2.47,2.76
				c1.07,0.66,2.35,0.99,3.83,0.99c1.04,0,1.98-0.16,2.81-0.48c0.83-0.32,1.54-0.78,2.1-1.36c0.57-0.58,0.97-1.26,1.21-2.04
				l-2.28-0.64c-0.2,0.53-0.48,0.98-0.85,1.34s-0.8,0.62-1.31,0.8c-0.5,0.18-1.07,0.27-1.69,0.27c-0.95,0-1.79-0.21-2.51-0.63
				c-0.72-0.42-1.28-1.03-1.69-1.83c-0.37-0.73-0.56-1.61-0.59-2.63h11.15v-1c0-1.43-0.19-2.64-0.57-3.62
				C346.63,138.4,346.12,137.61,345.48,137.02z M336.43,141.97c0.05-0.71,0.22-1.39,0.53-2.02c0.37-0.74,0.89-1.34,1.58-1.81
				c0.68-0.46,1.5-0.7,2.44-0.7c0.85,0,1.6,0.2,2.23,0.59c0.63,0.39,1.12,0.93,1.46,1.61c0.34,0.68,0.52,1.45,0.52,2.32H336.43z"/>
		</g>
	</g>
	<g>
		<path class="st1" d="M79.38,24.41c-1.43,4.14-4.26,8.12-8.37,11.32l-9.24,7.18c-1.86,1.44-2.23,3.78-0.83,5.22l6.97,7.18
			c7.93,8.17,5.83,21.42-3.01,28.29c-0.92,0.72-1.68,1.31-1.68,1.31c-7.99,6.2-18.53,7.7-26.61,4.48c-2.57-1.02-4.89-2.51-6.8-4.48
			L4.25,58.58c-7-7.21-5.15-18.91,4.14-26.13L42.28,6.13c10.52-8.17,25.48-8.17,33.42,0C80.53,11.11,81.64,17.96,79.38,24.41z"/>
		<linearGradient id="SVGID_1_" gradientUnits="userSpaceOnUse" x1="40.0098" y1="64.5967" x2="114.5093" y2="76.3963">
			<stop  offset="0" style="stop-color:#FFFFFF;stop-opacity:0.65"/>
			<stop  offset="0.2588" style="stop-color:#D6D5E9;stop-opacity:0.65"/>
			<stop  offset="0.5397" style="stop-color:#B0ADD4;stop-opacity:0.65"/>
			<stop  offset="0.7637" style="stop-color:#9995C8;stop-opacity:0.65"/>
			<stop  offset="0.9011" style="stop-color:#908CC3;stop-opacity:0.65"/>
		</linearGradient>
		<path class="st2" d="M111.75,55.21L86.2,28.89c-3.97-4.09-9.69-6.13-15.74-6.13c-6.05,0-12.42,2.04-17.68,6.13
			c0,0-0.75,0.59-1.68,1.31c-8.84,6.87-10.94,20.11-3,28.29l6.97,7.18c1.4,1.44,1.03,3.78-0.83,5.23l-9.25,7.18
			c-2.52,1.96-4.56,4.21-6.09,6.61c-4.86,7.62-4.63,16.77,1.4,22.98c3.97,4.09,9.69,6.13,15.74,6.13c6.05,0,12.42-2.04,17.68-6.13
			l33.89-26.32C116.91,74.13,118.76,62.43,111.75,55.21"/>
		
			<linearGradient id="SVGID_00000013891774319164771560000005617133630880953490_" gradientUnits="userSpaceOnUse" x1="41.6388" y1="54.3061" x2="74.3611" y2="59.4888">
			<stop  offset="0" style="stop-color:#FFFFFF;stop-opacity:0.3"/>
			<stop  offset="1" style="stop-color:#FFFFFF;stop-opacity:0.1"/>
		</linearGradient>
		<path style="fill:url(#SVGID_00000013891774319164771560000005617133630880953490_);" d="M60.93,48.13l6.98,7.18
			c7.93,8.17,5.83,21.42-3.01,28.29c-0.93,0.72-1.68,1.3-1.68,1.3c-7.99,6.21-18.54,7.71-26.62,4.48c0.56-1.6,1.33-3.18,2.3-4.7
			c1.53-2.4,3.57-4.65,6.09-6.61l9.25-7.18c1.86-1.44,2.23-3.78,0.83-5.23l-6.97-7.18c-7.94-8.17-5.84-21.42,3-28.28
			c0.93-0.72,1.68-1.31,1.68-1.31c5.26-4.09,11.64-6.13,17.68-6.13c3.13,0,6.17,0.55,8.92,1.64c-1.42,4.14-4.25,8.12-8.37,11.32
			l-9.25,7.18C59.9,44.35,59.53,46.69,60.93,48.13z"/>
	</g>
</g>
</svg>
