<?xml version="1.0" encoding="UTF-8" standalone="no"?><!DOCTYPE svg PUBLIC "-//W3C//DTD SVG 1.1//EN" "http://www.w3.org/Graphics/SVG/1.1/DTD/svg11.dtd"><svg width="100%" height="100%" viewBox="0 0 5600 1204" version="1.1" xmlns="http://www.w3.org/2000/svg" xmlns:xlink="http://www.w3.org/1999/xlink" xml:space="preserve" xmlns:serif="http://www.serif.com/" style="fill-rule:evenodd;clip-rule:evenodd;stroke-linejoin:round;stroke-miterlimit:2;"><path d="M1305.71,55.704l-354.054,226.022c-9.087,5.784 -17.946,11.865 -26.509,18.246c41.528,30.713 77.197,67.507 106.031,109.182c0.45,-0.3 0.825,-0.525 1.275,-0.825l354.057,-226.022c46.103,-29.363 103.55,-39.272 157.69,-27.109c52.791,11.865 97.169,42.878 125.025,87.181c28.16,44.981 37.397,98.369 25.985,150.181c-11.641,52.491 -42.954,97.319 -88.232,126.228l-240.747,153.638c-51.284,32.74 -77.568,92.587 -66.978,152.509c10.588,60 55.869,107.153 115.341,120.297l56.619,12.54c26.053,5.782 42.575,31.613 36.868,57.594c-2.778,12.538 -10.365,23.278 -21.25,30.263c-10.887,6.984 -23.731,9.309 -36.343,6.456l-316.288,-69.759c-37.319,-8.26 -72.234,-22.825 -103.397,-43.029c-37.547,-24.253 -69.762,-56.54 -94.54,-95.362c-3.907,-6.159 -7.66,-12.466 -11.116,-18.775c-36.566,-66.831 -47.606,-143.8 -31.012,-218.963c6.459,-29.437 16.971,-57.293 31.012,-82.978c-24.853,-45.881 -61.047,-85.003 -106.103,-114.065c-33.941,49.037 -58.269,104.681 -71.563,164.675c-26.803,121.422 -4.728,246.075 62.179,350.903c3.153,4.956 6.381,9.762 9.684,14.565c29.362,42.579 65.181,79.447 105.803,109.485c51.891,38.447 111.738,65.856 176.691,80.2l316.134,69.756c14.416,3.156 28.909,4.806 43.325,4.806c37.322,0 74.044,-10.662 106.331,-31.312c44.753,-28.535 75.616,-72.763 87.107,-124.5c23.578,-106.781 -44.154,-212.96 -151.007,-236.613l-56.168,-12.465l240.215,-153.335c79.069,-50.462 133.738,-128.631 154.085,-220.318c19.975,-90.635 3.831,-183.822 -45.429,-262.369c-49.259,-78.547 -127.128,-133.213 -219.265,-153.938c-25.935,-5.828 -52.338,-8.693 -78.663,-8.693c-67.975,-0 -135.418,19.109 -192.793,55.703Z" style="fill:url(#_Linear1);fill-rule:nonzero;"/><path d="M273.057,8.694c-92.134,20.725 -170.003,75.391 -219.265,153.938c-49.335,78.547 -65.403,171.734 -45.431,262.441c20.278,91.615 75.018,169.784 154.09,220.246l240.216,153.41l-56.169,12.39c-106.856,23.654 -174.587,129.832 -151.009,236.613c11.487,51.737 42.353,95.965 87.031,124.5c32.366,20.65 69.084,31.312 106.403,31.312c14.419,0 28.834,-1.578 43.178,-4.806l316.285,-69.756c64.953,-14.344 124.875,-41.753 176.762,-80.2c-40.622,-30.038 -76.441,-66.906 -105.803,-109.484c-31.163,20.203 -66.003,34.768 -103.325,43.028l-316.359,69.837c-12.541,2.775 -25.379,0.45 -36.341,-6.534c-10.891,-6.985 -18.4,-17.725 -21.175,-30.263c-5.709,-25.981 10.809,-51.812 36.791,-57.593l56.696,-12.541c59.472,-13.144 104.675,-60.297 115.341,-120.297c10.584,-59.922 -15.694,-119.769 -66.984,-152.509l-240.741,-153.638c-45.281,-28.909 -76.594,-73.737 -88.234,-126.15c-11.413,-51.89 -2.253,-105.278 25.981,-150.259c27.862,-44.303 72.241,-75.316 125.028,-87.181c15.169,-3.379 30.638,-5.104 46.031,-5.104c39.425,0 78.469,11.11 111.66,32.213l354.053,226.022c0.453,0.3 0.828,0.525 1.278,0.825c45.056,29.062 81.25,68.184 106.103,114.065c13.969,25.685 24.481,53.541 30.941,82.979c16.593,75.162 5.556,152.131 -30.941,218.962c3.456,6.309 7.209,12.616 11.116,18.775c24.778,38.822 56.993,71.109 94.54,95.363c3.378,-4.804 6.607,-9.61 9.763,-14.566c66.906,-104.828 88.981,-229.481 62.172,-350.903c-13.216,-59.994 -37.619,-115.638 -71.56,-164.675c-28.834,-41.675 -64.503,-78.469 -106.031,-109.181c-8.556,-6.307 -17.494,-12.463 -26.578,-18.247l-354.059,-226.022c-57.379,-36.597 -124.81,-55.706 -192.791,-55.703c-26.322,-0 -52.738,2.868 -78.663,8.693Z" style="fill:url(#_Linear2);fill-rule:nonzero;"/><path d="M3139.38,1174.56c4.796,-0 8.753,-0.397 11.878,-1.2c3.125,-0.794 5.631,-1.885 7.522,-3.269c1.887,-1.378 3.193,-3.012 3.921,-4.903c0.725,-1.888 1.091,-3.994 1.091,-6.322c0,-4.937 -2.325,-9.044 -6.975,-12.316c-4.653,-3.268 -12.641,-6.787 -23.975,-10.571c-4.944,-1.744 -9.884,-3.738 -14.822,-5.991c-4.94,-2.253 -9.372,-5.088 -13.297,-8.503c-3.922,-3.413 -7.122,-7.553 -9.59,-12.422c-2.472,-4.866 -3.707,-10.788 -3.707,-17.766c0,-6.975 1.31,-13.256 3.925,-18.853c2.616,-5.59 6.322,-10.353 11.116,-14.275c4.797,-3.925 10.606,-6.94 17.438,-9.047c6.828,-2.106 14.528,-3.159 23.103,-3.159c10.168,0 18.965,1.091 26.375,3.269c7.409,2.181 13.512,4.578 18.309,7.193l-9.809,26.81c-4.216,-2.181 -8.903,-4.106 -14.06,-5.778c-5.159,-1.669 -11.368,-2.503 -18.634,-2.503c-8.141,-0 -13.988,1.125 -17.547,3.375c-3.562,2.256 -5.341,5.706 -5.341,10.353c0,2.762 0.654,5.09 1.963,6.975c1.306,1.89 3.159,3.597 5.559,5.122c2.397,1.525 5.157,2.909 8.282,4.143c3.121,1.235 6.571,2.507 10.353,3.813c7.847,2.909 14.675,5.778 20.487,8.609c5.81,2.835 10.644,6.141 14.497,9.919c3.847,3.778 6.719,8.209 8.609,13.294c1.885,5.09 2.832,11.262 2.832,18.528c-0,14.097 -4.941,25.031 -14.822,32.803c-9.881,7.775 -24.775,11.659 -44.681,11.659c-6.685,0 -12.716,-0.4 -18.091,-1.197c-5.378,-0.8 -10.134,-1.781 -14.275,-2.943c-4.144,-1.16 -7.706,-2.397 -10.681,-3.703c-2.982,-1.31 -5.488,-2.541 -7.519,-3.707l9.591,-27.028c4.5,2.472 10.059,4.685 16.671,6.647c6.613,1.963 14.713,2.944 24.304,2.944" style="fill:#e9267a;fill-rule:nonzero;"/><path d="M3376.31,1049.45l-0,28.987l-45.554,0l0,122.059l-34.003,0l0,-122.059l-45.553,0l0,-28.987l125.11,-0Z" style="fill:#e9267a;fill-rule:nonzero;"/><path d="M3484.31,1083.67c-0.759,2.193 -1.869,5.178 -3.331,8.953c-1.46,3.778 -3.122,8.14 -4.988,13.087c-1.868,4.95 -3.956,10.4 -6.259,16.347c-2.306,5.953 -4.65,12.191 -7.031,18.719l43.193,-0c-2.312,-6.55 -4.55,-12.81 -6.715,-18.775c-2.166,-5.966 -4.225,-11.428 -6.175,-16.378c-1.95,-4.95 -3.66,-9.307 -5.131,-13.082c-1.472,-3.768 -2.66,-6.725 -3.563,-8.871m40.853,116.828c-1.684,-5.25 -3.49,-10.641 -5.425,-16.172c-1.934,-5.531 -3.859,-11.041 -5.778,-16.522l-58.994,-0c-1.906,5.509 -3.822,11.031 -5.734,16.569c-1.919,5.537 -3.703,10.915 -5.353,16.125l-35.31,-0c5.685,-16.272 11.075,-31.313 16.175,-45.119c5.104,-13.803 10.091,-26.809 14.975,-39.016c4.885,-12.206 9.694,-23.79 14.432,-34.765c4.737,-10.969 9.656,-21.685 14.759,-32.147l32.231,-0c4.963,10.462 9.853,21.178 14.672,32.147c4.816,10.975 9.672,22.559 14.563,34.765c4.89,12.207 9.89,25.213 14.997,39.016c5.109,13.806 10.509,28.847 16.206,45.119l-36.416,-0Z" style="fill:#e9267a;fill-rule:nonzero;"/><path d="M3658.09,1111.4c6.109,-10.287 11.928,-20.575 17.456,-30.865c5.528,-10.288 10.619,-20.653 15.278,-31.088l37.491,0c-8.281,16.275 -16.856,32.044 -25.719,47.297c-8.865,15.26 -18.237,30.594 -28.118,45.991l-0,57.762l-34,0l-0,-57.325c-9.885,-15.4 -19.291,-30.803 -28.229,-46.209c-8.934,-15.4 -17.543,-31.241 -25.828,-47.516l39.453,0c4.641,10.435 9.647,20.8 15.019,31.088c5.366,10.29 11.1,20.578 17.197,30.865" style="fill:#e9267a;fill-rule:nonzero;"/><path d="M3955.21,1203.55c-24.559,0 -43.266,-6.828 -56.125,-20.487c-12.859,-13.656 -19.291,-33.056 -19.291,-58.197c0,-12.494 1.963,-23.647 5.885,-33.456c3.925,-9.81 9.3,-18.091 16.131,-24.847c6.828,-6.76 14.966,-11.881 24.412,-15.369c9.441,-3.487 19.688,-5.231 30.732,-5.231c6.393,-0 12.206,0.475 17.437,1.419c5.231,0.946 9.81,2.034 13.731,3.268c3.922,1.238 7.194,2.507 9.81,3.816c2.612,1.306 4.5,2.325 5.665,3.05l-9.809,27.462c-4.65,-2.468 -10.062,-4.575 -16.237,-6.318c-6.179,-1.744 -13.188,-2.616 -21.035,-2.616c-5.231,0 -10.353,0.872 -15.365,2.616c-5.013,1.743 -9.447,4.54 -13.294,8.39c-3.853,3.853 -6.941,8.825 -9.266,14.932c-2.325,6.103 -3.487,13.512 -3.487,22.231c-0,6.975 0.762,13.481 2.29,19.509c1.525,6.028 3.994,11.225 7.41,15.581c3.412,4.36 7.881,7.813 13.406,10.354c5.519,2.543 12.206,3.815 20.053,3.815c4.938,0 9.372,-0.287 13.294,-0.872c3.922,-0.578 7.412,-1.272 10.462,-2.072c3.05,-0.796 5.738,-1.706 8.066,-2.725c2.322,-1.012 4.431,-1.959 6.319,-2.831l9.375,27.244c-4.797,2.909 -11.553,5.525 -20.272,7.85c-8.719,2.322 -18.819,3.484 -30.297,3.484" style="fill:#e9267a;fill-rule:nonzero;"/><path d="M4094.27,1124.86c0,7.41 0.907,14.097 2.725,20.053c1.816,5.96 4.432,11.082 7.847,15.366c3.413,4.287 7.591,7.594 12.531,9.916c4.941,2.325 10.607,3.487 17.004,3.487c6.243,0 11.878,-1.162 16.89,-3.487c5.013,-2.322 9.225,-5.629 12.644,-9.916c3.409,-4.284 6.028,-9.406 7.844,-15.366c1.815,-5.956 2.725,-12.643 2.725,-20.053c-0,-7.409 -0.91,-14.131 -2.725,-20.162c-1.816,-6.028 -4.435,-11.188 -7.844,-15.475c-3.419,-4.285 -7.631,-7.591 -12.644,-9.919c-5.012,-2.322 -10.647,-3.488 -16.89,-3.488c-6.397,0 -12.063,1.2 -17.004,3.6c-4.94,2.397 -9.118,5.741 -12.531,10.025c-3.415,4.288 -6.031,9.447 -7.847,15.475c-1.818,6.032 -2.725,12.679 -2.725,19.944m115.303,0c0,12.935 -1.928,24.303 -5.778,34.11c-3.85,9.809 -9.118,18.021 -15.8,24.631c-6.687,6.612 -14.643,11.587 -23.868,14.928c-9.229,3.341 -19.147,5.016 -29.75,5.016c-10.319,-0 -20.054,-1.675 -29.21,-5.016c-9.153,-3.341 -17.147,-8.316 -23.975,-14.928c-6.831,-6.61 -12.206,-14.822 -16.128,-24.631c-3.925,-9.807 -5.884,-21.175 -5.884,-34.11c-0,-12.931 2.031,-24.303 6.1,-34.112c4.068,-9.807 9.553,-18.053 16.459,-24.738c6.9,-6.681 14.891,-11.697 23.975,-15.04c9.078,-3.341 18.634,-5.013 28.663,-5.013c10.315,0 20.05,1.672 29.206,5.013c9.153,3.343 17.144,8.359 23.975,15.04c6.828,6.685 12.206,14.931 16.128,24.738c3.925,9.809 5.887,21.181 5.887,34.112" style="fill:#e9267a;fill-rule:nonzero;"/><path d="M4382.86,1200.5c-9.738,-17.291 -20.269,-34.363 -31.607,-51.222c-11.334,-16.853 -23.393,-32.766 -36.181,-47.731l0,98.953l-33.566,-0l0,-151.047l27.682,-0c4.793,4.794 10.1,10.678 15.912,17.653c5.81,6.975 11.731,14.425 17.763,22.344c6.028,7.918 12.022,16.128 17.984,24.628c5.953,8.5 11.55,16.675 16.781,24.519l0,-89.144l33.785,-0l-0,151.047l-28.553,-0Z" style="fill:#e9267a;fill-rule:nonzero;"/><path d="M4591.23,1200.5c-9.737,-17.291 -20.271,-34.363 -31.606,-51.222c-11.334,-16.853 -23.394,-32.766 -36.181,-47.731l-0,98.953l-33.566,-0l0,-151.047l27.682,-0c4.793,4.794 10.096,10.678 15.912,17.653c5.809,6.975 11.731,14.425 17.763,22.344c6.028,7.918 12.021,16.128 17.981,24.628c5.956,8.5 11.553,16.675 16.784,24.519l0,-89.144l33.785,-0l-0,151.047l-28.554,-0Z" style="fill:#e9267a;fill-rule:nonzero;"/><path d="M4698.24,1200.5l-0,-151.047l102.006,-0l-0,28.553l-68.006,-0l-0,29.641l60.378,-0l-0,27.9l-60.378,-0l-0,36.4l73.018,-0l0,28.553l-107.018,-0Z" style="fill:#e9267a;fill-rule:nonzero;"/><path d="M4942.8,1203.55c-24.56,0 -43.266,-6.828 -56.128,-20.487c-12.857,-13.656 -19.288,-33.056 -19.288,-58.197c0,-12.494 1.963,-23.647 5.885,-33.456c3.921,-9.81 9.296,-18.091 16.131,-24.847c6.825,-6.76 14.962,-11.881 24.409,-15.369c9.444,-3.487 19.691,-5.231 30.731,-5.231c6.394,-0 12.21,0.475 17.441,1.419c5.228,0.946 9.806,2.034 13.731,3.268c3.922,1.238 7.191,2.507 9.807,3.816c2.615,1.306 4.503,2.325 5.668,3.05l-9.809,27.462c-4.653,-2.468 -10.063,-4.575 -16.238,-6.318c-6.178,-1.744 -13.187,-2.616 -21.034,-2.616c-5.231,0 -10.353,0.872 -15.366,2.616c-5.012,1.743 -9.446,4.54 -13.296,8.39c-3.85,3.853 -6.941,8.825 -9.263,14.932c-2.325,6.103 -3.487,13.512 -3.487,22.231c-0,6.975 0.762,13.481 2.287,19.509c1.528,6.028 3.997,11.225 7.413,15.581c3.412,4.36 7.881,7.813 13.403,10.354c5.522,2.543 12.206,3.815 20.053,3.815c4.937,0 9.375,-0.287 13.297,-0.872c3.922,-0.578 7.409,-1.272 10.459,-2.072c3.053,-0.796 5.741,-1.706 8.069,-2.725c2.322,-1.012 4.428,-1.959 6.319,-2.831l9.371,27.244c-4.793,2.909 -11.55,5.525 -20.268,7.85c-8.719,2.322 -18.822,3.484 -30.297,3.484" style="fill:#e9267a;fill-rule:nonzero;"/><path d="M5175.36,1049.45l-0,28.987l-45.557,0l0,122.059l-34,0l0,-122.059l-45.553,0l0,-28.987l125.11,-0Z" style="fill:#e9267a;fill-rule:nonzero;"/><path d="M5240.75,1200.5l0,-151.047l102.006,-0l0,28.553l-68.003,-0l0,29.641l60.375,-0l0,27.9l-60.375,-0l0,36.4l73.016,-0l-0,28.553l-107.019,-0Z" style="fill:#e9267a;fill-rule:nonzero;"/><path d="M5450.43,1172.81c1.597,0.147 3.45,0.256 5.559,0.328c2.103,0.075 4.61,0.11 7.519,0.11c17,-0 29.606,-4.285 37.816,-12.863c8.209,-8.572 12.315,-20.412 12.315,-35.525c0,-15.837 -3.922,-27.825 -11.768,-35.966c-7.847,-8.137 -20.272,-12.206 -37.272,-12.206c-2.328,0 -4.725,0.038 -7.194,0.11c-2.472,0.075 -4.794,0.256 -6.975,0.546l-0,95.466Zm98.3,-47.95c-0,13.075 -2.034,24.484 -6.1,34.219c-4.072,9.737 -9.847,17.8 -17.328,24.194c-7.488,6.396 -16.603,11.19 -27.356,14.384c-10.757,3.197 -22.813,4.797 -36.182,4.797c-6.103,-0 -13.222,-0.256 -21.359,-0.763c-8.141,-0.512 -16.128,-1.562 -23.975,-3.162l-0,-147.122c7.847,-1.453 16.019,-2.434 24.519,-2.944c8.5,-0.509 15.803,-0.762 21.906,-0.762c12.931,-0 24.666,1.453 35.2,4.359c10.534,2.906 19.581,7.484 27.137,13.731c7.554,6.25 13.366,14.241 17.438,23.975c4.066,9.738 6.1,21.435 6.1,35.094" style="fill:#e9267a;fill-rule:nonzero;"/><path d="M2182.34,692.825c28.304,0 48.319,-2.75 60.066,-8.284c11.731,-5.519 17.606,-16.213 17.606,-32.103c0,-12.428 -7.606,-23.303 -22.784,-32.622c-15.194,-9.322 -38.319,-19.841 -69.388,-31.584c-24.175,-8.966 -46.084,-18.288 -65.759,-27.963c-19.678,-9.659 -36.425,-21.231 -50.228,-34.694c-13.819,-13.465 -24.516,-29.515 -32.103,-48.156c-7.606,-18.641 -11.391,-41.069 -11.391,-67.316c0,-51.084 18.978,-91.471 56.956,-121.165c37.963,-29.678 90.1,-44.535 156.379,-44.535c33.14,0 64.887,2.947 95.278,8.807c30.372,5.872 54.531,12.262 72.49,19.156l-26.925,120.131c-17.962,-6.212 -37.459,-11.728 -58.512,-16.569c-21.069,-4.821 -44.71,-7.25 -70.938,-7.25c-48.334,0 -72.493,13.463 -72.493,40.391c-0,6.213 1.034,11.747 3.106,16.569c2.072,4.837 6.212,9.5 12.428,13.981c6.212,4.5 14.659,9.353 25.372,14.563c10.694,5.228 24.337,10.971 40.906,17.215c33.819,12.544 61.781,24.906 83.884,37.072c22.088,12.188 39.516,25.344 52.3,39.453c12.766,14.125 21.747,29.806 26.925,47.022c5.179,17.219 7.766,37.203 7.766,59.922c0,53.737 -20.194,94.387 -60.581,121.944c-40.391,27.537 -97.525,41.325 -171.394,41.325c-48.334,-0 -88.547,-4.141 -120.65,-12.425c-32.103,-8.288 -54.369,-15.178 -66.797,-20.713l25.891,-125.312c26.231,10.356 53.156,18.481 80.778,24.34c27.606,5.872 54.887,8.8 81.812,8.8" style="fill:#662d91;fill-rule:nonzero;"/><path d="M3012.89,258.903c-31.15,104.953 -63.672,203.338 -97.591,295.15c-33.915,91.831 -70.956,180.894 -111.1,267.188c-14.531,31.071 -29.046,57.478 -43.562,79.225c-14.531,21.746 -30.438,39.693 -47.719,53.853c-17.281,14.14 -36.812,24.5 -58.594,31.068c-21.778,6.554 -47.184,9.838 -76.215,9.838c-24.206,-0 -46.522,-2.25 -66.91,-6.731c-20.387,-4.497 -37.153,-9.497 -50.29,-15.016l26.925,-123.237c15.89,5.518 30.05,9.318 42.475,11.39c12.428,2.072 25.569,3.106 39.387,3.106c27.622,0 48.85,-7.425 63.707,-22.265c14.856,-14.853 27.459,-35.388 37.831,-61.619c-35.244,-69.028 -70.469,-146.541 -105.697,-232.494c-35.228,-85.956 -68.384,-182.431 -99.45,-289.456l163.625,0c6.925,26.928 15.081,56.103 24.453,87.509c9.35,31.425 19.238,63.175 29.644,95.279c10.387,32.103 20.969,63.35 31.715,93.721c10.744,30.391 20.985,57.997 30.694,82.85c8.997,-24.853 18.369,-52.459 28.078,-82.85c9.707,-30.371 19.238,-61.618 28.591,-93.721c9.353,-32.104 18.366,-63.854 27.037,-95.279c8.66,-31.406 16.46,-60.581 23.4,-87.509l159.566,0Z" style="fill:#662d91;fill-rule:nonzero;"/><path d="M3094.7,277.544c26.231,-7.587 60.066,-14.659 101.491,-21.231c41.425,-6.55 84.918,-9.838 130.487,-9.838c46.247,0 84.741,6.053 115.472,18.125c30.712,12.088 55.047,29.175 73.009,51.263c17.944,22.103 30.713,48.334 38.319,78.706c7.588,30.388 11.391,64.209 11.391,101.491l-0,307.578l-154.307,-0l0,-288.938c0,-49.709 -6.568,-84.922 -19.675,-105.631c-13.125,-20.712 -37.64,-31.069 -73.531,-31.069c-11.05,0 -22.781,0.519 -35.209,1.553c-12.428,1.035 -23.478,2.247 -33.141,3.625l0,420.46l-154.306,-0l-0,-526.094Z" style="fill:#662d91;fill-rule:nonzero;"/><path d="M3699.49,123.238l154.307,-24.856l-0,160.522l185.375,0l-0,128.416l-185.375,-0l-0,191.59c-0,32.46 5.693,58.347 17.087,77.669c11.394,19.338 34.338,28.997 68.869,28.997c16.569,-0 33.656,-1.553 51.262,-4.659c17.607,-3.107 33.657,-7.41 48.157,-12.944l21.747,120.128c-18.641,7.606 -39.354,14.159 -62.138,19.678c-22.781,5.519 -50.744,8.284 -83.884,8.284c-42.119,0 -76.991,-5.693 -104.597,-17.087c-27.622,-11.391 -49.71,-27.266 -66.278,-47.638c-16.569,-20.356 -28.141,-45.046 -34.694,-74.046c-6.569,-28.997 -9.838,-61.1 -9.838,-96.313l0,-457.741Z" style="fill:#662d91;fill-rule:nonzero;"/><path d="M4318.77,803.638l-154.306,0l-0,-544.734l154.306,-0l-0,544.734Zm14.5,-702.147c-0,28.319 -9.159,50.585 -27.447,66.797c-18.3,16.231 -39.869,24.335 -64.725,24.335c-24.853,-0 -46.441,-8.104 -64.725,-24.335c-18.303,-16.212 -27.444,-38.478 -27.444,-66.797c0,-28.3 9.141,-50.568 27.444,-66.8c18.284,-16.212 39.872,-24.334 64.725,-24.334c24.856,-0 46.425,8.122 64.725,24.334c18.288,16.232 27.447,38.5 27.447,66.8" style="fill:#662d91;fill-rule:nonzero;"/><path d="M4681.22,813.994c-44.887,-0.697 -81.297,-5.535 -109.259,-14.5c-27.96,-8.963 -50.063,-21.569 -66.278,-37.8c-16.228,-16.213 -27.282,-35.891 -33.141,-59.028c-5.875,-23.125 -8.8,-49.191 -8.8,-78.191l0,-599.619l154.306,-24.856l0,593.409c0,13.819 1.035,26.244 3.103,37.282c2.075,11.05 6.038,20.371 11.91,27.962c5.859,7.603 14.325,13.816 25.375,18.641c11.034,4.837 25.89,7.943 44.531,9.318l-21.747,127.382Z" style="fill:#662d91;fill-rule:nonzero;"/><path d="M4945.3,803.638l-154.306,0l-0,-544.734l154.306,-0l-0,544.734Zm14.5,-702.147c-0,28.319 -9.159,50.585 -27.447,66.797c-18.3,16.231 -39.869,24.335 -64.725,24.335c-24.853,-0 -46.437,-8.104 -64.725,-24.335c-18.303,-16.212 -27.444,-38.478 -27.444,-66.797c0,-28.3 9.141,-50.568 27.444,-66.8c18.288,-16.212 39.872,-24.334 64.725,-24.334c24.856,-0 46.425,8.122 64.725,24.334c18.288,16.232 27.447,38.5 27.447,66.8" style="fill:#662d91;fill-rule:nonzero;"/><path d="M5442.38,530.235c-0,-47.637 -9.497,-85.081 -28.479,-112.366c-19,-27.265 -46.084,-40.906 -81.296,-40.906c-35.21,0 -62.494,13.641 -81.813,40.906c-19.337,27.285 -28.997,64.729 -28.997,112.366c0,47.638 9.66,85.438 28.997,113.4c19.319,27.959 46.603,41.941 81.813,41.941c35.212,-0 62.296,-13.982 81.296,-41.941c18.982,-27.962 28.479,-65.762 28.479,-113.4m157.412,0c0,42.816 -6.212,81.991 -18.641,117.541c-12.428,35.568 -30.387,65.94 -53.853,91.134c-23.478,25.213 -51.618,44.709 -84.403,58.513c-32.797,13.803 -69.559,20.712 -110.29,20.712c-40.047,-0 -76.472,-6.909 -109.257,-20.712c-32.8,-13.804 -60.94,-33.3 -84.403,-58.513c-23.481,-25.194 -41.781,-55.566 -54.887,-91.134c-13.122,-35.55 -19.678,-74.725 -19.678,-117.541c-0,-42.8 6.731,-81.816 20.193,-117.025c13.466,-35.209 32.107,-65.244 55.925,-90.097c23.819,-24.856 52.119,-44.178 84.922,-57.997c32.781,-13.803 68.51,-20.712 107.185,-20.712c39.353,-0 75.421,6.909 108.221,20.712c32.785,13.819 60.922,33.141 84.404,57.997c23.462,24.853 41.765,54.888 54.887,90.097c13.106,35.209 19.675,74.225 19.675,117.025" style="fill:#662d91;fill-rule:nonzero;"/><defs><linearGradient id="_Linear1" x1="0" y1="0" x2="1" y2="0" gradientUnits="userSpaceOnUse" gradientTransform="matrix(1113.84,0,0,1113.84,736.374,601.773)"><stop offset="0" style="stop-color:#e9267a;stop-opacity:1"/><stop offset="1" style="stop-color:#653189;stop-opacity:1"/></linearGradient><linearGradient id="_Linear2" x1="0" y1="0" x2="1" y2="0" gradientUnits="userSpaceOnUse" gradientTransform="matrix(1113.85,0,0,1113.85,0.000413063,601.773)"><stop offset="0" style="stop-color:#fdc572;stop-opacity:1"/><stop offset="0" style="stop-color:#fdc572;stop-opacity:1"/><stop offset="1" style="stop-color:#fb5e9c;stop-opacity:1"/><stop offset="1" style="stop-color:#fb5e9c;stop-opacity:1"/></linearGradient></defs></svg>