<?xml version="1.0" encoding="UTF-8"?>
<svg xmlns="http://www.w3.org/2000/svg" viewBox="0 0 782.24 246.07">
  <defs>
    <style>
      .cls-1 {
        fill: #232149;
      }

      .cls-2 {
        fill: #82f2ae;
      }
    </style>
  </defs>
  <g id="Beeldmerk">
    <path class="cls-2" d="M225.72,79.67H92.94c-7.33,0-13.28,5.94-13.28,13.28v59.75c0,3.67-2.97,6.64-6.64,6.64H13.28c-7.33,0-13.28,5.94-13.28,13.28v53.11c0,7.33,5.94,13.28,13.28,13.28h53.11c7.33,0,13.28-5.94,13.28-13.28v-59.75c0-3.67,2.97-6.64,6.64-6.64h139.42c7.33,0,13.28-5.94,13.28-13.28v-53.11c0-7.33-5.94-13.28-13.28-13.28Z"/>
    <rect class="cls-2" x="39.83" y="-39.83" width="79.67" height="159.33" rx="12.96" ry="12.96" transform="translate(119.5 -39.83) rotate(90)"/>
  </g>
  <g id="Healthy">
    <path class="cls-1" d="M352.37,237.97v-12.15h-15.07v12.15h-4.33v-28.25h4.33v12.19h15.07v-12.19h4.33v28.25h-4.33Z"/>
    <path class="cls-1" d="M361.36,227.14c0-7.34,4.29-11.72,10.92-11.72s9.89,4.05,9.89,10.12c0,.66-.05,1.65-.14,2.64h-16.57c.33,4.47,2.68,6.92,6.92,6.92,3.96,0,5.32-1.98,6.03-4.42l3.58.99c-1.08,4.19-3.91,6.83-9.6,6.83-6.83,0-11.02-4.05-11.02-11.35ZM365.5,225.21h12.85c-.19-4.19-2.12-6.54-6.17-6.54s-6.21,2.17-6.69,6.54Z"/>
    <path class="cls-1" d="M400.34,232.74h-.42c-1.08,3.63-3.91,5.7-7.81,5.7-4.14,0-6.83-1.88-6.83-6.12,0-3.81,2.45-6.59,7.82-6.59h7.06v-1.79c0-3.3-1.27-5.09-4.85-5.09-2.97,0-4.61,1.46-5.32,4.38l-3.86-.94c.9-4.24,4.05-6.83,9.32-6.83,6.12,0,8.8,2.97,8.8,8.43v14.08h-3.91v-5.23ZM400.15,229.78v-1.22h-6.45c-2.87,0-4.52,1.13-4.52,3.3,0,1.74,1.08,3.3,4.33,3.3,4.05,0,6.64-2.26,6.64-5.37Z"/>
    <path class="cls-1" d="M414.14,237.97h-4.1v-30.22h4.1v30.22Z"/>
    <path class="cls-1" d="M421.48,219.37h-3.34v-3.39h3.34v-6.17h4.1v6.17h7.02v3.39h-7.02v11.58c0,2.5.94,3.77,3.39,3.77,1.18,0,2.17-.24,3.34-.57l.52,3.62c-1.51.47-2.68.75-4.71.75-4.61,0-6.64-3.01-6.64-7.11v-12.05Z"/>
    <path class="cls-1" d="M440.79,237.97h-4.1v-30.22h4.1v13.94h.33c1.27-3.86,4.05-6.26,8.05-6.26,4.8,0,7.01,3.2,7.01,8v14.55h-4.1v-13.56c0-3.01-1.32-5.27-4.71-5.27-4,0-6.59,2.5-6.59,6.26v12.57Z"/>
    <path class="cls-1" d="M459.1,245.78l.66-3.77c.99.19,1.88.33,2.82.33,2.59,0,4.05-.66,5.79-4.57l-9.32-21.8h4.52l2.82,7.86c1.04,2.87,2.59,7.06,3.72,10.5h.71c1.18-3.53,2.59-7.58,3.53-10.45l2.68-7.91h4.38l-9.32,22.27c-2.31,5.46-4.99,7.81-9.65,7.81-1.37,0-2.35-.14-3.34-.28Z"/>
  </g>
  <g id="Technology">
    <path class="cls-1" d="M494.88,219.37h-3.34v-3.39h3.34v-6.17h4.1v6.17h7.01v3.39h-7.01v11.58c0,2.5.94,3.77,3.39,3.77,1.18,0,2.17-.24,3.34-.57l.52,3.62c-1.51.47-2.68.75-4.71.75-4.61,0-6.64-3.01-6.64-7.11v-12.05Z"/>
    <path class="cls-1" d="M508.72,227.14c0-7.34,4.28-11.72,10.92-11.72s9.89,4.05,9.89,10.12c0,.66-.05,1.65-.14,2.64h-16.57c.33,4.47,2.68,6.92,6.92,6.92,3.96,0,5.32-1.98,6.03-4.42l3.58.99c-1.08,4.19-3.91,6.83-9.6,6.83-6.83,0-11.02-4.05-11.02-11.35ZM512.86,225.21h12.85c-.19-4.19-2.12-6.54-6.17-6.54s-6.21,2.17-6.69,6.54Z"/>
    <path class="cls-1" d="M543.47,219.04c-4.14,0-6.69,2.68-6.69,7.96,0,4.85,2.4,7.91,6.87,7.91,4.05,0,5.37-2.45,6.17-5.41l3.77.99c-.99,5.04-4,8.05-9.89,8.05-6.92,0-11.11-4.19-11.11-11.49s4.38-11.63,10.97-11.63c6.17,0,9.04,2.92,9.93,8.1l-3.81.8c-.75-3.25-2.26-5.27-6.21-5.27Z"/>
    <path class="cls-1" d="M562.16,237.97h-4.1v-30.22h4.1v13.94h.33c1.27-3.86,4.05-6.26,8.05-6.26,4.8,0,7.01,3.2,7.01,8v14.55h-4.1v-13.56c0-3.01-1.32-5.27-4.71-5.27-4,0-6.59,2.5-6.59,6.26v12.57Z"/>
    <path class="cls-1" d="M587.2,237.97h-4.1v-21.98h4v5.7h.42c1.22-3.91,4.14-6.26,7.96-6.26,4.9,0,7.11,3.2,7.11,8v14.55h-4.1v-13.56c0-3.01-1.22-5.27-4.76-5.27-3.91,0-6.54,2.5-6.54,6.26v12.57Z"/>
    <path class="cls-1" d="M606.79,226.9c0-7.2,4.33-11.49,11.02-11.49s11.02,4.28,11.02,11.49-4.05,11.63-11.02,11.63-11.02-4.47-11.02-11.63ZM610.89,226.86c0,4.94,2.21,8.1,6.87,8.1s6.97-3.15,6.97-8.1-2.4-7.91-6.92-7.91-6.92,2.97-6.92,7.91Z"/>
    <path class="cls-1" d="M637.53,237.97h-4.1v-30.22h4.1v30.22Z"/>
    <path class="cls-1" d="M642.15,226.9c0-7.2,4.33-11.49,11.02-11.49s11.02,4.28,11.02,11.49-4.05,11.63-11.02,11.63-11.02-4.47-11.02-11.63ZM646.24,226.86c0,4.94,2.21,8.1,6.87,8.1s6.97-3.15,6.97-8.1-2.4-7.91-6.92-7.91-6.92,2.97-6.92,7.91Z"/>
    <path class="cls-1" d="M677.03,245.92c-8.29.05-10.73-1.79-10.73-4.71,0-1.93,1.88-3.3,4.94-3.96v-.23c-1.65-.33-2.73-1.22-2.73-2.78,0-1.13.94-2.12,2.26-2.82l1.65-1.03c-3.15-1.08-4.85-3.49-4.85-6.73,0-4.99,3.53-7.67,9.51-7.67h10.69v3.25h-2.64c-1.18,0-2.59-.09-4.57-.28v.42c3.01.61,5.51,1.88,5.51,5.09,0,4.1-3.2,6.54-9.32,6.54-1.41,0-2.64-.14-3.72-.47l-.61.99c-.38.61-.66,1.04-.66,1.51,0,.94.8,1.32,2.31,1.32,2.45,0,5.09-.05,7.49-.05,4.47,0,6.78,1.93,6.78,5.27,0,4.33-2.78,6.4-11.3,6.36ZM684.94,239.71c0-1.41-.99-2.5-3.44-2.5h-7.91c-2.73,0-4,1.46-4,2.82,0,1.98,1.6,2.82,7.58,2.82,6.31,0,7.77-1.08,7.77-3.15ZM671.33,223.66c0,2.73,1.51,4.38,5.51,4.38s5.65-1.6,5.65-4.38-1.93-4.43-5.74-4.43-5.41,1.79-5.41,4.43Z"/>
    <path class="cls-1" d="M689.41,245.78l.66-3.77c.99.19,1.88.33,2.82.33,2.59,0,4.05-.66,5.79-4.57l-9.32-21.8h4.52l2.82,7.86c1.04,2.87,2.59,7.06,3.72,10.5h.71c1.18-3.53,2.59-7.58,3.53-10.45l2.68-7.91h4.38l-9.32,22.27c-2.31,5.46-4.99,7.81-9.65,7.81-1.37,0-2.35-.14-3.34-.28Z"/>
  </g>
  <g id="Tetra">
    <path class="cls-1" d="M335.14,42.28h-45.67v24.72h43.55v116.52h26.84v-116.52s0,0,0,0c0-13.65-11.07-24.72-24.72-24.72Z"/>
    <path class="cls-1" d="M400.9,129.63c0-37.43,21.19-59.55,55.79-59.55s49.67,20.24,49.67,50.61c0,4.24,0,9.18-.47,14.83h-79.8c1.88,20.01,12,30.13,30.84,30.13,17.65,0,23.77-8.48,26.83-19.07l21.66,6.12c-5.18,20.01-19.07,33.66-48.73,33.66-33.9,0-55.79-19.77-55.79-56.73ZM426.32,118.56h56.73c-.94-19.07-9.41-27.62-27.07-27.62s-27.31,7.84-29.66,27.62Z"/>
    <path class="cls-1" d="M758.23,158.98s-5.67,26.91-40.49,26.91c-19.77,0-33.66-9.42-33.66-31.07,0-19.77,12-34.13,40.02-34.13h32.96v-7.53c0-14.36-5.89-22.6-21.42-22.6-12.95,0-20.48,6.59-23.3,19.54l-24.01-5.41c4.24-20.95,20.01-34.37,48.26-34.37,32.01,0,45.67,15.07,45.67,42.61v70.62h-24.01v-24.55ZM757.06,141.87v-4.47h-28.72c-12.71,0-20.01,4.71-20.01,13.89,0,8,4.94,14.83,19.3,14.83,17.66,0,29.43-10.36,29.43-24.25Z"/>
    <rect class="cls-1" x="610.64" y="72.7" width="24.05" height="111.16"/>
    <path class="cls-1" d="M591.1,93.37v-20.48h-12.72c-10.84.71-19.43,9.54-19.76,20.48h32.48Z"/>
    <path class="cls-1" d="M403.4,66.99v-24.72h-19.69c-13.08.85-23.45,11.52-23.85,24.72h43.55Z"/>
    <path class="cls-1" d="M673.71,96.14v-24.72h-15.16c-13.08.85-23.45,11.52-23.85,24.72h39.02Z"/>
    <path class="cls-1" d="M589.69,159.99c-5.41,1.65-10.36,2.83-16.01,2.83-11.06,0-15.07-5.65-15.07-16.48V43h-25.42v29.9h-15.54v20.48h15.54v56.5c0,20.71,10.36,36.72,34.6,36.72,11.06,0,16.71-1.41,24.95-4l-3.06-22.6Z"/>
  </g>
</svg>