<svg xmlns="http://www.w3.org/2000/svg" viewBox="0 0 152.31 119.71"><defs><style>.cls-1{fill:#231f20;}</style></defs><title>Asset 4nutsicon1</title><g id="Layer_2" data-name="Layer 2"><g id="Layer_1-2" data-name="Layer 1"><path class="cls-1" d="M128.49,30.76V72.81q0,25.62-20.23,25.62-19.61,0-20.18-24.13V46.37q0-14.19-3-21.39a36.52,36.52,0,0,0-10.48-14.5Q62.57,0,44,0T13.34,10.48A35.94,35.94,0,0,0,3.07,25,66.37,66.37,0,0,0,0,46.37v73.31c.64-.7,1.26-1.4,2-2.06A40.69,40.69,0,0,1,23.82,107V46.9q0-25.62,20.22-25.62,19.62,0,20.18,24.13V73.34q0,14.19,3,21.39a36.42,36.42,0,0,0,10.48,14.5q12.06,10.49,30.59,10.48T139,109.23a35.94,35.94,0,0,0,10.27-14.5,66.65,66.65,0,0,0,3.07-21.39V30.76Z"/></g></g></svg>