<?xml version="1.0" encoding="utf-8"?>
<!-- Generator: Adobe Illustrator 26.0.3, SVG Export Plug-In . SVG Version: 6.00 Build 0)  -->
<svg version="1.1" xmlns="http://www.w3.org/2000/svg" xmlns:xlink="http://www.w3.org/1999/xlink" x="0px" y="0px"
	 viewBox="0 0 708.7 201.3" style="enable-background:new 0 0 708.7 201.3;" xml:space="preserve">
<style type="text/css">
	.st0{fill:none;enable-background:new    ;}
	.st1{fill:#4C6875;}
	.st2{fill:#E4DC48;}
	.st3{fill:#4C6875;enable-background:new    ;}
	.st4{fill:#4C6975;}
</style>
<g id="logo_x5F_openline-Page_x25_201">
	<path class="st0" d="M0,0"/>
	<g>
		<path class="st1" d="M199.7,74.3c0,10.1,5.2,21.2,16.5,21.2s16.5-11.1,16.5-21.2s-5.1-21.5-16.5-21.5
			C204.8,52.9,199.7,64.3,199.7,74.3z M253.6,74.3c0,21.9-14.9,40.4-37.4,40.4s-37.4-18.5-37.4-40.4c0-21.3,15.4-40.7,37.4-40.7
			C238.3,33.6,253.6,53,253.6,74.3z"/>
		<path class="st1" d="M299.7,95.5c10.9,0,16.2-11.4,16.2-21.2c0-9.9-5.4-21.5-16.2-21.5c-11.2,0-16.4,10.5-16.4,20.7
			C283.3,83.8,288.3,95.5,299.7,95.5z M262.5,46.2c0-7,4.3-11.7,10.4-11.7c5.8,0,9.1,3.2,10.4,8.8c3.9-6.4,12-9.6,19.8-9.6
			c22.5,0,33.6,21.2,33.6,41.6c0,19.9-13.3,39.6-34.3,39.6c-6.5,0-13.6-2.5-19.1-7.3v25.7c0,7-4.3,11.7-10.4,11.7
			s-10.4-4.7-10.4-11.7V46.2z"/>
		<path class="st1" d="M395.2,67.2c-1.2-9.2-6.9-16.1-16.7-16.1c-9.3,0-15.5,7.1-16.5,16.1H395.2z M362.4,81.2
			c1.4,10.4,10,15.2,19.7,15.2c10.7,0,18.1-8.5,23.6-8.5c4.5,0,8.5,4.5,8.5,9c0,9.1-18.5,17.8-34,17.8c-23.5,0-39.1-17.2-39.1-40.4
			c0-21.3,15.4-40.7,37.4-40.7c22.6,0,37.5,20.7,37.5,38.2c0,6.3-2.7,9.3-9.1,9.3L362.4,81.2L362.4,81.2z"/>
		<path class="st1" d="M423.4,46.2c0-7,4.3-11.7,10.4-11.7c5.4,0,8.8,2.9,9.6,7.7c4.1-5.7,10.3-8.6,20.1-8.6
			c16.4,0,28.6,10.5,28.6,28.3v40.3c0,7-4.3,11.7-10.4,11.7s-10.4-4.7-10.4-11.7V65.6c0-9.8-6.1-14.5-13.6-14.5
			c-8.6,0-13.3,6.3-13.3,14.5v36.6c0,7-4.3,11.7-10.4,11.7s-10.4-4.7-10.4-11.7v-56H423.4z"/>
	</g>
	<g>
		<path class="st2" d="M520.4,107.2c0,4.3-2.5,6.9-6.4,6.9c-3.9,0-6.4-2.6-6.4-6.9V6.9c0-4.2,2.5-6.9,6.4-6.9c3.9,0,6.4,2.6,6.4,6.9
			V107.2z"/>
		<path class="st2" d="M550.1,107.2c0,4.3-2.5,6.9-6.4,6.9s-6.4-2.6-6.4-6.9v-66c0-4.3,2.5-6.9,6.4-6.9s6.4,2.6,6.4,6.9V107.2z
			 M543.7,7.9c4.4,0,7.8,3.5,7.8,7.9s-3.5,7.9-7.8,7.9c-4.4,0-7.9-3.5-7.9-7.9S539.3,7.9,543.7,7.9z"/>
		<path class="st2" d="M566.9,41.2c0-4.3,2.5-6.9,6.4-6.9s6.4,2.6,6.4,6.9v3.1l0.3,0.3c5.7-7.3,13.7-10.3,21.4-10.3
			c11.9,0,26.9,7.6,26.9,29.6v43.3c0,4.3-2.5,6.9-6.4,6.9s-6.4-2.6-6.4-6.9V64.6c0-13.6-9.5-19.2-17.9-19.2s-17.9,5.6-17.9,19.2
			v42.5c0,4.3-2.5,6.9-6.4,6.9s-6.4-2.6-6.4-6.9L566.9,41.2L566.9,41.2z"/>
		<path class="st2" d="M695.9,69.5c0-11.1-6.4-24-20.5-24c-15.9-0.6-21.5,12.1-22,24H695.9z M653.4,79.2c0,13.3,8.4,23.8,22.9,23.8
			c17,0,21.4-10.6,26.2-10.6c2.3,0,4.7,2.1,4.7,5.7c0,6.3-15.9,16-31,16c-24.7,0-35.5-19.2-35.5-39.9c0-21.1,13.1-39.9,34.8-39.9
			c21.1,0,33.3,19.2,33.3,38c0,4.5-1.6,6.9-7.1,6.9H653.4z"/>
	</g>
	<path class="st1" d="M133.2,72l14.6,43.3c-2.3,1.1-4.1,3-5.2,5.2l-60.7-25c0.5-1.7,0.8-3.6,0.8-5.5c0-10.1-8.1-18.2-18-18.2
		c-10,0-18,8.2-18,18.2c0,4,1.2,7.6,3.4,10.6l-35.3,30c-1.6-1.4-3.6-2.2-5.8-2.2c-4.9,0-8.9,4-8.9,9s4,9,8.9,9s8.9-4,8.9-9
		c0-1.8-0.5-3.5-1.4-4.9l35.2-30c3.3,3.6,8,5.8,13.1,5.8c1.7,0,3.4-0.2,5-0.7l23.5,79.5c-2.3,1.3-3.9,3.8-3.9,6.7
		c0,4.3,3.4,7.7,7.6,7.7s7.6-3.4,7.6-7.7c0-4.2-3.4-7.7-7.6-7.7c-0.5,0-0.9,0-1.3,0.1L72,106.6c4-1.8,7.2-5,9.1-8.9l60.8,25.2
		c-0.2,0.8-0.3,1.7-0.3,2.5c0,6.2,5,11.2,11.1,11.2s11.1-5,11.1-11.2s-5-11.2-11.1-11.2c-0.9,0-1.7,0.1-2.5,0.3l-14.7-43.3
		c12.1-5,20.6-17,20.6-31c0-18.5-14.8-33.5-33.1-33.5s-33.1,15-33.1,33.5s14.8,33.5,33.1,33.5C126.5,73.7,130,73.1,133.2,72z"/>
	<path class="st3" d="M0,0"/>
</g>
<g id="Layer_1">
	<path class="st4" d="M301.8,157.9h-1.9c-0.8,0-1.4,0.6-1.4,1.3c0,0,0,0,0,0c0,0.8,0.6,1.4,1.3,1.4c0,0,0,0,0,0h1.8v12.8
		c-0.3,2.9,1.9,5.5,4.8,5.8c0.3,0,0.6,0,0.8,0c0.8,0,1.4-0.6,1.4-1.3c0,0,0,0,0,0c0-0.8-0.7-1.4-1.4-1.4c0,0,0,0,0,0
		c-1.5,0-2.6-1.2-2.6-2.7c0-0.1,0-0.2,0-0.3v-12.8h3c0.8,0,1.4-0.6,1.4-1.3c0,0,0,0,0,0c0-0.8-0.6-1.4-1.3-1.4c0,0,0,0,0,0h-3V153
		c0-0.8-0.7-1.5-1.5-1.5c-0.8,0-1.5,0.7-1.5,1.5L301.8,157.9z M316.4,159c0-0.8-0.7-1.5-1.5-1.5c0,0,0,0,0,0c-0.8,0-1.4,0.6-1.5,1.4
		c0,0,0,0,0,0v18.8c0,0.8,0.6,1.5,1.4,1.5c0,0,0,0,0.1,0c0.8,0,1.5-0.6,1.5-1.4c0,0,0,0,0,0v-10.4c0-4.3,2.2-7.3,6.4-7.3
		c0.8,0.1,1.5-0.5,1.6-1.2c0.1-0.8-0.5-1.5-1.2-1.6c-0.1,0-0.2,0-0.4,0c-2.7-0.1-5.2,1.4-6.3,3.8L316.4,159z M328.6,157.5
		c-0.8,0-1.5,0.6-1.5,1.4c0,0,0,0,0,0v12.2c0,4.4,1.5,8.4,8.6,8.4c7.1,0,8.6-4,8.6-8.4V159c0-0.8-0.6-1.4-1.4-1.5c0,0,0,0,0,0
		c-0.8,0-1.5,0.6-1.5,1.4c0,0,0,0,0,0v12.2c0,3-1,5.6-5.7,5.6s-5.7-2.6-5.7-5.6V159C330,158.2,329.4,157.5,328.6,157.5L328.6,157.5
		 M356.4,160.1c1.9-0.1,3.7,0.6,5,1.9c0.2,0.3,0.6,0.4,1,0.4c0.7,0,1.3-0.6,1.3-1.3v0c0-0.3-0.1-0.6-0.3-0.9c-1.8-2-4.4-3.1-7-2.9
		c-3.9,0-7.1,1.8-7.1,5.6c0,7.6,12.2,5.7,12.2,10.5c0,2.4-2.3,3.3-4.9,3.3c-2.2,0.1-4.3-0.7-5.9-2.3c-0.3-0.3-0.6-0.5-1-0.5
		c-0.7,0-1.3,0.6-1.3,1.3v0c0,0.3,0.1,0.6,0.3,0.9c2,2.2,4.9,3.4,7.9,3.3c4.4,0,7.9-1.9,7.9-6.1c0-7.3-12.2-5.6-12.2-10.5
		C352.4,160.8,354.4,160.1,356.4,160.1 M370.7,157.9h-1.8c-0.8,0-1.4,0.6-1.4,1.3c0,0,0,0,0,0c0,0.8,0.6,1.4,1.3,1.4c0,0,0,0,0,0
		h1.7v12.8c-0.3,2.9,1.9,5.5,4.8,5.8c0.3,0,0.6,0,0.8,0c0.8,0,1.4-0.6,1.4-1.3c0,0,0,0,0,0c0-0.8-0.7-1.4-1.4-1.4c0,0,0,0,0,0
		c-1.6,0-2.7-1-2.7-3v-12.8h3c0.8,0,1.4-0.6,1.4-1.3c0,0,0,0,0,0c0-0.7-0.5-1.4-1.3-1.4c0,0-0.1,0-0.1,0h-3V153
		c0-0.8-0.7-1.5-1.5-1.5c-0.8,0-1.5,0.7-1.5,1.5L370.7,157.9z M381.1,168.4c0,7.8,3.8,11.2,10,11.2c2.7,0.1,5.3-0.8,7.3-2.6
		c0.3-0.2,0.5-0.6,0.5-1c0-0.7-0.6-1.3-1.3-1.3c0,0,0,0,0,0c-0.3,0-0.6,0.1-0.8,0.3c-1.6,1.3-3.5,2-5.6,2c-3.7,0.1-6.9-2.8-7-6.5
		c0-0.4,0-0.7,0-1h13.5c1.9,0,1.9-1.6,1.9-2.9c0.4-4.6-3-8.6-7.6-9c-0.4,0-0.8,0-1.2,0C384.7,157.3,381.2,161.2,381.1,168.4
		 M396.6,166.7h-12.5c0.3-4.1,2.4-6.7,6.5-6.7C395.6,159.9,396.6,163.3,396.6,166.7 M418.3,170.4c0.4,3.1-1.8,6-4.9,6.4
		c-0.5,0.1-0.9,0.1-1.4,0c-4.2,0-6.5-2.7-6.5-8.5c0-5.8,2.3-8.4,6.5-8.4c2.6,0.1,5,1.7,6.1,4.1L418.3,170.4z M412,157.3
		c-6,0-9.3,3.5-9.3,11.1s3.5,11.2,9.5,11.2c4.6,0.4,8.7-3,9.1-7.6c0-0.5,0-1,0-1.5v-23c0-0.8-0.7-1.5-1.5-1.5s-1.5,0.7-1.5,1.5l0,0
		v12.8C416.8,158.3,414.5,157.2,412,157.3 M436.8,168.4c0,7.6,3.6,11.2,9.5,11.2c2.5,0.1,5-0.8,7-2.4c0.4-0.3,0.6-0.7,0.6-1.1
		c0-0.7-0.6-1.3-1.3-1.3c0,0,0,0,0,0c-0.3,0-0.6,0.1-0.9,0.3c-1.5,1.3-3.4,2-5.4,2c-4.3,0-6.5-2.7-6.5-8.5s2.3-8.4,6.5-8.4
		c1.9-0.1,3.8,0.7,5,2.2c0.3,0.4,0.7,0.6,1.1,0.6c0.7,0,1.3-0.6,1.3-1.3c0,0,0,0,0,0c0-0.3-0.1-0.6-0.3-0.9
		c-1.7-2.1-4.4-3.3-7.1-3.2C440.4,157.3,436.8,160.8,436.8,168.4 M459.6,146c-0.8,0-1.4,0.7-1.5,1.5v26.4c0,3.6,1.7,5.4,4.9,5.4
		c0.8,0,1.4-0.6,1.4-1.4v0c0-0.8-0.6-1.4-1.4-1.4c-1.2,0-1.9-0.8-1.9-2.6v-26.4C461.2,146.6,460.5,146,459.6,146 M476.8,157.3
		c-6,0-9.7,3.5-9.7,11.1s3.7,11.2,9.7,11.2s9.7-3.6,9.7-11.2S482.8,157.3,476.8,157.3 M476.8,176.7c-4.3,0-6.7-2.4-6.7-8.5
		c0-6,2.4-8.4,6.7-8.4c4.3,0,6.7,2.6,6.7,8.4C483.5,174.1,481.1,176.7,476.8,176.7 M492.1,157.5c-0.8,0-1.5,0.6-1.5,1.4c0,0,0,0,0,0
		v12.2c0,4.4,1.5,8.4,8.6,8.4c7.1,0,8.6-4,8.6-8.4v-12.2c0-0.8-0.6-1.4-1.4-1.5c0,0,0,0,0,0c-0.8,0-1.5,0.6-1.5,1.4c0,0,0,0,0,0
		v12.2c0,3-1,5.6-5.6,5.6c-4.7,0-5.7-2.6-5.7-5.6v-12.2C493.6,158.1,493,157.5,492.1,157.5 M527.6,170.3c0.4,3.1-1.8,6-4.9,6.4
		c-0.4,0.1-0.8,0.1-1.2,0c-4.3,0-6.5-2.7-6.5-8.5c0-5.8,2.3-8.4,6.5-8.4c2.6,0.1,5,1.7,6.1,4.1V170.3z M521.4,157.2
		c-6,0-9.3,3.5-9.3,11.1s3.5,11.2,9.5,11.2c4.6,0.4,8.7-3,9.1-7.6c0-0.5,0-1,0-1.6v-22.9c0-0.8-0.6-1.4-1.4-1.5c0,0,0,0,0,0
		c-0.8,0-1.5,0.6-1.5,1.4c0,0,0,0,0,0v12.8C526.1,158.3,523.8,157.2,521.4,157.2 M554.2,160.1c1.9-0.1,3.7,0.6,5,1.9
		c0.5,0.5,1.4,0.6,1.9,0.1c0.3-0.2,0.4-0.6,0.4-1c0-0.3-0.1-0.6-0.3-0.9c-1.8-2-4.4-3.1-7-2.9c-3.9,0-7.1,1.8-7.1,5.6
		c0,7.6,12.2,5.7,12.2,10.5c0,2.4-2.3,3.3-4.9,3.3c-2.2,0.1-4.3-0.7-5.9-2.3c-0.3-0.3-0.6-0.4-1-0.5c-0.7,0-1.3,0.6-1.3,1.3v0
		c0,0.3,0.1,0.6,0.3,0.9c2,2.2,4.9,3.4,7.9,3.3c4.4,0,7.9-1.9,7.9-6.1c0-7.3-12.2-5.6-12.2-10.5
		C550.1,160.8,552.2,160.1,554.2,160.1 M575.6,157.3c-6,0-9.7,3.5-9.7,11.1c0,7.6,3.8,11.2,9.7,11.2s9.7-3.6,9.7-11.2
		C585.4,160.8,581.7,157.3,575.6,157.3 M575.6,176.7c-4.3,0-6.7-2.4-6.7-8.5s2.4-8.4,6.7-8.4s6.7,2.6,6.7,8.4
		S579.9,176.7,575.6,176.7 M591.2,145.9c-0.8,0-1.5,0.7-1.5,1.5v26.5c0,3.6,1.7,5.4,4.9,5.4c0.8,0,1.4-0.6,1.4-1.4v0
		c0-0.8-0.6-1.4-1.4-1.4c-1.3,0-1.9-0.8-1.9-2.6v-26.4C592.8,146.6,592.1,146,591.2,145.9 M601,157.5c-0.8,0-1.5,0.6-1.5,1.4
		c0,0,0,0,0,0v12.2c0,4.4,1.5,8.4,8.6,8.4s8.6-4,8.6-8.4V159c0-0.8-0.6-1.4-1.4-1.5c0,0,0,0,0,0c-0.8,0-1.5,0.6-1.5,1.4c0,0,0,0,0,0
		v12.2c0,3-1,5.6-5.6,5.6c-4.7,0-5.7-2.6-5.7-5.6V159C602.5,158.2,601.8,157.5,601,157.5 M623.5,157.9h-1.8c-0.8,0-1.4,0.6-1.4,1.3
		c0,0,0,0,0,0c0,0.8,0.6,1.4,1.3,1.4c0,0,0,0,0,0h1.8v12.8c-0.3,2.9,1.9,5.5,4.8,5.8c0.2,0,0.4,0,0.6,0c0.8,0,1.4-0.6,1.4-1.3
		c0,0,0,0,0,0c0-0.8-0.7-1.4-1.4-1.4c0,0,0,0,0,0c-1.6,0-2.7-1-2.7-3v-12.8h3c0.8,0,1.4-0.6,1.4-1.3c0,0,0,0,0,0
		c0-0.7-0.5-1.4-1.3-1.4c0,0-0.1,0-0.1,0h-3V153c0-0.8-0.7-1.5-1.5-1.5c-0.8,0-1.5,0.7-1.5,1.5L623.5,157.9z M638.1,159
		c0-0.8-0.6-1.5-1.4-1.5c0,0,0,0,0,0c-0.8,0-1.5,0.7-1.5,1.5v18.8c0,0.8,0.6,1.5,1.4,1.5c0,0,0,0,0,0c0.8,0,1.4-0.6,1.5-1.4
		c0,0,0,0,0-0.1V159z M636.6,153.2c0.9,0.1,1.7-0.6,1.8-1.4c0-0.1,0-0.2,0-0.3c0-1.3-0.7-1.9-1.8-1.9s-1.8,0.5-1.8,1.9
		c-0.1,0.9,0.6,1.7,1.4,1.8C636.4,153.2,636.5,153.2,636.6,153.2 M652.4,157.3c-6,0-9.7,3.5-9.7,11.1c0,7.6,3.8,11.2,9.7,11.2
		s9.7-3.6,9.7-11.2C662.2,160.8,658.5,157.3,652.4,157.3 M652.4,176.7c-4.2,0-6.7-2.4-6.7-8.5s2.4-8.4,6.7-8.4s6.7,2.6,6.7,8.4
		S656.7,176.7,652.4,176.7 M675.9,157.3c-2.5-0.1-4.9,1.1-6.1,3.2V159c0-0.8-0.7-1.5-1.5-1.5c-0.8,0-1.5,0.7-1.5,1.5v18.8
		c0,0.8,0.7,1.5,1.5,1.5c0.8,0,1.5-0.7,1.5-1.5v-11.4c0-3.7,1.6-6.5,6.1-6.5c4.6,0,5.6,2.4,5.6,6.2v11.7c0,0.8,0.7,1.5,1.5,1.5
		c0.8,0,1.5-0.7,1.5-1.5v-12.4C684.4,161.5,683.1,157.3,675.9,157.3 M696.6,160.1c1.9-0.1,3.7,0.6,5.1,1.9c0.2,0.3,0.6,0.4,1,0.4
		c0.7,0,1.4-0.6,1.4-1.3c0-0.3-0.1-0.7-0.3-0.9c-1.7-2-4.4-3.1-7-2.9c-3.9,0-7.1,1.8-7.1,5.6c0,7.6,12.2,5.7,12.2,10.5
		c0,2.4-2.3,3.3-4.9,3.3c-2.2,0.1-4.3-0.7-5.9-2.3c-0.3-0.3-0.6-0.5-1-0.5c-0.7,0-1.3,0.6-1.3,1.3c0,0.3,0.1,0.6,0.3,0.9
		c2,2.2,4.9,3.4,7.9,3.3c4.4,0,7.9-1.9,7.9-6.1c0-7.3-12.2-5.6-12.2-10.5C692.5,160.8,694.5,160.1,696.6,160.1"/>
</g>
</svg>
